<mxfile host="app.diagrams.net" agent="Mozilla/5.0 (Windows NT 10.0; Win64; x64) AppleWebKit/537.36 (KHTML, like Gecko) Chrome/130.0.0.0 Safari/537.36" version="24.8.4">
  <diagram id="C5RBs43oDa-KdzZeNtuy" name="Page-1">
    <mxGraphModel dx="1075" dy="471" grid="1" gridSize="10" guides="1" tooltips="1" connect="1" arrows="1" fold="1" page="1" pageScale="1" pageWidth="827" pageHeight="1169" math="0" shadow="0">
      <root>
        <mxCell id="WIyWlLk6GJQsqaUBKTNV-0" />
        <mxCell id="WIyWlLk6GJQsqaUBKTNV-1" parent="WIyWlLk6GJQsqaUBKTNV-0" />
        <mxCell id="zkfFHV4jXpPFQw0GAbJ--0" value="Element&#xa;&lt;&lt;enumeration&gt;&gt;&#xa;" style="swimlane;fontStyle=2;align=center;verticalAlign=top;childLayout=stackLayout;horizontal=1;startSize=20;horizontalStack=0;resizeParent=1;resizeLast=0;collapsible=1;marginBottom=0;rounded=0;shadow=0;strokeWidth=1;" parent="WIyWlLk6GJQsqaUBKTNV-1" vertex="1">
          <mxGeometry x="40" y="265" width="160" height="45" as="geometry">
            <mxRectangle x="230" y="140" width="160" height="26" as="alternateBounds" />
          </mxGeometry>
        </mxCell>
        <mxCell id="zkfFHV4jXpPFQw0GAbJ--13" value="Mob&#xa;" style="swimlane;fontStyle=0;align=center;verticalAlign=top;childLayout=stackLayout;horizontal=1;startSize=26;horizontalStack=0;resizeParent=1;resizeLast=0;collapsible=1;marginBottom=0;rounded=0;shadow=0;strokeWidth=1;" parent="WIyWlLk6GJQsqaUBKTNV-1" vertex="1">
          <mxGeometry x="280" y="120" width="160" height="190" as="geometry">
            <mxRectangle x="340" y="380" width="170" height="26" as="alternateBounds" />
          </mxGeometry>
        </mxCell>
        <mxCell id="WQaWYwOavrE4UbBEG4pA-8" value="String : name" style="text;align=left;verticalAlign=top;spacingLeft=4;spacingRight=4;overflow=hidden;rotatable=0;points=[[0,0.5],[1,0.5]];portConstraint=eastwest;" parent="zkfFHV4jXpPFQw0GAbJ--13" vertex="1">
          <mxGeometry y="26" width="160" height="24" as="geometry" />
        </mxCell>
        <mxCell id="zkfFHV4jXpPFQw0GAbJ--14" value="int : PV" style="text;align=left;verticalAlign=top;spacingLeft=4;spacingRight=4;overflow=hidden;rotatable=0;points=[[0,0.5],[1,0.5]];portConstraint=eastwest;" parent="zkfFHV4jXpPFQw0GAbJ--13" vertex="1">
          <mxGeometry y="50" width="160" height="24" as="geometry" />
        </mxCell>
        <mxCell id="WQaWYwOavrE4UbBEG4pA-5" value="int : ATK" style="text;align=left;verticalAlign=top;spacingLeft=4;spacingRight=4;overflow=hidden;rotatable=0;points=[[0,0.5],[1,0.5]];portConstraint=eastwest;" parent="zkfFHV4jXpPFQw0GAbJ--13" vertex="1">
          <mxGeometry y="74" width="160" height="20" as="geometry" />
        </mxCell>
        <mxCell id="WQaWYwOavrE4UbBEG4pA-4" value="int : ATKSpeed" style="text;align=left;verticalAlign=top;spacingLeft=4;spacingRight=4;overflow=hidden;rotatable=0;points=[[0,0.5],[1,0.5]];portConstraint=eastwest;" parent="zkfFHV4jXpPFQw0GAbJ--13" vertex="1">
          <mxGeometry y="94" width="160" height="28" as="geometry" />
        </mxCell>
        <mxCell id="WQaWYwOavrE4UbBEG4pA-3" value="int : range" style="text;align=left;verticalAlign=top;spacingLeft=4;spacingRight=4;overflow=hidden;rotatable=0;points=[[0,0.5],[1,0.5]];portConstraint=eastwest;" parent="zkfFHV4jXpPFQw0GAbJ--13" vertex="1">
          <mxGeometry y="122" width="160" height="22" as="geometry" />
        </mxCell>
        <mxCell id="WQaWYwOavrE4UbBEG4pA-2" value="Element : element&#xa;" style="text;align=left;verticalAlign=top;spacingLeft=4;spacingRight=4;overflow=hidden;rotatable=0;points=[[0,0.5],[1,0.5]];portConstraint=eastwest;" parent="zkfFHV4jXpPFQw0GAbJ--13" vertex="1">
          <mxGeometry y="144" width="160" height="22" as="geometry" />
        </mxCell>
        <mxCell id="zkfFHV4jXpPFQw0GAbJ--15" value="" style="line;html=1;strokeWidth=1;align=left;verticalAlign=middle;spacingTop=-1;spacingLeft=3;spacingRight=3;rotatable=0;labelPosition=right;points=[];portConstraint=eastwest;" parent="zkfFHV4jXpPFQw0GAbJ--13" vertex="1">
          <mxGeometry y="166" width="160" height="8" as="geometry" />
        </mxCell>
        <mxCell id="WQaWYwOavrE4UbBEG4pA-1" value="" style="endArrow=none;html=1;rounded=0;exitX=1;exitY=0.25;exitDx=0;exitDy=0;entryX=0;entryY=0.5;entryDx=0;entryDy=0;" parent="WIyWlLk6GJQsqaUBKTNV-1" source="zkfFHV4jXpPFQw0GAbJ--0" target="WQaWYwOavrE4UbBEG4pA-2" edge="1">
          <mxGeometry width="50" height="50" relative="1" as="geometry">
            <mxPoint x="250" y="420" as="sourcePoint" />
            <mxPoint x="250" y="240" as="targetPoint" />
          </mxGeometry>
        </mxCell>
        <mxCell id="WQaWYwOavrE4UbBEG4pA-6" value="" style="shape=image;verticalLabelPosition=bottom;labelBackgroundColor=default;verticalAlign=top;aspect=fixed;imageAspect=0;image=data:image/png,iVBORw0KGgoAAAANSUhEUgAAAeEAAAByCAYAAABkz2lXAAAABHNCSVQICAgIfAhkiAAAABl0RVh0U29mdHdhcmUAZ25vbWUtc2NyZWVuc2hvdO8Dvz4AAAAodEVYdENyZWF0aW9uIFRpbWUAbWFyLiAxMiBub3YuIDIwMjQgMTc6MzY6MTR5VPq/AAAgAElEQVR4nOy9f4wj53nn+VEsLUuGFZYTj1lK7O3yRlLXLGw3hdghhVhLap2g6VwOpJAApBAfmroAOxQS7FBAALEXG4B/7EUcXC5i73lhNuBD2DkvROLkuAjIURGQ42LiRCQ8iorCCFOUpaCIlePiWraLtpQUs9LW/cHumZ5ucvrHdDfZPfUBZjBDFt/3eaveep+3nrfe53uH53kePj4+Pj4+PifOz8zaAB8fHx8fn9sV3wn7+Pj4+PjMCN8J+/j4+Pj4zAjfCfv4+Pj4+MwI3wn7+Pj4+PjMCN8J+/j4+Pj4zAjfCfv4+Pj4+MyIO2dtwDS+9a1vYRjGrM3w8fHx8TkiVlZW+Lmf+7lZmzFX3DGvyTp+5Vd+BVmW+djHPjZrU04Vg8GAv/3bv+XRRx+dSf1vv/02f/3Xfz2z+vfDrM/RaeLrX/86v/zLv8y//Jf/ctamHIp//Md/pNls3jbX+tvf/jaBQIDPfvazszZlF6+88goPPPAA6+vrszZlrpjbJ+EPfvCD/N7v/R6xWGzWppwqLl++zOuvv86f/MmfzKT+V199lW63O7P698PLL79Mr9ebaxvnhVdffZUnnniCz3/+87M25VAMBgNUVb1trvV/+A//gXvuuYfV1dVZm7KL//yf/zNvvvnmrM2YO+bWCR8roy4bxSpt28YR4hTKF1gKAPRprpVRTRdBjpPNpzc/Pzv0m2tUNAPLBlGSEAVwXZDCKbIrEUL0aaxV0E0bBxElmiW/skQA6DcvUVZNXDFOtrBCJHir1ozoXMqix6s8Fbl+ovvNNSq6PfknYpRsXsYo12hbmzYqCTIXl1mgT2O1hGqDFM1SuBDhlk2caOOQ1noJzZpiYjhDPgXqfm0c9WlWKuguuLZIOC7iuAkuphdu2frpzeqykS+hOnGKz15g6bBlbN1HSMjSZmeSo6QyKSKh+b95+s1LVDQbx3URBBFBcHEdFxeBcLbEhYhF/ckiNStK4esXiczQ1tEIAkd0SofdOpWKhilIKJKIoCSIuxqG8hQrh+kMR2nc7YY3p8RiMU/X9WOswfAK8bCnCHhSquZZ1z53vGqu4LWPsebj5Dvf+Y73mc985qbHOLWEB2GvZG59oHs5eXwe7PEHnpoRPcSMpzrbf2l65WzJM3cWuI1ut+t9+tOf3p+xTs1LiXhiquZdr8b11EzUy2mW53qep+ckDyHlqa7nubbuFaIpr+Z4nucZXl7GI1G9/lvX8Cq5nFc13JtWe/nyZe+Xf/mXb8HGtpePZrya6XqeZ3gFBY94xbM9z3OMspdIlDf70/5sNAphL1Gxtyr09HzYUwrG/uy7FbSsJ0o572Z32ec//3nvxRdfvMkR4zYKGXXz/65nlqKeIEa98s06yglh27YXCoVuesz4fpC9/LWb3vHapbgX3bpB2nlPFjKeOq2Ak8DVvFxubwtWV1e9P/qjP7pZQZ5RjnuSFPdKun3tU6dd8uKi6GW1wxjneLVcfs8xc21tzfv3//7fH6aCM83t/Xa0kkdVswhqltSTHYabHwubf24bglHiYQFbq9EeAQRJ5rPIjkqp2r922KhVwYhnWTyiavs1FUeRcLQKtWvVODhShvzyAjfMqwMQCMXIZ2VsZ1JhDVbzGkrxy6wcYfhioo0jB+J50ou76wku5cgpNhOf4yfaOKDdNrEMk8G4BGKFAin5tPbAAIvxMKLTpqb39z587ujT6bhE8gWitjVrY67Rr5XRJvX7g9Irk823UYo1noqFrn0cjDxFpRA+VJGjXoWy7h6Bcbcnt2c4+hoC0nIFrWIRzaXIhNu8sCLecMSos0o8Z5LKJ7BrNZxMhcqKjLGWIlOwSZRzyK6DpVaxUiVygoXltKlWoaA/SzoEw84auZJBOBHF0XXIlXl62w0wc0YmbdNFjKeIbvmGSJ58tEK+XKZz8RkiDFFrkCkfld09au0olWqYjFKgXOlx4elFIESqmJ0aRg5li2R3fOZ0LpFKqST0lzja0zrFxkCcYmGaow+QKBZ2fTrdxhDxhEK+EEeqyUSjceLZPIULi8CA5mqGbNlEzmTJhEUMTcNNlaleWCLAiO5GjqImkYiLtDWLVPnLJBf6NJ7MUyNBQjZQjSilygqLgQGtS3nKVphEWMDR27jEj+ZUuTACGPbRqjpuOEcxtRlOHzZ5Il7EyeaIGjVUIUfty0lC/QZPZLJUxQLVhIBt61Q1iZL+ZZaDMGg+SbYCiTjoqokog0GBdsmlmKvgxFOELQ1dzlO5eKtLDy621aVjlimaeV6ILFMqjSYcN/nciu1VMpkyZCqkJAfXrFF1s5RSLpZto1c15JLOM+OGsbrLfhH10RR5I0yxGAXHQqsaxCsaObdCvqRjIbC6ahLNPUXykCsVfa2GgUQhuvtGWczVKAlbbSygCnHisoOuWSRKZdJSm7ViGymu4JpVak6RF3I2xXyFtiVSXl0lmshzcZ7GttPArB/Fp3Ei4ejcVojR8fSc4gmC4uV0y6vmCt5WMNA1Kl6upHm253mumvEEMeuNIzaqlxEEL1oeBx7tStRD3AqVtr28LHiJquN5ru5lJcFL1DYDkmbJCyt577iCjfsPR4tePFf2yuWyVyoUvFK17dk7j1NTnojoZVTH88yyly3tbfV+w9GunveyVdvzPNurxgUPOefpE6LI18LRu77ZDPVKYS9TKHgpGU+Ilrw9ItGe5+0/HL0/G28MRx/ORsczqnkvE1c8ScADwQtvnWu74sWFbaFSo+ApW/83Cp4iRL3NLujZlbgnZTXv9XLUE+St8KDrqRnJS9Qcz6mlPFHKetpm/W4t5QlHFI4mnPOqtapXySc8WYp6pfa2dQxH98q5std2PM9zquP2bDbPLIU9rtmkeVlR9DKa53me6ZWUrfvG8WoJwVNKxvjfKdETs5o3bobu5eTr52An+w9Hi16iVPOq+bgX3bkUsC0cbU05t57neNW4cH3Zwih4CpKX013P81xPywiemNFubn8750mC4o2rH7dZ3rzwelbcFvKfzl7haKOgeKB4hZssFViVuCco18dAsxT2hHDZM/WsJ0dzXlVre5Ztem1jfI3dWsITpJwfjj4kt/mT8BZBYl/WqFhhsqkURjRBZesrUUa2apQuWYRtG1yR64EXAUVZuPZvQVJQguN/A7i4YBsYNghtlToCuAKJVHQOwt0i4exFLt7kTZNgskBWVqmUKmxETeKFi0dU9xCt2sYWSqya4AgSglWjopWIJQ/4PKPkqTy9gpCCaLxIphCl/UzsCF7IOikbh3RbFsrKMzy78gwwpPVklERVo/fU0vXQ/1aHUcLIlDCMAUPBwHRdDK1OXQSXKJm4RE8zcZFpb9SxBBcnnCEhgakaOGIGKbCjzCNAUBKspJOQToAhkcuWSF19emy/ICGJBpXiGoZi4rgu7rbQqiCHUQJbBrm4LoBMPCFT1XR6YdBshVRcAQzahoOg6NTqDgIuciaFfMstEFHiaVYiCmJjHA1rra7iFp9medtRZnvyub1WiqxwbQgQZMLK5skWBFzXBcw97JcJK5sFCGz+5uhQomFENCxrBDuXU7p16kIaUTdwxRRbMUFJEnFNHTNaphzNUcjGydoiiYrOC0u3fqfd7vhO+BoLrNQ0jHicshnf/KxHOZWimmhz9aklRg2dXOWAN4UUJiyBFU6QTo/DNPFOh9OxghIhn49SyRcoKhrmUUWZBiqqVEZ9OjJe9x1lQIlSLasMkiscqJpNRxKIPE2t3Caay5CLGzybvEVjT8xGB71cxgr/KWPfHiSWiiMZEuKkskwDy5WJh0MEhTCKoKHE06QXARKEOzaioyC0RaIr6fHbvKMoHRPksIJQs7nm/46lE4qIogBtE2MEsjPg26UEWaOA9a0LhIYb1PLqPsoJ4AoJinkJ24aC/gqLQQCFaFikKkTJpJPjaxPt0DmyCcUSySQwbFI1JYo7/JQSnXxutxBusGOSUYe1XxiH/EcNyhWFpy4e7s2MQLJIMa5RLFXpL1/gelR7SLNmIBbSKFEZoW3hAAuAbTsIchTZ0GhnVK4+E2DYvUQqp9K78BTyZqPdUZ+NcpvUU+kjmATfPnygWCwWZ23EJKrVKo888giyLB994aMu9T8sU9O/zZXROT4VvW884AkfI/GF++nqbxPP/hoSd/F+/9s837a46+4fYrz1Du6VNpcHMh/53rPUn38D272Xhz475Lk/rqJb73Dn/Q/xid6X+JJq8NbbEg8m0mQT96B/6Su8/MMf8lrrv/Ki+xl+MywdywzoH/7hH/jGN77Bv/t3/27i9/3mGuXqi1y23uE9933u+sRnCUvTLRHPn+O1qsnnvvR/sixNPewag8GAr3/96zzxxBOTv2+t8Yd/UKbtStz3cJT7PgSDb34N7XKbK5cNzHfv4t5PfQb5hw3W1jfQ9DamDe+9O+TNH57js5/8CHeOutT/rzLPf9vEdt/jvfc/zP3R+7jzex10rY2u6bz5w3Oc/zWFj0yw4fvf/z7PP//81HO0Xxvvfnmd/7L+PHr7CvY740FocNenCH9MGPexfdko8cZGBfXKa3S7Pd58rcV/+apFqvQf+bx0J7z7Mhvl5zHfuZu7R13W/1hF/P2vUP6tjyFID/PrH79M5Ustfjjs0fqvKm9/8jf5/G/9Jp/qf5U/bnyPd7/3N3ytZiIlPs/Srz7Mp96sUfnmu9wxfBmt9hzalbdwP/4w/+uU/vhnf/ZnPPzww/yrf/Wvdn+5rY1vue/x7h3n+NRnfgn57jd5/nkd851zvK1f4RfjH+Lv1DZv33MX3zPexnW+jW7cxac+OeS5//urtN96hzvPP8y5l8tUnr+C7X6cz/56mI9cWSXxxS/x3HNf5auVDb7x8vuc//UYy4mHGKplav13Gbz8Nf6rLvBryU9OnLS8++67VCoV/uAP/mDite431yhVnqf9hgPvDXmz802+8bX/h0t/UESXf5/ib7/PN/6PL1EzbNyPP8gXL2QJTzi3515ep1R9kTfefo/7H76fXqXCc5ctHPFBHr6nxR9XVMy33+PjD/02v5P53AT776L5hxXUKzbvSJ/iofdf5I+/ovGG8x6feDjF5z72PZ5/Tuettxyk3/xtPjPlnv3mN79JIBDg4Ycfnvg9fIToY4/yiStl/uDSN3i59z2+91qLr9VfRPhigd9aEBAffISPX/kqlda7jPpf40vqnfz+V8r8L2+V+d/+uM377w+xTZN3PvdFVsIf4c4P38FrNZUr7ts4UoJkeNJdB51Ohx//+Md84QtfmGLbbcqs4+HTOP414YPgeu4+1hr3Lsb1jqKYm7GfNeEDc4DGH2iL0ow40Balk2Dr9LqOZ9vOjX1ka03Y8G5+HaZ8N+0n7ubf7h7Xdu814akGec6OtuxV1w04qpcJp7yqYXqWZXqmoXuVlOxFS9sXf/e+L/ezJnxYbn1MOKJxZRt7b1HaYYFje7Yz3YiJ9rnOocYxf014Mrf3FqV9EziafeiBAKdyO7u/Cf942Tq9gSChUHBbHxnS09vYroupdRjc7DpM+W7aTwKbfweO7doGCN7QFg5WlyATlRx0w8ZxwXUsDFcmFd8ejjmi+/KQ3Hrds7UfIBAMEQpON2KifYHg6RzH5hR/TdjHZ24RkKJFNKsICJPXiM8qgSUuvvAthv0elu3ginFK6go38Rc+PqeSuRVweOSRR/jgBz/IvffeO2tTThVvv/02r776Kv/23/7bmdT/ox/9CMMwZlb/fpj1OTpN/OVf/iWKovALv/ALszblUPzTP/0TL7300m1zrS9fvsxdd93F0tKhEpEeK6+99hqf/vSnfQGHHcztk/CPf/xjfuVXfoUHHnhg1qacKizLotvt8tBDD82k/rfeeovvfOc7M6t/P/T7fQzDmGsb54W//du/5V//63/N+fPnZ23KofjJT37CCy+8cNtc6+9///sIgjCX7f3Hf/zHWZswl8ytExZFkd/4jd84ARWlIY3H81De2iKyfwatNYpVgdyfHjIB/jFw+fJlNE3jd3/3d/f9m2Gvg2HZIMeJLW6dhCH9ronlCCixpX1vyXn11Vf58z//8wPVfxPL6LVMBEVBdC1MVyayeOubH15++WX+4i/+4ohsPCpGDDombmSJY5RtODDPPvssX/jCF45HRWnUp6O3sVGILu+/jx2EwWDApUuXDnGth3SbKprWRkiVuBgLjj9rVKnpNnIqx4XY+EoNWhtojoQsgmPZiImVzaxoe5eREtqoahtTVIgqEoLrYlttTCnLM4dQUnjzzTe55557Dt+3B12abRNXipKIbKWOHTHoGZi2ixSOcdhb8N133/VVlCbgv5g11FF1jYo23PvYHYRiKRS7PTlP8Clh1LpE0ZCJLcdxinEebw6BIc3VIoYcIRa2KT9Z38xrfNJYqMUsiXiCTMlAkM7o7sNhl2a9Qi5b3MzdfTvQo6laSPE0cbFK5pE1erM26QaCLC2nCMsOtVyOxnDzs2SGaDRxzQH3Nx4l2w6TSS4Tiy2TzITRso+y0d9fGaFImriooztx0skkyXSaC0/lCdvGyd9zgxZ1QyCaTCG3c8RXO4yAfr1A1Q4TiykYxVVaBx8qfW7Cbe+Eh22XVDGOUVW5LfuWICLgAkEkycU0HejXKJlREkEguEzcqVCd0Qip5DWuXn2JF768wplNzhNcYjmdIn47vXnVUymW2jgBCEZyJJwKle6sjZqAkqeadyjkGptOUUAQNzNrDOvkiwK5/NL1t4UDSxRyUCw0ro8nNytji61rPxgwYIFUVD7xyf1QK1FUbQQCLGUziNUKOl0qFZdoLACESIRNSupspuRnldvcCQ/RHYlEJkvcrLG9b/Wbqzz6hSfZaG7w5GOX6AD9xhpr9SatxjprjS2FGAez2aDR3GD1yTrjT0d0N9bYaHZobayx0R1NLG8eCEQu8HR6gVG/Qc1OUcougNXGEsRrA4so2hjmTYs5NlzLoNXp0Go06d02T4m3AYt5VC03XsYZ2ViuTHgfyWBmweKFCgWnQK5+o/MZtVV0cSvl5nWCShRRV2nvo4wtXNtmMOjTKtcwgGAsduJLXMFMFb0UG9/3toktKcgjE9MWruX+CkoCVts6YcvONre3Ex7ouFKUQCBONm5S1a7fIAvLWaKOBdEViuUs4f462apIJr1MLCxiWfZYNcZ1QEmSXM4QtqroQ6BbJKcrZJYjxDIK7VINYWd5s2nxZIY9DNMd54h1AcfdlXHPdWfhAWXCiTixSISYYpDPNW/PaMWZJEAoNA5t9Kpl7HyZlbkV31lgpVLALea4wYc6Dq4g7E5OKWx+d8MtM6WMa2XZWJaJZc9wcSsQYnxJBtRLBplKnkXXxeXGNh51PuvbndvaCQ/aFpat0WhoOJKCWVVvXIcRJeQgBEMhaGtYkjx+eWQhzTMXN3MKIyFfe5NmnHx+0G7j4GB0OnQMgURGGXfibeXNzXbH0YhRcJHIcppcWCeTqzMUxRsHFhcEcQYWDyycLUtkBUGr3fB04XP6GXbWUcUStQtHpVJ9TCysUC1AMVvF3vRBASWMbJlYO4+1TGwluusJeVIZWwhKmEhkmZViFgVg0KE1kyWgEb16FSdX46lI4Npy1Za5I5fdoXSfW+I2dsID2m6UfDpJMpkkXSyQsm4MSbNtBhhQFETbvvYkNhoMpj6ViYqCKEiEIxEikRiJqLyrvPlgwHpCIlXfbIkAru3gKFFkZ6utI2xHIqqcvHVDvUxpK/Tl2DiixJxGLH0OwajfRHMTPJVeJNBv0pyvN7N2EVqpUBTKlPTND5byFMI6lcb2kWBIo9ImWsgyaVqxq4ydLCyyAAx0A2cGnX3QUrHCeS5EggxbTToBhajk4Gw+1Tu2gzKLweAMM7dblI6VUZdGsUjJiCLFI0RCMDRtXNGgXFhHLmRRbJW2ZWDXO8jpCKGlApV4gVJdJiM7WK5C1FJp2xZmo0tYNtEtG0ftkLpQomQUKTcEEpKLhUzY3FHerM8BACFSxTICNoO+QbUG+XKWhRAU4wVqnQQpQUUPFynOYN9MMJEnqzv0Bz3McptopTw3W8GOlGGPpqai2xZirYEcTxBZmJtYyfEwbJJLZNERKQKuG6ZsLu/1qxNkSLdeolyxsQRp823oEOlKmXZ165gQK7UabrHAmlAgE3YxamW0eJVqOrSvMgadOqpuY6NSVxQE18WxNCqqSDl9si0edZ4kkVFxxSLg4soF2rFlcgWJYq1HOGFTM1MUS2f1DckZMevk1dOYLwGHbbiOd5N85zuOPfoE7XtxKAEHx/IMw/TsHba6tumZ1sEacOQCDq7jmRNsuxXmTsBhjjm8gMN8cJwCDjfgWJ5pWp5z/DXdlIMKOOwbx/JM074lARpfwGEyt+eT8K0QCO5fK/O0CDYEF5iU5S4QWpwYUjtRAkEWz+zeJJ8zQ3Dh0EksTgVnvX0z5DZeE/bx8fHx8ZktvhP28fHx8fGZEXPrhO+44w663XlMoTPfXL16lQ996EMzq//111/n537u52ZW/364evUq99xzz6zNOBW8//77vPLKK7M249D84Ac/OLXiE4fhpZdeotVqzdqMifzVX/0Vr7766qzNmDvmdk3Y87y5lOOad86fP88777wzs/ofeOABfvSjH82s/v1w/vx5fvrTn87ajFPBBz7wAR588MFZm3Fozp07x9WrV2dtxonx0EMPze0E89/8m3/jCzhMYG6d8N70aW3UUNsOciJDNilh1WtUdQspmiG7EiHUb7FeUbGkFLmLUdymDvFlFvfzttSoR6NcQpeLPJOesj9n1KNR0bAlGQkXV1KQLBNxJX2qttIcpYrSEVt2LCpK88GAbsdBiSxOeHnvLLf7RkaDHoZpgxSeszaO6DWrVFUDwimy2WVEY4NqrY0jx8lk0ywJPZqVKpqtkPnfozh/p6HrNlI8TuIRGftbGqpukyg+zXIIGPVoVqtolkQi+xiy9QKq2sYJx4lK4DgughwnFVuY0Qud0/rd0ago+UxmbsPRe7NALBPG0QzE6BJBQiylE0htDTu8uQ93IUYiGiWVi7GAg6lpGPvNChdYJBkXMa0pKdpGHVYTBexEjgvpsfpJWmpTLOkcLKlbl9YMZUl8FaWTZ9hr0dgokC3oOBOPOJvt3smwdYmC6qLEJNqFAs25yg0eYHE5Q9hSsaQ4iwEIRVaIuxo60bGYSGCR5XiUeG6FyP2LLKdlrJqJnFpm8aOLxNIKimOQz26Mc8oHFlnORolGcywvfpTF5RSSpeGE0ySTaVZWMoStIpnV1ozSs07ud76K0vFyip0wEIiTiZvUruV8dhElF622tZY8wBIUIgGAEMlnnmHaQ+1B6RZzqOEiF7Y/Vi9mKaTkA5Uz6tSoTXP0J4GvonTiBBdjJFNx5JsccxbbfSMdigWLVHaJIDKpYoHo3O3nC5LIhGnX9HGeeEa4soSlamzJt/QckfDOMeVaOwSkbJWSWCK7vvmLgHiTFLABFldKpIwcxc5sZiS7+52vonTcnG4nTIB4JopZ08Yzx56NnM8gaDW6AEMTpM3AcL/F6qOPcKkLjHrUn3iERy81aDSaNC49ydpWp+83Wd9o0Gq1aOrmlKfaHppmocR3pm8LEM+Pc78OWhvUmy2aG5e4tKW4NGhRb3TodjvUn7xEc9ihWlbRdZV6ozN+2hw0WVtr0Oo0WF9rMmBAZ+0xHnl8nWZ9lceePFoRA19FaT458+3uqmiCiKu3aDVUDMT9778/QYKpDEq7ij4CRgZueJzedjzv72Mjc9N5vRAiWSkhlbNs+eGbE0JRXLTabG64Xf3OV1E6dk65E4ZAPEvUrKEOoWcJhJezJNCo9WBouIhbi7MLMTKKME6cHlgknZKxLJFEcplkQkCtGUCPSzkVOZMkFouxPFVbzR0LDQm7Z7SBUIggYLV1HDnG8koUq1yhC4zaNWoWSEqEdC6BHIyQzYSRoynSyQghBtRzZUgliUWSJKhQ6oSIZOIIpouSLlAuxI9+sPJVlOaM26Ddto1tuYjxGLFkFKuwJXo/ZwQTZJQ2NX3EyHAQogkyCYuaOoC+xTb1lpuUkaRSliln1+iN9o56CYKA40xeqDheJvQ7X0Xp2Dn1TphAnEzUpKa2sASFEItkEqBVWxiudNMXpERZuh45cl0Y6GiOjLz1oTBNbkEhqoBt7Q7LDLtd+kA4lUJoN2i2TBx3rEISSBbI2iVS0fM8VDQmlGuitV1cq0On08FWMiS25gGyjESQUOiIY3a+itL8cTu0WxSRZGXzXpOQBI3aXDYyRCKjoNc02o5AOBggmklg1VRa5v58MEBwuUxZrpArm9z8pZERtjUjkYRJ/c5XUTp2Tr8TJkAiE8UoVXHl8Tu8S5kEbq2IKR7wHWVRQcGe8rLMjjqLBdxalRuXSocYlotEi3xWRcokWY6FkQSg1+NKy0Asfp2XXrlKLapT3b4NetCi1VOIhgVEJUIkEiGyHCcsbK/1qPFVlOaJ0XAcbbgt2q3ECeNs3msurishiTO2aQqhRAZFK6ISJggEohniVpmKI908FI27zeEGWS6XkatFajdzwkOVqpWimDn5/QgT+52vonTsnAEnDIFEhrgcvv6CxFKGlKyghLcd1G+hGRam2mEw6tHUTOy2Rqvfp6UZWKZG045SLEqo6y26vQ4NzcTSqrQmrOUElp5CLUDpiTUa3T79Xodmo40YjxBAQpFczHaXTtNCEG3UtoVra1SrHXr9HpYQJ6VAIDx+o7vVdhDlEBcqWazyBq1ul07DwBYGdFQdy9LYaPU52qDwWEUpI9kM+i0q11SUMhTjBrXOgEG3ih4ukp2VipI4VlFqlttEK4VTtfVrGqN+i0ZNx7J1ao0WvSEwapGPZqgPz267byCYpJi1UZt9+p0qulKmEJm1UVMIJciEZcLRzYWgQJRMXCIc3pZZfdijuaFhYqFtNOn99x7NSxXKlUs0txb1g8uUK1lkAWBIr1lDsxxMtU6jUade35G2Kw4AAB89SURBVOBSySGnfpnYDBbIJ/e7RXIFCa3WYzBojVWUUvO4en+KmbWCxDQOqqLk7JA2cpxb0TNxN5WS3F3lTqzbMj3TmlCf60xQHXE9x9nx+QRlJnffUk034qso7c2pUFE6hnYfhuNWUXIt0zMm3TtHxFGpKLk779md/58TbllFaVq/81WUjo1TnKzjRoLBwI7/38psLcC4uAD7KSa4sDj5ZalAcEIIObDL1knKTIGdxxwnvorS/HGbtDuwsHgqnvIDOweC4KR7+wwwrd/5KkrHxpkIR/v4+Pj4+JxG5vZJ2HVdvv/978/ajFPHP/zDPzAazW5j6fe+9z3++Z//eWb174dZn6PTxD/90z9h2/tNMzd//OAHP+Bf/It/MWszTgzHcXjvvfdmbcZEfvjDH/KTn/xk1mbMHXPrhAVB4N577521GaeOX/iFXyAQmF2g7Bd/8RfnftCb9Tk6Tdx9991I0ul9N/vcuXNzPyk8SkRRnFsBh5//+Z+f0f7n+WZunfBNGXTYqNZo2zLxTIa04tCoVtEskXAqQza2gNPZoFozERJZcsuTkuQfpTkb1NogywKuKyArLqadYGX5dCyizK+AAzDo0jJsHEEhMbPE9ifBiEHHxI0s7bHt5Qwy7NKxl4jM8gWEQ44pg/XHKClVnomNe+aos0FRd1FkESwDE5mwLOJYBsQLXJAM6qqGbklEozKi4OLYFoalkH86jttUr4k6hMVx+gI5niK2cBI93xdwmAWnc004FGElAbruEo6EILhIMqNgqiZydDxQhyIpwtE42akO+GiEE/r1x8hUZbIXV0gm06TTcdxKkZp9sKwyw1aLWagnz7WAw7DBatkmvLxM1MwRfbJzxFu05oRhl2a9Qi5bpH0mG3gzhrQKWUrGjNNlHWpM6aNpOrWqfq1fWqZDNHeBlXSaKBqqEyWdTnMhF8c1bViIkY46aIZAIp0cCzdcyJMVTYxR8AZRh3Q6zUpGRs1EWT2RXNK+gMMsOJ1OGGApS8JVUbf28LoCEjq1rVFsZII8PcXjkQgnDBvk8w65UmxbPUFihTzhm/xsNwO0qraPJCHHwDwLOLgCojjOdyDKErZpHVCh6pQQXGI5nSI+p8kqjpNRt40jzkm4+6BjSt9AyBYJ67VxbmnAlcLEtw0613LtBOOE5Ul3+IDBMMBSJoo4aek9ECEhW2i6dWtt2ye+gMPJc3qdMEtkEg7q5h0zsERyBRm91maca91BDAdg1KW+0aDVqrO2uk53BEwSThj1aayt0+y0qK+t0xruLZwwatfQpTjhnZ5+IUM+EZpcN32a9SadbpfOxiprnRH9RomK3karN2iOMzfQ3Vhjo9mhtbHGRnfEqNfgyS88ymqjwdoTj7F+RE5xrgUcQss89dQyoWGPWs2lUErNZZJ/n0My6qI74ZlkY5vMPseUTfptFzmRIqPoVDe98NJybEofDRCLbctG4jrYgwG9RhXVBBZixCasQ4z6dWpOhmL2ZGL1voDDyXOKnTBEMgmcmkqfAaYrE0tlkLUa7dEIwxEJBwDHRDcFwrE0GVmlpI5gl3AC9CtZqmKG5UiMdNyiXHH2Fk5wHFxB2Kl1AAQJhabUPdCpaTaCrBDJZIhLARaSWaKyQiKdZHkxCN0iOV0hsxwhllFol2o4i0lSsoUtJMgVy6SO8p6cWwEHgAE9wwRJGtvlc0YY0dUdwrGZvW0wkX2NKQD0aaMQCYRIZRX0qnawpRLXxrYsLGtSdMfFNjp0Wg0qRQ2lWCJ5IqfJF3CYBafaCRPJkLBrqC0DV16EUIqMrFHT2zhiePwkF4qTVSy0ZgvDcnEmdqARbd0E16TT6dBxomSim7HBmwgnBMJxFMvE2vVNj253NLnuUIZCvE0hEeZ8ooI1IRf6oN3GwcHodOgYAomMMr4JBAlFDhAIhY7uRal5FnBgxGgUYjGWZCUrUc3kad12a6Znk1G3hoGE0+thmQ6OZdKfh7XG/YwpAL02lm3SaDTQXQVZr6IdxH5RIRyJsJwrkJABerQ6W2FeASkcIRJLcrEUR8sUaB1hE6fiCzjMhNPthImQSdhUSjbSIkCIREpCK2oIm1PWwXqWgpMgvRwjrAiAQ2/73T5o0eoFCEdlEJWxcEIsQVy53tGmup/FLMV4m2rzxrtv1DOxxcDkul/+Bmb4y7zw0lWMkoha6wMCW/2602pxt6IgChLhSIRIJEYiKh/FyZrAfAs49C5FkXPN8ROGICC4Dgd8381nTgnIcba69XxtW9l7TAHoGZC6mCaZTJJcKVKIGlQP5IU3CSywGAL6bSx3wtRaFBEdA2NfWsS3hi/gMBtOuROGSDaFpCjXUt8tpDIocvRa2EiQZUTLoNNt0XYlhLaKae8UToDFfIVUu0K906Xb0jCdn+xDOCFEslolruZZ3WjR6/fptppodpj4wpS63/ouaqVOp9fHtGUScQmQiYcdtGYTy5X52ViJkqJSbnTodlpolovQb6IZFm21QffInhjmW8BhMVWilBCxBz2aFQ2pVORM5o4f9mjWa+i2hVZr0OnfBo/7wQUWFxeRXBPDdnFMA8uej3bffEwZ0tl4klxZpb11Iw5MLEFALxfYaPVh1KfTqKPqDrZRo95oce2S9lvUawaOpVOrN8bCDeuXeCxVxZHHog665WKqdTp9IBAmFbXR9T7dZovj9MW+gMOMmHXy6mnsX8DB8W7UanC93doNU4QYJggnTBZd2AeuPSXh/uS6dyWE9yaINriu5x7QmLMp4GB45hEqGZwKAYc54bgFHI6bwwk47GdMOUlczzYMbz86F76Aw+njdCbruIHgDpGFSaILU4QYJggnTBZd2AeBEItLk1ZqJ9e9KyE8E0QbAoGTSU4x9wIOpyHFv8/ZYT9jykkSIHRS94Av4HDinPpwtI+Pj4+Pz2nFd8I+Pj4+Pj4zYm6d8HA4pNudRSLH083Vq1dnqqLy+uuv8zM/M7fdChifo/fff3/WZpwKfvzjH2MYxqzNODQ/+MEPbishmH6/z9///d/P2oyJfPe73+Wtt96atRlzx9yuCQeDQZb8tcADc/78ee68c3aX9YEHHuB//s//ObP698P58+f5wAc+MGszTgUf/vCHCYcPloR1njh37txtJYm6sLAwtypK999//9xP0GfB3DrhPem3bqJGkjy0Es2o36RcUpEKX2ZlH4WcdgUlRj06BsiKBLaJI0U2X8CYAxWlUZem5iIr15Mqi9IioVNyaqezlyrNNDWbU86gS7Nt4kpREpEJilhT++IJcZAxpXeJx9QEzz617UGh36GuquiWSDQqj5NciFFSy4sE6dO4VMGSwkg4WIaFEA4jYWPYMrmnxgpKmtbGVuKkEikUR0fVNdq2QjyVIB05xn2Cwx4dW7qhn40GXQzTxpXj21Sc5mBcOGOc3mnJTdVIDlLQiFazc+1/gYVlEqKFuY/8AaddQQkAW6eUTRGPpyhoLuKmA54LFSVTp1Iuki8UKBTy5DJ51HnK63BI9lalmaxmc6oZtKgbAtFkCrmdI746QRFrYl88QQ4wpnQ1Fb1avfG+XYiQjrropkQqnSadXiFhF4g+WmeAiSVkubiSJr0iYVRNpEya9MpFsqKFOQqyuJxANDQcJU1kIUBwaZmEYKA5yjE64BH9VoN6MUuual3/uLdGviYQji0jaXkujZPuz8e4cMY4vU54F3uokUxjOM7lfOA0AWdBQQkAiWztKldf+RZ/ejE2ntnOi4oSUYrfeoEXvv51vl4pkCtVuXDqxXb3p0qzW83mdDPUShRVG4EAS9kMYrWCvuuoCX1xpkwbU7qYUoG8oFHtTPvtmFA8iqCrtP+7gBKfvOFvMR5GcAGEXTnbJySmP2ICLMSSpBPKtqpGtMoqYnws2biYUNDLGqO5GRfOFqffCU9TI5montRl4/FHeOxSk8alx3m8foVWpYzW1lEbzRsyUdntBo1mg/UnV2lOyFB1OAWlEd1mnVa3S7e1xur6dycoKMGws85avUWnuc5avTfB7qOcf7rYRotOp0Wj2R2nqpwXFaWlyGbWogFNzSW+PPth+ZbZpyrNLjWbU04wU0UvxcZ9yjaxJQV511ET+uIs2EvhqGtCOEkmK6LVbuaFh3RqbeRigcRHYyxPe8VlMUbs2jji4th9BoMBg0EfeyZ5Wm1M00XcWgUSRTBNrHkZF84YZ8AJT1EjmaietMRKSsKwJZL5EqXEJ4llUyhynFRyedsTh40jxkkuJ0nIbar6hHoPo6CEhVbVcQSZpViGTPRndysojZrkCybRdIzIcgZJLdEQdtp9hM5IihJPxIhEYkTtItmNwZypKMGoU8WQ4nPwZHQE7EuVZoKazUnaeBwEQptr+QPqJYNMJb87EcykvjgLbqpwBB0ToovjdJaiWmWXG3YM2p0OzY0iZStDObe0/6Q7LriOjW1v/bmllhwSF8fdMbY5Du6cjQtnhdPvhKepkdxEPUlWpG2DwsRCkeXxl4IATAhWH0pBiUVy+TBqPs7581lqzoRYk6ljOGB3OnQ6JmIqxVa69L3tPjhDy752Y4VkEUPVGc2NihLACK3cvkHH9VSzH1WaSWo2J2rkcTGiV6/i5Go8Fdl9PSf2xRO2ENhD4aiDYbm0Gw0abQFF1KjulPYSw0QjEZZXniFPgWz1AJMJQUBSIiwtLbG0FCEcnoVikYgobJt+uIAoIszVuHB2OP1OeIsdaiQ3VU+a2K97tFoHuFkOo6DUv4zuJPjTF17hajuPU9MY7lBQGslRFEFAjkSIRCIsJ6Jcezf4yO/HEe1KEc3a/J/jjkNPc6KiNKaN1uZ6aOy0cxNVmtFw/OFENZsZmHrUDFoqVjjPhUiQYau5+QQ5Yri5VDOxL86SCQpHo46FlF0hnUySTF+glJPRau2pkwVRFjHbp22fdYhwWMDaegq3TdxwFHmuxoWzw+l1wjdVI5miYPTGd2loFpam0txaaAvFSaCP9UOlEKN+C82wMdQmvX4HVbexNI3ernjgIRSU7CHtaoVmt0fPdAgnogR3KCgFgknKRZHaepNut0NTt8Dt7bb7SAgQz+WRnN5YRUmVKJeWCcyJihIAIxvbETg7E+4pqjSjFvlohvpwmprN6WbUeZJEpkA+Feb8+U8QLlnIQH89QbzYZWpfPEkj9xhTBq11cvkyars3drqjPqYj4KpFivUOg0GHurr5+2aPISBH44iGRqffpNkZMew2aWxomFho1QbN7tbEf0tBycHU6nT642NVzcY1Neqd49NPGnQabKgmtqFR31yLj+RzoDboD/o0ay7ZQmy+xoWzxKwVJKaxfxWlmzFFPWnicbdSzcEUlCapN+1SUPLc3QpP++CwKkqmaXk7T8FcqCh5rmdbt6bespO5UFHaS5VmmprNCXPiKkpT+uJhOZyK0hHjmJ5xiwpE++WWVZS24zqeaZq7x6pDjAue56soTeP0JuvYF/tVP7lFlZQDKihNUm/apaBEgF0fHRdTFFLmQkWJAKGFM/FK1o3spUozTc3mrHMW1XqCi6dzm1kgyOKEizEf48LZ4fSGo318fHx8fE45c+uE33vvPV/A4RBcvXqVQGB2C6ivv/763Oau3eLq1asIwizeOj19uK7LK6+8MmszDs0PfvAD7rvvvlmbcWJcuXJlbq/Xd77zHUzT31i8k7kNR995552+gMMhOH/+PKPR7PbuPfDAA/z0pz+dWf374fz58xP25vpMQhAEHnzwwVmbcWjOnTvHG2+8MWszToxPfvKTczsJ/uxnP8ubb745azPmjrl1wgdm1KNZ09DaNnI8jCyMN70bhkjmmRWWBh0alkwycmvri6desGECw14Hw7JBjhO7tgY040Tt+04ofxrxBRzmUsBhKkO6jRqabuAocaKSgOvaWG0LOfc0caeBquuYKMTjKaK0UVUNQwwTl0VwXQQlcX3sOSbxmVtroi/gMCvmNhx9YAKLLK/I2DUTOZUeCyqsXCQXtjH6MLLaqG3rljb/nwnBhh2MWpcoGjKx5ThOMc7jzSGzTdR+kITypxNfwGFOBRymEmQpmULaFFdIJpOk0xfI5yQsc0QokiSOju7ESUZChCJJEpJBmzjpdJr0SgqhkuCR9c1Ey0cmPnMU+AIOs+bsOOHtBABGDIewkIoiOxCIXORPL0YOv+/wzAg27GAzgxMEkSQX03RmLOBwgITyJ2XSkeILOJweAYft3CiuMBwOCSymiG5XdpiaWyRINC7RrrWnOK1Dis8cCb6Aw6w5m04YYKhR0wYQjBFbGtLdeJxHHq8zZEBn7TEeeXydZn2Vx55sMmREd2ONjWaH1sYaGxOesg4n2NCnWW/S6XbpbKyy1hlNEGzYXfeo1+DJLzzKaqPB2hOPsX6MHT0QucDT6QVG/QY1O0UpuzA/Ag7XmJJQfpYmHRZfwGH+BRz2pI9aazNigVhsH8HjUY+aBvli6saJxV5CETPDF3A4Sc6gE7bR63U2KjXa16LEQZYyCSTHBUJEMnEE00VJFygX4gS7RXK6QmY5Qiyj0C7Vds9YDyPYMBjLJAqyQiSTIS4Fdgs2TKjbWUySki1sIUGuWCZ13Jvyhj0M00WSRFyXuRNwmJpQflbm3Aq+gMP8CzhMw3UxtTr19Qo1Y+/e55oGnU6LerFEO16iGNsxg99DKGJ2+AIOJ8kZdMIS8XSaladK5G+W/FyWkQgSCgUYtNs4OBidDh1DIJFRdjnbQwk2hDIU4m0KiTDnExWsCeZMrVuQUOQAgVDoeMNyoxGj4CKR5TS5sE4mV2c4d4napySUn5k9t4Av4DD/Ag7TEASURJr0hacp55Q9l7YEJUwkEiP9dAGlkqW8M6J1U6GIWeILOJwkZ9AJb7HA0h6LadfCKoqCKEiEIxEikRiJqLz74MMINrz8Dczwl3nhpasYJRG11ocdgg1376fuY2PAekIiVb8ubOHaDs7cJWqfklB+liYdFl/A4fQIONyExaWDhKdERNFCN6bEMyYIRcwWX8DhJDk7TnjUo7WVGH2jQae/fQ49pKvqmJaO1vtvdFQdy9LYaPUZAYFYiZKiUm506HZaaJa7K63koQQb3vouaqVOp9fHtGUScQl2CDb87IS6hX4TzbBoqw26xxqHDJEqlslI9jhpfg3y5SwLM07Uvu+E8idn0hHiCzjMrYDDVLaJK6h1GjueVgedOmrbwWmr1DsDBt0Gqm7jtFUa3QEQIppQsDSdfqtJ68rNhSJOGl/AYcbMOnn1NI5GwOGAuK7n7kvv4WCCDa7j7ErevkuwYb9178FhBRyMCe2ZDwGH7QZNTih/UHwBh/3jCzgcHY5leOYxX1BfwOH0cXaSdRwFgcD+Zt4HFGwITPhwl2DDfus+DoILTEpONneJ2qcklD+V+AIOkzmLAg6bBBeWJkTY5hhfwOFEODvhaB8fHx8fn1PG3D4JO47D3/3d3/Hee+/N2pRTxeuvv85PfvITvvnNb86k/r//+7/nnXfemVn9++G73/0uP/3pT+faxnnhRz/60dwKAuyHH//4x/zzP//zbXOtLcvigx/84Fy29/XXX+d//I//MWsz5o47PM/zZm3EJF588UWefvpp7rjjjlmbcqrYupyzOm+zrn8/nAYb54XTfq5Ou/0HZZ7b63kezz77LB/96EdnbcpcMbdO2MfHx8fH56zjrwn7+Pj4+PjMCN8J+/j4+Pj4zAjfCfv4+Pj4+MwI3wn7+Pj4+PjMCN8J+/j4+Pj4zAjfCfv4+Pj4+MwI3wn7+Pj4+PjMCN8J+/j4+Pj4zAjfCfv4+Pj4+MwI3wn7+Pj4+PjMiLkVcPA5DYzobBTRXQVZFHCsNpYQJiwJOJYB0QIXYjMUbxt06BJhourkvhnRa9QwEBEAARtHvkB6gvTjvstr6hBfZnFf2pUHPf4IGfVolEvocpFn0odTb+/VV1FtBVkC2zBw5Siy6GAbLkr+Isu3dG18fE4//pOwzy1gYzpRchdWSKfTyEYNQ8qQTqe5kE/gmtaM7OrTqtdZy2UptW+xqG6Zsh0nnUySTCZRbJ22M/5q2GrR3UcRNx7nYGoahj3t6BGtZmfb//c6/hgJLJKMi5iWe8gChhi2QubiCul0ArFdw1TSpNMXyKXAso7SWB+f04nvhH1uAQc5HL8uVC6AsPXvQJSwvDV4j2iurtIaXf/lqN9i7fHHWWu0aLWabKzX6Q4BBnQ3nuSxJ9dp9YfXfzDsUl99nCfWGrRaTZr1NZ5ca7GtyG0sEEunSUTFW27hyGpjONed0EImR0Ic26lVNZw9S9h5XIjkM88w9cFyqFPT7G3t2uP4ucZBCscZmy7c8E0gEkVxJ189H5/bCd8J+9wCS8SmhpsDxJYj438O21imTlm97lQDC1Ekx0GMx4jFlslIKtliBwixpIDlKsQWtpUdXCIqmThyklhsmeX0RbKyw3E/IAbiWeRKnAcffYJLG016xFheGtFvlKjobbR6g2Zv3K5Ba4N6s0Vz4xKXGn1gwnH9FquPPsKlLkCfZr1Jp9uls7HKWmdAq1JGa+uojeZ4UnLD8TBorXFpvUGz2aDVWGejA6N+k9UvPMJqBxi0WHvsQR5vjoAR3Y01NpodWhtrbHRHMGhRb3TodjvUn7xEc1Kj+03WNxq0Wi2ausnWFGTYWWet3qLTXGet3ptg/86CFojFps0eIsTCBhvrDVqdFo2NDVoDYNSj/sQjfGG9Py5/9VEeWu3AsMvG44/w2KUmjUuP83h9wLDToNHp0u02ubRaZzilJh+fecZ3wj7HzsBwiZazuNUagxu+cXHtAYN+B1UXyGSUPctynQGD7jrrzRFLiQTSYY0ajRgOhzv+THgyCyZ51tAoxAWMWp6o8ij1foCFZJaorJBIJ1leHE8WrLaOI8dYXolilSt0mXDcQoyMImC7wGD81CvICpFMhrgUIpZNochxUsllloLceHx/nWwRMheSLC8nQKvSdiGwsEwmzNhZhmKk4iKuC3SL5HSFzHKEWEahXarx39o1ahZISoR0LoG8q8E9LuVU5EySWCzGcnjzDI+a5Asm0XSMyHIGSS3R+G877T/IBRjSyJVwE0likRjJFFRydQaBRdIpGddxgQWWMwqC40JwiZWUhGFLJPMlSokQZq1K2xVRlpbJZMI7nrV9fE4HvhP2OWb6tC0Q3DBxt0qtt/07F8d1cV0BURGxrSnB3dF15+g6NrbtjB3Orbyo5Do4zu4/O93wqN9nEFwiffEZnn3hKkbRpXxjI64RTqUQ2g2aLXPcrr1sCGUoxNsUEmHOJypYe3iRUVvDVMKb4d0Akjw53L5VzKDdxsHB6HToGAKJjMLPJgtk7RKp6HkeKhq7fzzQ0RwZeevcCpulmTqGA3anQ6djIqZSKB89mP03YqC1BaStB+WghGCoTLDoBmRFgkCIUBAihTxiJUv0/IPk9cOuW/v4zBbfCfscLz0TwgqiKJPKyajVba8yCSKSvMDC4hLLKQWzVGO3exvR0vRrzlGUl1hazpOLBxi1NPTDxiCDIRYWFnb8Ce3y625bRdv2+L4QDSML4/ekxU2n02m1GNEin1WRMkmWY2EkAej16O86bhsDHTP8ZV546SpGSUSt9bd92aPVujFuEFAURNu+FnZ1ne2O57oHdJzxBEBUFERBIhyJEInESERlftIyEItf56VXrlKL6lR3vlkmKijYu9e65SiKICBHIkQiEZYTUcT/fjP790ImLDs4W00cOjhSePxkLgjXW+M6N9qyzdF32i65Z7/FK1c1MkYV/QC1+/jMCx8oFovFWRvhc8oZdmk2m6jq81xxPsK9d9zFhxWJDw1aXMp/lTtTK/zqL36Iu95/mep/fI73H3mET43aVL/0HJZ8nnsGPVpf1Xjvi7/P7ygjul/7Cl+5fCfnP/4+rzX/E6XLn+F3HxrRqFR48e3z3H+3zVtXmvynyhU+t/JrfGyXQQO6zW/wvKqi2x/m3ns+zCdk8VD78UYvr1N6fsDd99zDh99/k69VHX7t95eRhXu467Uaz79/D8J797F0n8Cb33iRtz92P3f03uCNK5cxPyTzyXAYaftxd3XZ+MpXuex8ll8PG3yp3Ofe++/Bsd5GDH+OT/6SyA+/9hxvnbuTO6UI973bun7876T43OArfGXwcT4+7PJ87Xmcz+X4TRk+fNdrPHf5Hs5/+HuYmop65SN8Lpvjc29VeG7wYe4Zvsll50MsvlWl1D7H+XPv8pZ1J5/8tTAf235i7pT57Me7VL/5PufuGdB5rkZNf5sHE7/HFz/5Ml/55rucu+uHdA0HKTTBfmnCWR50aHzjedTnX+SN9+7l3B13c+99v8SvPnQX9dpr3HPPu/xNTee+fIHPS3fC3e/zN+obfPz+O+gZ30Z73uIT4V/ktf/v/+W5KwL3f+pT3PeRO3lt/Q958e5Pce/I4o07ZT4Xvo8PHeIa+/jMkjs8z/NmbYSPz9wyGv3/7dyhbgJBEMbxv5t1W1cJrpJHKPLepDxG36KVleB4A14DHOeKY9yNqyg0CwskBHG95PuZS2Z2byZrJpdsjjCD3Yb1d2I8GVFeRQsPLFsZICxXX9TVupOcQy73BO5GvnbnLRwnsX1v+GxWfLyW8Uzm8Dy+MILAsL8CgXtHynWfRRE8jGzBb3t2Fr/V/30un82xLmf1q814l67nRf45DWGRIfKWxaxhPl3y9fZCj79EEZEHaAiLDJHvaPcdkHgaPWsIiwyUhrCIiEhPfgBl/zbnNjKzRQAAAABJRU5ErkJggg==;" parent="WIyWlLk6GJQsqaUBKTNV-1" vertex="1">
          <mxGeometry x="20" y="390" width="481" height="114" as="geometry" />
        </mxCell>
        <mxCell id="WQaWYwOavrE4UbBEG4pA-7" value="" style="shape=image;verticalLabelPosition=bottom;labelBackgroundColor=default;verticalAlign=top;aspect=fixed;imageAspect=0;image=data:image/png,iVBORw0KGgoAAAANSUhEUgAAAeMAAACVCAYAAABre5JQAAAABHNCSVQICAgIfAhkiAAAABl0RVh0U29mdHdhcmUAZ25vbWUtc2NyZWVuc2hvdO8Dvz4AAAAodEVYdENyZWF0aW9uIFRpbWUAbWFyLiAxMiBub3YuIDIwMjQgMTc6MzY6MzE7CGyyAAAgAElEQVR4nOy9f4wr9133+2ra1BOa1tO0jaeQZicXwk7UhJ2KVna5FE8FPHYuXNnVg2RHPNI6F6Hj6qIeH+mR4iM96Pqfq/jo4RIf3T6qjwSqVyrUvhR1LAU6FoWOUVFtSB7GNCVjGsQ4CTAuSTOGk2ZMW+b+4d09u+fsr7O/7N0zLynRWXs838/3O9/5fr4/P++3BUEQEBISEhISEjI37pq3ASEhISEhIXc6oTMOCQkJCQmZM6EzDgkJCQkJmTOhMw4JCQkJCZkzoTMOCQkJCQmZM6EzDgkJCQkJmTOhMw4JCQkJCZkzoTMOCQkJCQmZM6EzDgkJCQkJmTOhMw4JCQkJCZkzoTMOCQkJCQmZM6EzDgkJCQkJmTOhMw4JCQkJCZkzoTMOCQkJCQmZM6EzDgkJCQkJmTOhMw4JCQkJCZkzoTMOCQkJCQmZM6EzDgkJCQkJmTOhMw4JCQkJCZkzoTMOCQkJCQmZM6EzDgkJCQkJmTOhMw4JCQkJCZkzoTMOCQkJCQmZM6EzDgkJCQkJmTPvsG173jaEhISEhITMFUVR5pr+23K5XPD888/zjne8Y66GnHe+973vMZ1Oee973zuX9N966y18359b+gdh3mV0lnjjjTcQBIF77rln3qYciu9///tcv379jnnWb7zxBsCZzO8bb7zB3Xffzb333jtvU06EN998k1/5lV/ht3/7t+dryI/92I8Fr776ahByspimGSSTybml/xd/8RfBz/zMz8wt/YMw7zI6SyQSieAb3/jGvM04NC+99FLw4z/+4/M249T4zGc+E1y9enXeZhyKX/qlXwqeffbZeZtxYvzxH/9x8Pjjj8/bjGA+w+HpgLVKg57r4gka5doFViIAIzpXa+i2jyBrFEq59c/PP6POVeqGheOCKEmIAvg+SGqWwmqcGCPaV+uYtouHiJIoUFpdIQKMOleo6Ta+qFEorxKPHtWaKf0rBUytwVPxjQcwoXutiuHs/AtRzVPKgl5r0nPWbVTS5C+mWGJE+3IV3QUpUaB8Ic6RTTwNG6cjOvU6pg++K6JqIp6f5mJu6cjW756tAWulKrqnUfniBVYOe4+N9wsJWVqvTHKCbD5LPLb4L9Woc4W64eL5PoIgIgg+vufjI6AWqlyIO7QuVWg6Ccpfvkh8jrZOpxA5apGGde1EGHeuUK73kIoNnk4dvdU5UeY3MraCsqYGikAgZZuBs/m5FzSK5aA3B4tOkoOM+rxmOgA1qNobH5hBUZ6Vjzv7INDzYoCYD3Rv6y/toFaoBvbNN9zCbY2MvWaQFQnEbDO4kUwvKCXyQdP2gyCwgrJCgFYP3CAIPKsWpNO19WdoBSWZgHTjxm99K6gXi0HD8vdM9rZGxqdgo1VWg3Td3UgwMEtqoJStg9l3FIxCIErFwNzjkv1HxrM8Cnl9/W8/sKuJQBATQW2vinJKHGRkPHsf5KC02Rh4Qa+qBYmNF6RXCmQhH+i73eA08I2gWNzfgv1Gxotc1/YfGS9yXXOCWkIItM2yvZVFGRnPdze1UkLXCwh6geylPpP1j4X1/+54ogk0VcA1mvSmAFEypQKyp1NtjDYvm3brWFqB5WNKdtTU8RQJz6jT3Ehm6oFWIrd8a083ulKkqLi4O96szeWSgVL5HKvHOM1x8jaO6fVsHMtmPLsDyXKZrHxWa2aEZU1F9Ho0zdH+ly8cI/p9n3ipTMJ15m3MJqNmDcM76l3CuhYCc961JSCl6hh1h0QxS17t8ZVVcdsVw6uPkzUUylkBvWmj1ZpcXIH+1Sz5sku6VkT2PRy9gZOtUhQcHK9HowFl84vkYjDpX6VYtVDTCTzThGKNp5OxueT4tpja9GwfUcuS2PAR8RKlRJ1SrUb/4jPEmaA3IV87rvwMafYS1BsqeaVMrT7kwtPLENGolHdzphHSlfItn3r9K2SzOmnzGxxvcZ+GjTG0tEKprCE1ZRIJDa1QonxhGRjTuZynULOR8wXyqohlGPjZGo0LK0SYMlgrUjEk0ppIz3DI1j5HZmlE+1KJJmnSsoVuJajWV1mOjOleKVFzVNKqgGf28NGOp6h8mAJMRhgNE18tUsmuT31OOnxaq+AViiSsJrpQpPm5DLFRm0/nCzTEMo20gOuaNAyJqvk5UlEYdy5RqENaA1O3EWWwKNOr+lSKdTwti+oYmHKJ+sWjLkn4uM6Avl2jYpf4SjxFtTrd4bqdy1bsXSafr0G+Tlby8O0mDb9ANevjuC5mw0CumjyTiu7STnisfSpLyVKpVBLgORgNC61uUPTrlKomDgKXL9skik+ROdSs8h1Q13Z8Pnn8ZpFi2YB8g1rapFJq4qcb6M/IGE8UqIsl6lWB2g711G8/SbZgIBfLKHaDJmXML+eQhi1KZR1B01Cw0Z3jyd6JM9dp6uLGFKMXmEUlEAQlKJpO0CiWg40JGrtZCkrN2eRirygHQnrjN3qQF4QgUZt959YTAWI2aHpBEAS9oCQLQbrhBYFvBgVJCNLN9QlJuxqoSik4hQmgbRx8mloMtGItqNVqQbVcDqqNXnDzBIunZwMRMcjrXhDYtaBQ3T83B52m9s1SUGi4QRC4QUMTAuRiYN4yu7x9Cvjm70oyAZIa5MvlICsTCIlqsM8MdRAEB5+mPj0bvcBqlIK8pgSSQABCoG6UtVsPNGHLFKpVDpSNv61yoAiJYL1qBm5dC6SCEfxdLREIcml9CcYP9LwUpJte4DWzgSgVAmM9fb+ZDYRjmqZGLQaNZiOol9KBLCWCam/L+oZnBrViLeh5QRB4jVl+1rNnV9WATZuMoCCKQd4IgiCwg6qy8T55QTMtBErVmv07KwZiwQhm2TCDonyjDG7m4NPUYpCuNoNGSQsSN0/bbpmmdnYp2yDwgoYm3FjOsMqBghQUTT8IAj8w8kIg5o2924leMZAEJZglP8uzvP7gzYK4ZXp2d/bfwLW4de2g09R71bW9nk8zLQZSwQj8wA5qqhDIRTPwAz8wyuXZe71rPbWDqjp7Fr6tB7VGL/ACKygrN/xCsP73WZimXpDzTFGSnzOoOyqFbBYrkaa+/o0oKfiNKle8BJ7jg+/hw3pvW0BRNnpeAoKkoERn/wbw8cG1sFwQejotBPAF0tnEAk+Di6iFi1zcY0dKNFOmIOvUq3XWEjZa+eIxpT3BaPRwhSqXbfAECcFpUjeqJDO3Ob5RStSfXkXIQkKrkC8n6D2TPIaNW6dl44RB10FZfYYvrj4DTOheSpBuGAyfWrmxJLBRkRQVmSqWNWYiWNi+j2W0aIngkyCvSQwNGx+Z3loLR/Dx1DxpCWzdwhPzSJGb7nkMCEqa1VwGcmmwJIqFKtkXn57ZL0hIokW9chVLsfF8H3/LlKsgqyiRDYN8fB9ARkvLNAyToQqGq5DVFMCiZ3kIikmz5SHgI+ezyEfOgYii5ViNK4jt2axZ9/Jl/MrTpLZcZfd2LtvNu8gKm02DIKMq64UtCPi+D669TzshoyrrNxCY/ebYOP91bffnEyVbylLK12nmEzj5IlKtjlF2McU8z0QA9q6niqoQWY5zcRmYrGHZIEnSTiYuNAvijAGWWG0aWJpGzdZmH43XKKQryIbDU8kIfatM7XZjlEgqqgSOmiaXm81Dav0+x/kqnT5xSqUE9VKZimJgH9cU8FhHl2roT8eJAEzzoCRo1HTGmVVuK5n1lzwSf5pmrUeimKeoWXwxc0RjT81GD7NWw1E/z8zHR0lmNSRLQtzpXraF48toaoyooKIIBoqWI7cMkEbtu4iegtATSazmZrt/pwn6NsiqgtB02WxfTqRyioiiAD0bawqyN+br1TQFq4zztQvEJms0S/oB7hPBF9JUShKuC2Xzr1mOAigkVJGGkCCfy8yeTaJP/9ga+xUyGWDSoWFLVG5ajVASO5ftBsI2O3Yw6tDthDCbnp22qdUVnrp4mJ0b57+u/dgezyeSKpIXNUolmaZVRjVVynmBUjMHQL+8Tz3d+jijCooMPc+D22sN5s7b3/Oe91R+/dd/nfe85z2nl+p0QOs3azTNr/PC9AM8lviJWaUTHiD9+MMMzNfQCr+AdPfbeL33LF99Cd49HeB4PvbXn8P54E/zoec/x+88+xKu/0E+/rEJX/qtBqZznXc8/HEeGn6Wz+oWr74m8ZF0jkL63Zif/R2ef/11vtX9Pb7qf5RfVqVT7YmMRiNM06RQKOz8fecqtcZXec65zg/8H3L3Qx9DlXa3UHzkA3yrYfOzn/3vpA7QCXzllVf4kz/5E37t135tx+/H3av85n+t0fMlfuITCX7iXhj/6R9iPNfjhecs7Dfv5oOPfZR7nr/G/7j2LGbvBdzr4E9HjO9+DPUBYfZc/58az37dxvV/wA9++F4eTvwE7/jHPqbRwzRM/v71D/DILyi8/xBldLo2Sry0Vkd/4VsMBkP+/ltd/scXHLLV/8bPS++AN59nrfYs9vV7uGc64Npv6Yi/8TvU/vMDCNIn+MUPPUf9s11enwzp/p7Oa4/+Mj//n3+Zx0Zf4Lfa/8ib//gX/GHTRkr/PCv/6yd47O+b1P/0Td42eR6j+SWMF17F/9An+N93qae/+7u/Szqd5oEHHrj1yy15fNX/AW++7QM89tEfR77n73n2WRP7+gd4zXyBH9Pu5X/qPV579938o/Uavvd1TOtuHnt0wpf+3y/Qe/U673jkE3zg+Rr1Z1/A9T/Ex35R5f0vXCb9Xz7Ll770Bb5QX+OPnv8hj/xiklT640z0Gs3Rm4yf/0N+zxT4hcyjOzqUN954gy984Qt85jOf2fFZjzpXqdafpfeSBz+Y8Pf9P+WP/vB3ufJfK5jyb1D5lR/yR//3Z2laLv6HPsJ/uVBA3aFsP/D8NaqNr/LSaz/g4U88zLBe50vPOXjiR/jEu7v8Vl3Hfu0HfOhnf4PSr4g7tBMT/vA36+gvuFyXHuPjP/wqv/U7Bi95P+ChT2T52Qf+kWe/ZPLqqx7SL/8KH93lnTUMg/vuu494fKcprwn9Ba5rv//7v8/HPvYxfvInf/LQde3H/68yv7CDPT9xL8ADPPK2P8J44L/x31M/ziMf+BY1K81v/Z+Pci9w93SIsUM9vf+dX6X5/z3Hq94P+NBHfgHl/bN7ffzj7+ar9S8w/uGUYfdLfOnZHi+99g4ee/wX1tPbzksvvcRf/uVf8qu/+qs7PrtT40wE/fD94ABLjqd3n0NwIgEt/IPnJgz6cQg2itf3Atf1ttedjXU8K9j7Oezy3W4/8df/7+/zbA8f9MMPvJvysl9a2/D0IK9mg4ZlB45jB7ZlBvWsHCSqWxeH/X2r5kkG/bid7Ox2g+NuJ/ZdM17gunb4oB+31rW97Nn3brf7w4118X2e56KsGZ8NoYhIhGM5FHNc91kUjhxpIGRPNoo3EiUWi26pOxOGZg/X97GNPuO9nsMu3+32k8j6/yMn9mwjRLflhdtLS5BJSB6m5eL54HsOli+T1bZOz0TmWjWPnPY82ok7pK7tZc++d7vdH0Zu/O4stJQLtGYcEnJWEJASFQynAgg7r+udVyIrXPzK15iMhjiuhy9qVPVVomehtTuT3MF17Q7jHW+99RbPPvss991337xtOdf87d/+Lf/yL//CH/zBH8wl/b/7u7/j9ddfn1v6B2HeZXRo/vL0k3z99df5sz/7M1555ZXTT3wbL/Py391+AYzHY65fv372nvUh+fa3v82//du/HT2/c6hr//zP/8zXv/51vve9751+4qeAZVl43pEjtxyZt33iE58IotHomVV/OSv8y7/8Cy+//DI//dM/PZf0X3/9dRzHmVv6B2HeZXSWeP7555Flmfe9733zNuVQXL9+neFweMc8a8uyeNe73sXDDz88b1Num+eff54f/dEf5YMf/OC8TTkRXNflvvvuQ9cPcprgBDkTG7jOAfPenBRu4DpfhKpNZ4tQtWlxWZQNXHNYM54w7OjoRg8hW+Vicmughin9ayUanko2nSe14tFte6iZlT2CRUwZdkzQUuwQkviMM2Xct/HjK9yIsjdhNLBxPAEluTK/k3TjAV3LxRMU0smlM7FB4jBMxwMs28WXNZJL5zWXN7MgdWxHJgw6Osa29mPCoN2gabrI2SIXkrO3Zdxdw/AkZBE8x0VMr66HPN3/Hlmhh673sEWFhCIh+D6u08OWCjyzeih9oxNkzKDvocSXz8d7OBnSdyXiywuusnTMzGE3dZTlVB5VdmhWmmwLIz6xsMwejpQntRKFiUPPsHYO7r+Jh20YWHtfdPaYDOi06hQLlXWRCIAJncsVLDlOUnWpXWqtB5Y/bdvaXK65qKkUCbtI4lKfnaIFn3mGVyk1BdRkCskocWVwLnN5EwtSx3Ylykoqiyp7NItF2pP1zzJ5Eon0piMerX2KQk8ln0mRTKbI5FWMwqdYGx3sHrF4Dk00MT2NXCZDJpfjwlMlVNdaqPKYDLu018oUyibzX/U8KlNG3TatSoFiw5m3MafO/I42yQUKQoPm8MZHYxtkecs10SRPfW51HzWiGJlnnuEkZT/nQnSFVC6LtnX75KhJ1U6QjgLRFJpXpzHc7QYniC8girPgPaIs4drOGY9othNTujUdUZuNNpbTCmbNOJ+djq0sSh3bD6VEo+RRLrbXnaOAIK6HYpq0KFUEiqWVGyPFyArlIlTK7U11uD3vscHG+zceM2aJbELeZ3BwukSXk2Sy2jGEHV0EIiwlM+TSygKHKz455ueMBYlsUUavD9Y/GOEgI21xPuP+VZ74+CW6wLh7hSc++WnWOm3anTUuX2rNRtWjLpc/9UmuDACmDNvXWOv06XdaXGsPme7127OG08MRxM0GRhRdrNsND3ocxFI89VSK2GRIs+lTrmaPIeb0ouFi2z7iRn0URbBtnHmadBosSh07AMsX6pS9MsXW9rHqtKdjihtxtW8QVRKIpk7vAPfYwHddxuMR3VoTC4gmkyzaJHXI+WCuQT9i6QKKWac7BYYughLb1iOKxfNo4kwYIpbMk8DGVzJkUnlUp4E5AZaS5BUB1weGNUqGQj4VJ57KofZKVPp7/Pas4fm3hNX1/XmN1cYMZxHZZ3adO3w8X9he3J53DmcAbmKh6th+LLFaL+NXimzzpZ6HLwi3jq6E9e+2ZWeXe2zey8VxbBx3kcbDIeeR+UbgiqQoaj3qxpiBJ6wrLu2FhLQ5Hb2hInODsWngytJmr16SPMxNceu9f3smEMXtDYwPgjiPLRtTptMYy8kMqwWJRr4061CdK0REYUsl8bm1/M8jC1PHDsjSKo0yVAqNWYcciCgqsrPDLIZj4yqJW0bMO91jA0FRicdTrFYKKADjPt1FnLYPOfPMPRxmvJDGqVVwhJUj7wQUFQXBubGNwXNAUc+elNauKAlkz11f85riehIJ5fTNGF5JIBc7s/VTQUDwvVsasbNPDFUVcDYGRK6NrybOydrcHixIHbsdYqt1KkKNqrn+wUqJsmpSb2+d/prQrvdIlAs77kG55R43s7TMEjA2Lbxz1KSELA5zcMYThu0a9Wqdq50R05UiBUVGXoFxv43e83DMJp3hhHFfx3RsjM6IV/o6PdfBaA8YDXRMx8XU+4xHXQzLwdb7eMkqVUXnWqdPv3ONplShmoow3u23p5/5gzMZ0mk1MV0Ho9mmP5pCLE9Fs2j2x4wHDUy1QmEOG9eWs1WqaRF3PKRTN5CqFbLnb9GYeKkIepvReESn6VMoJ8/H0ZG9WJA6tjsTBq0qtWqda92NWa8YuXpti35xjNVmE80sc7UzYjwe0rlaxtAaNHKxA91j3G+hmy6uqdNqt2m3WqxdeZJszUZaoLo+HXVpN00c16TZ7jI8i8tvWxj326zpNq5l0OoMOOPZuT3OZdAP3wu8eckz7cJxBrTwXTuwndvL4LEH/fC9wLaswHaPr6AXMuiH7wW2bS9cfTrpoB+HqWO3w6kF/fCcwLadwDv5lPYkDPqxuNzBQT9OgUj0HO7uvUEktrzPca/TMCLK8sodsK80EmX5Dgs+AAtSx46D6BJ34OMLOYPMfc04JCQkJCTkTueu++67Dzfctn/ifOtb3+Jf//Vf55b+N7/5Tf7t3/5tbukfhHmX0VnizTff5IUXXpi3GYfm5Zdf5kd+5Efmbcap8c///M/8wz/8w7zNOBRvvPEGL7744rzNODFefPFF3njjjXmbwV3f/e53kaRwe+BJ8+EPf5j3vOc9c0v/scce493vfvfc0j8I8y6js8S73vUuHn300XmbcWgefPDBcyvJtxMf/OAHeeihh+ZtxqF473vfyyOPPDJvM06MRx55hPe+973zNoM914wngzaNpoEjJsjm8yTo0ag3sVBJF/JklmHQqtPoQaJQJCfZtB2ZTPxgoeXH/WtUaz75L14kvus1azR6IMsC+AKyArarsZpaoIWgUZer1QZC6fNcOLGFtgUKBj8d0DF8ZOVGuDRRWia2QI/kuJgMu5iWh5hI3zFCEeNBF1dUkQUP2wV1ZZGEQKYMOw0augVqlkIhhWit0Wj28GSNfCHHijCkU29guAr5/yOB9z8NTNNF0jTSn5Rxv2agmy7pytOkYsB0SKfRwHAk0oUnkJ2voOs9PFUjIYHn+QiyRnYhBVGmjLoGPU9A1VLnY308FIq4lehKhqxkoTsKyaUIkaUkhYSHboloy1Egyko2QUIrkFuJMnV66D3nwPF7Y/EsqtfbNdbrqPUE+YZM8eIquUyOXE7Dr5dpOAt2qHUpSVp2T0ysYuGCwdsm9VqFUrlMuVyimC+hL4Rhx8uk38LwVTJZFaek8WTnzjhoYTVK5NMa6WINR5AWzAFFZkIzjo4jaSxHIBZfRfMNTBKsRIHIMiktgVZcJf7wMqmcjNO0kbMplu9fJplTUDyLUmFtFhY3skyqkCCRKJJavp/lVBbJMfDUHJlMjtXVPKpTIX+5u2BHbaYM2jqukiaX8KmmN4QwziqhUMSeLGXzSGaT/vrfviAiWk2MjVpp+0jabCQciV/k8xfjt/Hy7hHPaNKiVPIoVpNbdkZHSZZLJM59GKTtLF4w+ASVr32Fr3z5y3y5XqZYbXBhoc6iHgdTevUyugNElsgXZfSasWCN8ckgaBV6L/413/jyM+QWUpc0Sjqv0mua6x3/Kb4s4ejGZsz5oSei3lwnN7MiIBUaVMUqhWvrv4iIe0Qai7C8WiVrFan0FynUnEWj0sDyIxDLUExY1PWz7I1DoYi9WcqSFw2afYAJFtlZUIB1bzxwBdTo7LvB2pN88skWEyb0rz3Jx5+8SrfdptO6zKVrGzHkJgxa12h1unS7Br1dRpPTno4paev33mpPnlI6BozpX32CTz55jU7rMk9c6jBhTPfaGu1un27rGq3+etM57nDtaotO+xqXr6zRvnqVZ1/ocPnxx7nUatNut7l26TIbA59xd41Wp0tn7QpX2rPKPepc5lOPX2Kts8alJ67QX7/uWqtDt9vBtM7h0HA3VuLrwfLHdAwfLbVYirfHQ4RUrUctPauAnuMiyvK5PjK3iefQ6/fpd9p0F7Rtj2bzKL0G5hSYWvhqmazTxBgDjHCR2bN/KMTI1KtItQLXDpTHGIriYzQXSTUjTsVorAdlmeA6IMvh/p+zygGONi2RzYoYzQFMLHxRI51XsZomEwa4grreQEVZyaeRPB+IEi+kkSwXMZMhldPwmjpDYNIuUXHT5FJJkskEirhLsp6/c7B3osRiADHieQ3B9lFyZWplDe9akbqYJZOMk8ylcaslOhMY1CpYao5URgPdRLh4kV9+NEVedXHQyGQypOUeDXOWgtMz8eQkqdUETq3OAFhKFUh4DiRWqdQKqKM1inWBfG6ml5qQ77y+3LTfwJK0BROfP0aiMWIRYNKhoivUq7vtbDhfKIksWjxOPCWhFy+xUIPBDaJp8kqPpjllankIiTT5tENTH8PIAfkAUzXRDPWaTK1wleF0/6UvQRDwvMXqdEdjMSLAdFClLlSpZhZxJiPkIBzonPFSNotgNOhaPqIaIarlUa0GRtdF2EvdQVLWp1YFBGaKN5ZuImy+KDs52xkRNYGyLdj7mEGnxaWPv5eHnmjdCPsmy0jrDtoyLMTNWHUSEj0MG+SEgmePYGLjyRo3Qu2KyPLsekEA1ie91GwWodem07XxfP+GUo8oIUdnLwA9HVu6Q0ZKOzLFqPUQ1fP+8o9o123yjc+xSHsGT4zpiBvh3WUU30BfpMHgJjHSeQWzub55KRohkU/jNHW69sF8MUA0VaMm1ynWbPaW5JriOh7KIgbqHnepGwnqX8ztPRsQstAcLOjHcpa8oFPuiagRZr1StUelCcptDotkVcb3NjzpHrV/uUBF620J9h5jJZUjqwrImrZt12Bk/f+yIuF5G914F9eTUWUQxCzZhEvXkql8cXWfCtulVNCR8hlSSRVJAIbD9bWoG52HiKIget75F5vflR5Gjxt6v+eSCf2WhVy8SDI2pdvpnv/n7RrU6tb6RkEPz5O2aYwvErF0HsWooDObnYsk8mhOjbon7fOO+1uaniipWg25UaG5lzOe6DScLJX8gs0DTYe0TYH8UxmWGNDpLnTE/ZA9OGA4zGWyeRlbVdcdX5R0PkHDU7dMUU4Y6Ca242MMH0exDBwH9L5GwtOxXQejO+apYp1spU57kEX2TEzXRmgN0HIrN40yY2QaDbxSiUtugWJWAdvEFtOoIsCYvm7iOCJrXZV8comVSp10pU5b0hBtA79UZzUGuDb1YgNRBqGhkC6WyUsWhuVi0WEoiZimiyMaDDUFRfKxewNE30EQXfSew39yLXqOhdvqI+fixFbK1BJV6h2JtORiWg6W32GYSHHce16moy6GYeK4Ps22QlpLzv8Iw9TF9QQWWV3vqAyvZsnXXIRKGXwfsajzjdS8rTphlrKU0j2c0Qi3V8cu1Kgv6nArliav6pBYfxkiCfKahKVuOV84GdLRDWwcjLUOyuMyzufr1HoWglwitRyBaPyLGQcAACAASURBVIpavUDVB5gw7DQxHA9Xb9F2wfd9HMunqH+O5Lzfu22MWMunKVsCYgV8H9KNFznLVXTcb2PoNq5j0OpAOnWzXzjHHFgowve2B1s/qhiD7wd+EAS+5wX73sZ3A9uyA+eg0d79rfe0g1qpFtgbH3h2UMuXAvO27rHXdbN87Fce8xZBOHahiMAPXMc9WBkdkHmX0VniZIUi/MC1j1cE5GaOSyjilvbjIO3JHAiFIhaXsycUcbP4wlHFGCKR2Sg7eoC7RGIsr9zG9FAkuuV4lYgsuVjOhOXlKFPXxpcPcExo2z32um49H+dcnOJWIsSWFmzKLuSYiBBbXjkTG/MiN7cf0QO+tyEhC8b5VG3aRozMU08zGfXpdn0ESeOpp+8stxkSEhISstjcAc54RnQpTnJR175CQkJCQu5o7opEIqFq0ynw8ssvzzUw/mg04q233ppb+gdh3mV0lnjrrbcYjRY0IscBePnllwmCYN5mnBrf/e53+c53vjNvMw7F9evXefXVV+dtxonx6quvcv369XmbwV3T6TRUbToFHnzwwblKxi0tLXHPPffMLf2DMO8yOkvcc889LC2d3ameBx98kLe97W3zNuPUuO+++7j//vvnbcahuPfee3nggQfmbcaJ8cADD3DvvffO24zbm6Ye91voeg9bVEgoEoLv4ToWnlrmqZTIsGOCdrSjPdNRh0bTQVSk2XESRca1fFZXk4e/6bEzYdCqUrM0ak+nTmnjVqjaNA/uRNUmpmMGPQvXF1G0OAub7emQTtPA6LnImoosgO+5WJZI/pk0tA1Ms4eraKTTWRTXQNcNLFFFk0XwfQQlvakyd2v75uM6PWypwDOrK3PO7G6Eqk3nhYMF/VgnFs+hiSamp5HLZMjkVrlQyoNtAx62YRxJuWg6vEq2aJEoXSCXyZDL5VDtKhV90YJrzNSqfMvZO2jPMRGqNs2HO1O1acRauYmfSJGSTQraVYb7/2g+RJZJrcq4TRs5O1NYyq1epKi6WKMYK5k0omXgKTmSSxFi8QxpyaKHRi6XI7eaRain+eR63Pxb27ccF54qoboWixlKI1RtOk/cljPeZGNANJkwjcRJqzAhRuaZZ8gdeuZsRKNYQyqVWNnSE4/lKhQXMALdaQ5PQ9WmeXAHqzYJ63HmJAnBsbaEpF1gIgBTJhNYyiaQPQBhT2E4iJLQJHrN3nZnu9G+jceMWSKbkHeVeZ0voWrTeeIIu6mnDJo6/oVV4skkjLpcLlUQK1+jJLQplxoIxQKS0UQofZELYoerTR81AXZPIHsxtf0c48Sk2ZMp3BLreIVCSSbCTDmpVPPJllSshkv+i0+hDlo0bAlV8rFt0C6kWGJE+6oBiohjukiqj/dj/xvi732GplyioAhgGzhalYvxCIzarPVEZMGm5ygULyYRhjvkQR7SbvRAURA9E5dF7CWcAjerNq2ehROpt8tMtUkV7jTVpiVyT18AJvTrBlK1enYiOk0MmkaCC7kkyYPMKk+HNA0oVbLb2iLfdRmPBeyajv/0RVLJJIs5ST1TbRJisKnapIX7f84qhxoZez2DVqtB3bBvTNMuJckrAq4PkeUMWdnBFdIUKzWyy2NaxRpkMyTjGdLUqfZvvqmHv0tPNra+GHmLctK0S7lskcgliSdT5GWd4tUhdCtU3QSZVA7Va9KTn+LCzz5GLivjOCLpTIpMWkBvWgBM7B49FJKZAkqvSnO8Ux6m9MsleonVmSpUOsGChuw9NULVpvPKlPHAwhVkRH/Rloh2wsVstVirN+kdYN3Ity36/S6tSpWeVqVyc4xLz8VxbJwzcMokVG06PxzKGYuJNLncBWqVPLv2wwQJRY4QicWIYWP0fHynT7/fx1XypG/+4ZKKKjnYzo2Pxv02a5/+CPd85NN0RutNwhblpIhtYPrypg0RScAxekxkDdm1mTDG8RW0LQNYUZZuzDD7szc3msijeQbtbg/H8/E31j9vyoNugiJvyeJtldp5I1RtOq9MpxFiK0kyF7JQzVMZzNui/ZDQcjlWn6pSUvd/KwVFJR5Pknu6jFIvUBvu9H2K1UphNvc17tNd2IVzQtWmc8Lh1ozXiayssLz/ZYBCQhUQlTjxeJx4SuPWdyZJuSxhNPqbPfFYPEM+LSPIabTNLZ1bZBdlFQVvc1PT1PUQFYWoIJHPKlhdh0Tt82T2bEQntItFrMQqmWQCWQSfIcNbll5kVNlna2f5NDZvLS6hatO5pP9pFPUSM/8rgODhnpnNeUusrNxOj0lEFB1Ma5edAEvLLAFj08Jb1NnfULXp3HBbzng8aKP3PDxTp9UZbN/MMupiWA623ueVUQfDcujpbQYTgBgX6gWc2hrdwYB+28LdoQO7dEGnLjcoXl6jPxozGnZpOjJpRVhPQqfnWDRb/dmGi2iOWgkaa10G/TZ1M0GtEgdRwKyVqNVrVIqf5kpryHQ6pGPYuD2D7mhE17BwbIPO6G1IsoRr9Rn0TTxJxNYtXnnt5jxEydVKeI01+sMBXd3EsQ2a/ZOv/NNRl3bTxHFNmu3uDS3neXKnqDaVy+QTj/DIQwplS5z/sbKTRi1SK2swGjNs1bHVGpVFOlW4lemQ7tqGIlOb/mhrV2nMoD1TX7L1Ft3RdNZ+mS5eT6c9GAMxEmkFxzAZdTvof9pCN11cU6fVbtNutVi78iTZmo20kLMiM9WmYrmA9sgjPPRQHv2MLxqN+23WdBvXMm71MeedA6s2HRP+gaSevMC5LdUYP/C23LdXLQUN58a9euVCULX3NezAKlS+72+meVAL561IFKo2nS9OQ7XJOrBM2u1zXKpNx4HnnKxCVRCEqk2LzNlTbTomItGDjC2iLC3fzv7FyDbxJ0kWMO0R06UlIhMHB5XEftNMt6G6FImsqzovZG/5tAhVm84vZ0e16TiILt1BmrkhC8u5FIpYyj1NaTzE6nbxRZn00xfDly0kJCQkZGG56+GHHz6XQhGR2DLxZJLkytJCOOLBYDDXWLzf/OY3eec73zm39A/CvMvoLCEIAi+88MK8zTg0L7/8Mh/60Ifmbcap8Td/8zf8+Z//+bzNOBRvvvkmf/VXfzVvM06M5557biFEdO769re/HQpFnAIrKytzVal57LHH+Pd///e5pX8Q5l1GZwnf93n00UfnbcahefDBB3nllVfmbcap8VM/9VP83M/93LzNOBTvete7+NjHPjZvM06Mj370owshonOkaerJoE2jaeCICbL5PAl6NOpNLFTShTyZZRi06jR6kCgUyd3WsYMDW8Gwo6PrPTxVIyGB73n4Upp8aulM736dDPtYjguyRnIzaPqE0cDG8QSU5LzW9SYMuzaCoiD6DrYvn+Og7lPGfRs/vnLnnOFcJKGIcZ+1RpOeK6Pl8+QUj3ajgeGIqNk8heQSXn+NRtNGSBcoppaJMKH9ZAm2HGuc9teomD6KLIJjYSOjyiKeY4FWJouxh0iEvK2NUWcaE8hadkHEQxZIROaoLFLdO2WOdM44upIhK1nojkJyKUJkKUkh4aFbItpylA1BhYRW2MMRD+h2j7KBPcpyKovsmPjqRrD4PFIzTfraIeK0jrp0FyC867R7hYolk0xpeJUNkYIJncsVLDlOUnWpXWrNKYC9g14pkNbS5KsWwmKe+zg6kwGdVp1ioULv3B8w3mDBhCJicVbTYJo+ajwG0WUyeQVbt5ETs852LJ5FTWgUUuvOaGKimwZ140a74tgeieIFVnM5EhjoXoJcLseFooZvu/uIRMzaGMkx8NQcuVyO1byMnk9wuT/firFwIjJHYsHq3ilzJGcMsJTNI5lNNqJb+oKIaDXZfA9sH0nbffw27TdpOscQPmPbueUoakLEMu3bDtIw0g8WUu/EEUQEfCCKJPnYtgejJlU7QToKRFNoXp3GnGqrUjJ48cVv8JXPrXIiEx6LQHSFVC6Ldq4Dm9zKwglFrBRI+zqbGgi+gIRJc6OHNLVB1jb3hkx6PtmKhtXQN8+p+pKKtqWebjYXUQ1V3uLGDioSEYmTlh0M0zly9o7C4onIHI2Fq3unyJGdMUtZ8qJBsw8wwSJLRbNornvjgSugRpmJMbS6dNvXuHK1O3tJJn0aNR3T1Gm11wN5jDtcvdqm229z7WqHMWP6V5/gk09eo9O6zBOXOrscBPfxvQmTyZhRf42KqVKvpojs8Ptvd6/wqY9/mg4wGazx5Mc/xdoYJoMW1YZJz2jR7o6YApP+Na62uvQ717jaOj3PF4lf4OncEtNRm6abpVpYAqeHI9wIPCGKLpZ9aiZtw3csuv0+3XaH4R0zarwTmAlFxCMT+g0DqVpZAKGIFfJpD33dG48dkWJZxmz2mAJTy9sSlnWC6Umk8wU0u4m+PnW0kkruspEzQjJ5I+b4TCRiRLfWxAKiu4hETEctml6eSuFgMQhDDsIi1r3T4+jOmCWyWRGjOYCJhS9qpPMqVtNkwgBXUImysxgD0TiFvIqcyJLLxImxk6BEjHheQ7B9lFyZWlnb+aXywfNcXNfDQ0KVBTxvAtz6+4eTeTTBm407V/KkpY1/58gnJBLpHJnkEpFph1LZnglRpPJIepX2aTqeyRDL9pEkcRZG2/NvCYjt+/PwhDJqWiMZj5NULErF3TpIIWeTxROKiOfTeE2dEWNsXyaZzSMbTXrTKZYnsumLxya+lCAS0ShoNg3jNhdy9hSJ8HGtPv1um3rFQKlUydwph7FPjcWre6fFMThjWMpmEYwGXctHVCNEtTyq1cDougjKzHXuKsawjT0EJWQZiSix2C4r+oKAJC+zvLzMSjzFhTzU8hU2Y9zv9/sdzTGxPHD7ffp9GzGbPT3RxOmUaXSZeCpHUTXJF1tMRHG7L/ZBmEc8yrGDt2GJrCAYTXqnb0XICbGQQhHxPGm3id618OVliGXJywZNs4cnqpuzReOeg+MatNsGnqRgN/Tb2lext0iEgKTGiSczXKxqGPky3ePMY8hi1r1T4licMctZ8oJOubfeQ42myas9Kk1Q1rU29xVjGHfpDvcWlLgdtzP1/FuEHG78XkDYvK+Ht+1CAXyYdjv05QSKICDHZ/akTk02ccy1tES2NblhkuvhKQlkz10fhU5xPYnEHCSVJ2aNas+Z/eG5eKK0u3pXyNliYYUi4uTTLvWqi7QMECOdlTAqBsKNYTE9P0EplyGTyZCrlMk6N6aqb4v9RCJEEdGzsBZgs+e5YWHr3ulwPM6YZbJ5GUXd6KFGSecTyKq6fvRG2FGMwRUgoqaRegbdnoco7yQoMaavmziOwdr6Ou52Jgw7TXTbxdJbtNstWmtXKNV9ys0qK+z0+xgJTcDuDhkOLBzfxWjO1qzVtIxtdjA9ATmaoVYRaV7rMBj06ZjO7fUIDk2MbKVGXnIZj7rUm1CqFViK5Wfr8f0x40EDU61QmMN5m2i6REH0GI2HdGo9EvXygoqvH5HJkE6riek6GM2bhQjOKQssFBEvZJEUZbOuLWXzKHJiNgCYDmhfLlJtmFjrzndiu/iiRa18jc5wCtMR/XYL3fRwrSatdpeNRzru7yUSMWtjTMfH1lv0R0BEJZtwMc0Rg06XefnkhRSROSwLXPdOhWMTivC9wLv575tjr+8mxrDD5wcTlDgavucFfhAEvu8F/tbk1j/fcuWBRSR241AiCJ4TWJYd3BzD3nftwHZuz6BjF4rwvcDewbajEApFHJw7UyjCC7ztjcxNf582fuBaVnCQYgqFIg7Kyde9mzl/QhE3Cy3sJLywmxjDDp8fTFDiaEQ2lB4iN6Uejd40AI5wCubcSnSJlR2GnJHY8gF1pE+QSJTlc3um6U5nUYUiojeJs0TmLNYSIbbTCxpyBBa17p08xzRNHRISEhISEnJY7vqP//gPXn/99Xnbce7xPI/vf//7d2z6B+Es2LgofP/738fzzu7ulu9+97v88Ic/nLcZp8Zbb73F9evX523Gofj3f/93JpOzvBi9N5PJZCHi9t9111138b73vW/edpx7RFHk7rvvvmPTPwhnwcZF4e6770YUz25osPvuu4+3v/3t8zbj1Ljnnnu49957523GoXjnO99J9ByLt0ej0YVQtDv6mvGoS0s3MB2JREJGFHw818FyFEpPZw4dXH/cvUqlIVD8/IU9d+qOB230poElqmiKBL6Hh0I2Fz/z6w6hUMQiEApFzD1Y/+20McMrPKGn+eJTW1qNUZ+WrmM6IomEjICPLybIppaJMqJ9pY4jqUh4OJaDoKpIuFiuTLGk4OgGhukiaWnS2QT0dAzDxJU00uksyeV5F1AoFHEeOIZwmElyCQ/DEkjnMmQyOVYvlCiINtZtnQSZ0u30N/+KJbMobm/nuLBbiK1kSEsWFmlymQy53CpZv4L2RPsQIgpHFa04PkKhiAUgFIpYjGD9t9HGDAwds9FgW6yIpTi5hI9pS2RzOXK5VdJumcSnWoyxcYQCF1dz5FYlrIaNlM+RW71IQXSwWSaZk3GaNnI2yXIkwnIyh2w3seXc3B1xKBRxfjiBDVxjxpMIK/kE4n6edCsTk6bhHj782ZbgIDFVhZ5520HGj0204jgIhSLmTygUsaDB+ndrYwbYUpmSYNDo7/bbGTEtgWDq9L4joGg7n01Y1lSErc3BVr8r3Hz1fAiFIs4Px+eMfQ93PGbYbqDbwFKS5BI7CkRMh20uPf4pLrfbXP30E1wbjunWaxg9E73dYbA5OPWwO23anTUuX2rtebDedz0mkwnjYZdrNYdsvUx8B5GI74w6XH78k1zuA+MuV5/4CE92pgcUrTg9QqGIkPmwwMH6d2tjNhjYoGbIF0SM5l7eeEK/2UOulEnfnyS12zrYcpLkZkfTxx2NGY/HjMcjzvDeuQVmgeveKXCMztjFdRwcx9kWhnIngYjIcoas7OAKaYqVGtnlGMlCFkXWyGZSN0ZavgdKhkwqj+o0MPeaQfZdXNfF8wUkVcL3PKY7iETcv5QirzKzMZYkq62LMBxItOLYSutghEIRIXNhQYP179LGbNC3IbE8i8wl6g1ueV09i16/T2etQs3JUyuu3MYaq4/nztqYWTtzlIyE7M6C1r1T4PiCfogKajxOTJWYyYMO6fZFkok8WtOg3ZVxPB88IAYIEoocIRKL7bEJSULe7Pn6605z5ysFWWF5eXbxsuKhywXqiW9wUWBTJCKyQ0K7zzbNRCsUp0/fBbaKVpwGm0IRyyju48hFGae0SEIR60GxN4UiUndUL/Y8sxmsf0XAfChPJfEiTy9CbIvd2ph4DOhjOT5iu43lCyiiQaM7JZ7c8n6IKol4nGg8jth7iEJD42sXDroFUkSJr2xuJnXCYOwnwsLWvVPg+NeMI0ssx4BRD8cX9heIuIUh3e4RJ4R9/5bNDNtd1g2X5u0gKHEQ0YqTJRSKCJkTZyFY/7Y2ZuZMp30HqbBKLpMhk7tAtShjrOsd74Qoi9g969RMDjkAZ6HunSBHd8ajLq2mheeYNFvtmVDDtSs8kW3gyTsLRLzyWgfDcujp7RvrwzGNNOZMIk2KMe7r9FwHoz1gNNAxHRdT79+ybjsetGmaLq7ZpNVu02pd40qpiVRrUFzaWWRCSat4vT7DYR/b8XF0ncHkIKIVRy6tAxIKRSwEoVDEYgTr37ONgXH3GsVSDb03nL3j0xG2J+DrFSqtPuNxn5a+/vvOkAkgJzREy6A/6tDpT5kMOrTXDGwcjEabzmC9pZkO6W58vtZlOJky7K5h2OAYa3TnvGEiFIo4RxybUMRe7CYQceuFpxf4fcOmm207IdGKUChif0KhiINzZwpFHDOeHVi2G5y8JE0oFHFwQqGIk2U3gYhbLzy9wO+bNu0vcHEaohU7EgpFhMyFOyRYf3T5/B7LO7PcIXVvB0KhiJCQkJCQkDkTOuOQkJCQkJA5c9eP/uiP4rq3Eyor5DAMBgO+973vzS39b37zmwuviDTvMjpL/PCHP+SFF16YtxmH5uWXX+a+++6btxmnxj/8wz/wrW99a95mHIrvfOc7/NVf/dW8zTgxnnvuOV577bV5m8Fd//RP/4QkhQdTTpqVlRV+5Ed+ZG7pP/bYYwuviDTvMjpLvP3tb+fRRx+dtxmH5sEHH+S73/3uvM04NR566CE+/OEPz9uMQ3H//ffzsY99bN5mnBgf/ehHef/73z9vM44x6MeRmTDs6Oh6D0/VSEjgex6+lCafWjr7aiS3wXTUxxbirGzsYhj16foyqgSu7SLG1zc4TEcMLAcPmUT8JMtoB1WYHdOeMh5a2K6PpCY5O0JOO6ne7K+ONR0PsGwXX9ZInmV5mfGATs/GlxKkd6xHC/pcp0M6TQOj5yJrKrIAvudiWSL5Z9LQNjDNHq4yU1dSXANdX1d4k0XwfQQlTSY+e7rjfgtd72GLCglFQvB9XKeHLRV4ZnVRDu/tVy/PkqLaTopoO+fv3Lxre7BAa8ZRllNZZMfEV3NkMjlyq3mkZpr0tT2jhJwjxvTbLWrFAvUtMacnvTrFrIaWLaF74roj7nOlbCLGkySEJqUTKqMdVWF2SXvUKtNwVZJJBatymQURwNqTnVVvDqCONbxKqSmgJlNIRokrgzN6BnncpWUJJDJZ5F4R7XL/lkAZC/tcI8ukVmXcpo2c3WgzLlJUXaxRjJVMGtEy8JQcyaUIsfhM4a2HRi6XI7eaRain+eS1mdpKLJ5DE01MT1sPHpLjwlMlVNeakzrazRxEte2MKKrtqIi2S/7Oy7u2DwvkjNfZFlgjipoQsUz7DolRGiOeyaEpN8kEiVnqL77IX3/tizyVmvUhJ3oVU0mzBERWNIRm7dZYvMfATqowO6c9oF73SSQjQIy0alPVF6MJ24sdVW/2Vcea0q3piNpsJL2cVjBrxpmsoxOjSkV3EYiwUsgjNuqY2644I881AjBlMoGlbGI9XKawj7pSlIQm0Wv2tju1jddvPGbMEtmEvK+U66lwQNW2M6GotpMi2o75Oz/v2n4snjPGx/cmTCZjRv01KqZKvZqavWuTPmvX2nT7Xdpra3THzHr27T6DQZ/WpSt0mDLotOgOBgy6V7l8HkbVvovV7dPvdmj3Z82GYzmwITeGiOTb2Kc0Ytkx7e/Y2K6w2fZFJQFnI2TmWWNfdSwX2/YRxc0LwLbPpNxbNN/ArCZneXVtXEnZ3jGZnqHnOjFoGmOIJkkeZFZ5OqRpQKmS3Tbd67su4/GIbq2JBUSTycWIMHdA1bYzq6i2Y/7Oz7u2Hwu0ZryOD57n4rrgI6HKAp43gSVoF6v41S/PZNMUhycKLf6XgknTKVBPx1kpCgxx0BsmSiVNMpm/0cs9w0RVjay0zFJkSvvJLFfFr5Dw/RvanwgI+DNZt1PoCfs7pf0dHx9h20DE98+otM2u6lgbzYSP52/PK563o5LQwhOJEYsAjGlVLfJ1fXtAGf8sPFcXs9XCc3R6UoIL+1zt2xb9voujN+hpVerJm14az8VxfBzXXayY6/vWS5gpqsksL0dheIXHi9D8fOo0moWjs2P+/vX8vGv7sHgjY0FAkpdZXl5mJZ7iQh5q+QoDLIyegLSx0h+VECydv82UKbhVsolH+HjFApYpllT0ksYjjxRoeguiAn5opgxdHyECEEGWXJrGCEEQtjSKswZTPKWOx45p3y8icEN0Y+qDIJ7Rshf3U8cSEbeqzvs7/OZMMWXYauAVmzwVv2lzjHAWnquElsux+lSV0gHUXARFJR5Pknu6jFIvUBvu9H2K1Uphpk027tPdYTr41Nm3XrKuqLZ+1aai2hlhx/zdf87etd1ZPGd8E9NNVSUZVfbwNhZ3Jh6epPK+roVY+TLf+OsXaSZMGoMhppfm81/5a17slfCaxhnX2rXQq83NKWjPm+kbKwmFGwrnLo6gop5S93fHtO9XSEge3vq0mOd6s+vOIruqY02ZTAFiqKqAs7GQ6Nr4amL79O4ZYtzVcdQSF+JRJt3O+t6D9bxGztJzXWLlthZJRUTRwbR2aSGWllkCxqaFtwhD5H3r5RlXVNsxf+frXduLBXLGE4adJrrtYumtmTLL2hVKdZ9ys8oKS1yoF7AbLfqDPq26RbZe4mHXoNHoMxwNcQSNrOLRa9TpDIYMbQ81nTgbUzQAjBl0WujWehn0x0CcfEnFd0aM+tdoUqaaixLJVMg6TbqjMcOWgVgqnci61k6qMDunvUyxLGE0h4zHXZp2lkp28Ut+R9Wb3dSxBhW09DVGQLxUBL3NaDyi0/QplJNn8vjdtH+JdL5MKavyyCMPoVYdZGB0LY1WGcAiP9dtiko3q2qNGbSbGI6HrbfojqaMB21008Xr6bQHYyBGIq3gGCajbgf9T1vopotr6rTabdqtFmtXniRbs1mITckHqJdnRlFtJ0W0XfJ3Xt61fTkV1aZj5lYVJT/wPG+7+sqBlaJOh6MqEvmuHVj2/9/eHcO2bW0NHP93EoECFadP3MTNbIFCfF3ETiLwAZW+idqkTnEn601RpzibtrhT5Kl2lyrTk6dK05OyhByKUlPpokDpjeoDCupNVJeSS/0NtmtZsmPXcSOnOT9AgC1dXZ5L0jq+l7TP0hiP0+M4DI9vUuDkzqs2XbXtJDoOb1kJ575Vbbq2OlaaHIdhuJbz7K+t2nSJVziul7kXVZtOJVFwHN5l+bFL3GXVphudl3dYUe31Vm26Ynx/4c/a21W16Y6tVlHKkV9+7saVot4MucLG+T8BOX+Wwsa66jddse188f78U4hXdG11rFz+5EaZt8Hf6LguyxdLb9RnxY3Oy3v7N03Xu3R8b8HP2j1aphZCCCHeTu989NFHxx988AHvvvvuumP5W/vll1/48ccf+eSTT9ay/TiO+eGHH9a2/ZtY9z56kzx//pxSqUSh8GZWfv3111/xff+tOdbffvst7733Hh9++OG6Q/nTnj9/zsbGBsVi8frGb6Cff/6Z3377jRcvXqw1jne++uqr499//32tQQghhBDrYpom5XJ5rTG8k1vbvQAACRVJREFUc3x8fLzWCIQQQoi3nFwzFkIIIdZMkrEQQgixZpKMhRBCiDWTZCyEEEKsmSRjIYQQYs0kGQshhBBrJslYCCGEWDNJxkIIIcSaSTIWQggh1kySsRBCCLFmb2QJRfE6ZUyedXBTA11VSCKfSDExNYUkCsDaZquyptJms0PGfkiqWtQqxVcoOD7Fe+aSqCqgQJygbTW4/X+qzTgau2BX2bhRUH+2/R3Kjhh2d3D1Dk8btykEMOdw2GfkBiSGjaUppGlCHAQo9Q5b5dd5bkzxhgmm82aVRBQCZGYsrhUTJhatrQc0Gg30oE+gNWk0Gmy1a6RhtJ6wpmOeBQqWU8eMt7E/PWB22672d/DNBziOg+OYpK5LfPra3PM4vEEfF9slhKMRQXxV6wxvPFn4/rr2f6HcBo6tEkbpLTvIU3LqaMGIxGjgOA6NxgMetm2iILrLSK83j/BHAevYjUK8KknG4hoJummfzzQUUM6+zlmY+tmHeMb48WO87Pyd2dRj97PP2B16eN6YZ/sHHM4BZhw++5xPP9/Hm87P3zA/5ODxZ/xzd4jnjRkf7PL5rsdCl3+YDnbouil5chQbbUy/S396uxFGQUCUnG2lQL1VR+UkzlFvRHJtD8vtCjhPn3LlRHPu0h/FC+O6pv29t3hSwHw2IyvUqOm3TfC3lK/w6MsHq4XphXgDyDK1uEaJSuWq13JUqqeLuXOfKHQZDeZUGiepO1e00JIuqV2hkgcr+RSro/P90zIlAyLfoFJcWFDMl7C0kIHunG6zijYcEgPLearY6jNKT2v5ziNidGra7UZoNS1aTZP/q9Wp15vUnSoVMqbDHfbcAOtgSGraVDfyzLxnuKmOGvsEapNHjrbaTgl43O6gdl7wqDRlfBCiGhoEfXyjjel2GfkGg6GCYVcpJd5Ce5h5u/RCHVMHJY2JtC1q6Re0tiNa332JdfiMdmuAPfiGB4WMw2d7BJqFHvtEZosHms+Br2DoEPZc1KePqC4Pejpm300xdJXUDzlLm/PJPr3IwFJD/MTmYUNZiv8JDy9dv09JkimzaUy/H7H5qEGlWiabjum0uqSbLWwFYtdH7zyhqhxx0G7R19tsGgqEIyJ7h4flHMzG7PZTTAtCX6He0nEX20YukVHHSBPSeISvb/OkWmA22aXdjmh99xRzMsRFR1diRv2E1pOGLF2Le01mxuJOzIIUq7tJ2usvLRenpPGM2XTCwFVoNo1r+0qTGbPDffbHGaVajUtzbK5AIQ+QMdnpo3a7OMvXW7OM+Xy+9FidZ+cqT/HdHepazKBTw/x4lyNyFJ1NLN2g1nCobpx8lEe+S6JXqD6wiLp7HF7WrlihaSjEKTA7mQUrukG52cTWClQ26xi6Td2pUspzsf10n80ONLccqtUajHr4KRQqTWwlIQXypSY17eRrDju0XINmtUylaeDv9PmP36cfgWaUabRq6CsjPuKL1gC96VCpVKiap3s4G9PeDrEaFcrVJtpgh+F/luO/6qBBGkdEUUS0sE6cK1ZpmjERNo7jUNN9ei6Q26BR14kilZpTxakpDPoBMOOg1YW6Q6XsUGOPnWCprQ29bojlVHHqBkHPB6BQbmKrJ/sl7PfwUxWjVKXZNBcn7kLcS5KMxR2Y4kegpCZ22qN/tPhaSpKmpKmCaqjE0RWLvtl5kkyTmDg+TTbX3NA0HXbxa3t87RRWX0wTkmT1sZyOp9Mp+Q2HrSdf8+/vA/b0HnuT1e4AzHodxR8y9sKTcb08PCg02bZ9tmsm79f2iK7JCpk/IjTM05WAHJquvrT9zPdJSAgmEyaBQq1p8J6zzWa8Q916n487wSVvchklOvrZvlVOgwpdggTiyYTJJESt1zH+54bxKwqaUaFcabDdslCAbHJ2HV1F1/MLmzo/AqqunR/iNAVCRn5KGk2YTCbERvOPFY/Ftqqun89003TlmJa326h7m1jv/4O2+5qXy4W4BUnG4tUdhWAaqKpOvaUz6C3c8qSoaHqR4kaJat0g3OlztNJBhjdy//hAVfUSpWqblp0j80a485U3ADDzDgiMNg8rBTj08Jbb5QsUi8WlR2Elv4eDwUJMBUzLOE0aCupp8pl4Hhke7c0BWtOhWjHRFODoiOlKu8UgXULzS/793U8EOyqDCxe2j/C8i+sIOcNAjWPOhpImZ4lE+SNnQsLZ06phoCoaZrlMuVyhZun86gWonW/47vuf6FsuveU70FQDg3j1WrhuYSgKerlMuVymWrNQ//uy+C9X2CiSI8MPY17+q8RlDCxTQTVOYihXbcxbTGsnfkrrXy/4/qcRzaCH++e7EOK1kmvG4mbmh4zdgEGYEtFjqFhYTonCzOOL7T5a92sKBVAMnXS7w35zj001wA8jUtdDV1OikY/R6bDBjEM/JI58xh6kYY9uuMkL+wjXj4miMZ6qQBLS60W0vnFWw/H+Sa05IlU7bJOSUqf305UXt18uHNHd1WjWLPQ0oJ82aZcAdGwzYTAeY2JQJsXQUkL/EDWNUNSYgR+xuWFfbDf1GAURIRNmrZDBXoLWtlBinZqtQcGmxh4DL0XVGrDY/sk2e/Y2O0ODTS1mFCRQAyhg2Qoj7whDjYjSmLA/of5wh52gQ3eoUNNSInTseESvp6HVVGLFpr58ZSBXodPx6e57KLZCNAqJ/B5e8wndTkh3fwyWShyBaV4S/8UjweGwxyhMiAYHDJPTP23ye+wl20xsj34QEzDmSFNx3ZhIHXH0sUE0ComjEd5UgVFAFMJ4arG1t8nj7jO8pokSxSgf6wQrbVPGRzqq6xJFKoPDGnY6wI1CtPGU/3V7+KpOXYtJ7Rrm7c4MIV6bd46Pj4/XHYQQ65RlGbkczI5CYnSMjfyF2XM2z8jlc4tPkOXyKzPslXYXXptDfvE9GfN5jvxVdxVlc+YoRJ0ae7UXfFm52A/ZHMiTO+swy8jInX9PxnyeouRX41zYCPMsRz6XcdJtbun5l8X/13vZ/rxhB8xTZWFcQtxfkoyFuK/mUw5aNfr2gN7WhtwNLMTfmCRjIe6r+YxpkgIKarEgyViIvzFJxkIIIcSayd3UQgghxJpJMhZCCCHWTJKxEEIIsWaSjIUQQog1+3+2m2fZeWsp8wAAAABJRU5ErkJggg==;" parent="WIyWlLk6GJQsqaUBKTNV-1" vertex="1">
          <mxGeometry x="50" y="620" width="418.17" height="129" as="geometry" />
        </mxCell>
        <mxCell id="WQaWYwOavrE4UbBEG4pA-9" value="Tower" style="swimlane;fontStyle=2;align=center;verticalAlign=top;childLayout=stackLayout;horizontal=1;startSize=26;horizontalStack=0;resizeParent=1;resizeLast=0;collapsible=1;marginBottom=0;rounded=0;shadow=0;strokeWidth=1;" parent="WIyWlLk6GJQsqaUBKTNV-1" vertex="1">
          <mxGeometry x="520" y="40" width="160" height="84" as="geometry">
            <mxRectangle x="230" y="140" width="160" height="26" as="alternateBounds" />
          </mxGeometry>
        </mxCell>
        <mxCell id="WQaWYwOavrE4UbBEG4pA-16" value="int : cost" style="text;align=left;verticalAlign=top;spacingLeft=4;spacingRight=4;overflow=hidden;rotatable=0;points=[[0,0.5],[1,0.5]];portConstraint=eastwest;" parent="WQaWYwOavrE4UbBEG4pA-9" vertex="1">
          <mxGeometry y="26" width="160" height="24" as="geometry" />
        </mxCell>
        <mxCell id="WQaWYwOavrE4UbBEG4pA-10" value="" style="line;html=1;strokeWidth=1;align=left;verticalAlign=middle;spacingTop=-1;spacingLeft=3;spacingRight=3;rotatable=0;labelPosition=right;points=[];portConstraint=eastwest;" parent="WQaWYwOavrE4UbBEG4pA-9" vertex="1">
          <mxGeometry y="50" width="160" height="10" as="geometry" />
        </mxCell>
        <mxCell id="WQaWYwOavrE4UbBEG4pA-15" style="edgeStyle=orthogonalEdgeStyle;rounded=0;orthogonalLoop=1;jettySize=auto;html=1;exitX=0;exitY=0.25;exitDx=0;exitDy=0;entryX=0.981;entryY=0.068;entryDx=0;entryDy=0;entryPerimeter=0;" parent="WIyWlLk6GJQsqaUBKTNV-1" source="WQaWYwOavrE4UbBEG4pA-12" target="zkfFHV4jXpPFQw0GAbJ--13" edge="1">
          <mxGeometry relative="1" as="geometry">
            <mxPoint x="480" y="130" as="targetPoint" />
          </mxGeometry>
        </mxCell>
        <mxCell id="WQaWYwOavrE4UbBEG4pA-12" value="Ennemy" style="swimlane;fontStyle=2;align=center;verticalAlign=top;childLayout=stackLayout;horizontal=1;startSize=26;horizontalStack=0;resizeParent=1;resizeLast=0;collapsible=1;marginBottom=0;rounded=0;shadow=0;strokeWidth=1;" parent="WIyWlLk6GJQsqaUBKTNV-1" vertex="1">
          <mxGeometry x="520" y="240" width="160" height="110" as="geometry">
            <mxRectangle x="230" y="140" width="160" height="26" as="alternateBounds" />
          </mxGeometry>
        </mxCell>
        <mxCell id="WQaWYwOavrE4UbBEG4pA-17" value="int : speed" style="text;align=left;verticalAlign=top;spacingLeft=4;spacingRight=4;overflow=hidden;rotatable=0;points=[[0,0.5],[1,0.5]];portConstraint=eastwest;" parent="WQaWYwOavrE4UbBEG4pA-12" vertex="1">
          <mxGeometry y="26" width="160" height="24" as="geometry" />
        </mxCell>
        <mxCell id="WQaWYwOavrE4UbBEG4pA-18" value="int : reward" style="text;align=left;verticalAlign=top;spacingLeft=4;spacingRight=4;overflow=hidden;rotatable=0;points=[[0,0.5],[1,0.5]];portConstraint=eastwest;" parent="WQaWYwOavrE4UbBEG4pA-12" vertex="1">
          <mxGeometry y="50" width="160" height="24" as="geometry" />
        </mxCell>
        <mxCell id="WQaWYwOavrE4UbBEG4pA-13" value="" style="line;html=1;strokeWidth=1;align=left;verticalAlign=middle;spacingTop=-1;spacingLeft=3;spacingRight=3;rotatable=0;labelPosition=right;points=[];portConstraint=eastwest;" parent="WQaWYwOavrE4UbBEG4pA-12" vertex="1">
          <mxGeometry y="74" width="160" height="14" as="geometry" />
        </mxCell>
        <mxCell id="mgOKxTFPOkZtGGQPqrV3-0" value="" style="endArrow=none;html=1;rounded=0;exitX=-0.015;exitY=0.119;exitDx=0;exitDy=0;exitPerimeter=0;" edge="1" parent="WIyWlLk6GJQsqaUBKTNV-1" source="WQaWYwOavrE4UbBEG4pA-9">
          <mxGeometry width="50" height="50" relative="1" as="geometry">
            <mxPoint x="440" y="240" as="sourcePoint" />
            <mxPoint x="480" y="190" as="targetPoint" />
            <Array as="points">
              <mxPoint x="480" y="50" />
            </Array>
          </mxGeometry>
        </mxCell>
        <mxCell id="mgOKxTFPOkZtGGQPqrV3-1" value="" style="shape=image;verticalLabelPosition=bottom;labelBackgroundColor=default;verticalAlign=top;aspect=fixed;imageAspect=0;image=data:image/png,iVBORw0KGgoAAAANSUhEUgAAAxsAAADKCAIAAABCNsqJAAAgAElEQVR4Aeydd1TT7vv3k042KCoqKg5Exc1yi6AgIsqnuMCtuFDBPUBFGS4Q3HuLW1AEBY+iIi4cBxeoHESRIzIO6zB+hafNN89JupISSkpbaDH5A5L0vpPret/rdY8kAExtlAKUApQClAKUApQClAKUAoopACgWnYpNKUApQClAKUApQClAKUApAFNERWUCSgFKAUoBSgFKAUoBSgFFFaCISlEFqfiUApQClAKUApQClAKUAhRRUXmAUoBSgFKAUoBSgFKAUkBRBSiiUlRBKj6lAKUApQClAKUApQClAEVUVB6gFKAUoBSgFKAUoBSgFFBUAYqoFFWQik8pQClAKUApQClAKUApQBEVlQcoBSgFKAUoBSgFKAUoBRRVgCIqRRWk4lMKUApQClAKUApQClAKUERF5QFKAUoBSgFKAUoBSgFKAUUVoIhKUQWp+JQClAKUApQClAKUApQCFFFReYBSgFKAUoBSgFKAUoBSQFEFKKJSVEEqPqUApQClAKUApQClAKUARVRUHqAUoBSgFKAUoBSgFKAUUFQBWUT1v//9T4/aKAUoBSgFKAUoBSgFKAU0X4EtW7YoCk0y48siqm3btgUEBFRQW4tW4NGjR7a2thrtIgAA5eXlGu1CI4wfNGhQcnJyIyJSUdRBgT179ixbtkwdLFFnG7p16/bhwwd1trAF2Hb06NFZs2a1AEfIuKCjo1NZWSkTihT6sQGiCgoKUujyVGS1V+DVq1dDhw5VezNlGQiCIARBskK0xN+sra3fvXvXEj37J3w6cOCAn5/fP+GqAk726NEjKytLgQtQURtW4Ny5c/Pnz284XIsIoaurSxFVi0hJdXWCIip1TZkG7KKIqgGB1PtniqjIpA9FVGRUUjAMRVQKCoiNrmljVOVfEq5ESbbLV26n5vGwDiH7FRmPbkXfuRsXj25xd+/ExL/L/+fGMKRVqedYLqKSkl+SEFFRUZev3rhzPzktpxyfHpXfnsTEiBMjPj4+7m7snZiYJ9+rsAbxf7+6HX1bkGRxsbdv3Uz4VEI6xRQfo6p4ddRv5b4nRcS35Jbk/ckluf0pqED9L894FBNzJ1aUCYV+3465n1YovglU/DFRHCbu7p3oW8k/arCqyNxXAlEp3W3leM0r/Bh3anfA2pU+K9ZuCz+XmFHKh2H+n8TIo0/IZwqZ2inrx+pvDy6cPHowYm/ojsCw2Cy+HNeVh6jqLXaXL1+7def+k7eZRVxxrpLDBvUPKgdRVed+evmCzPbq0x8u6jn/d8rl08cORYbtCg4MvPiOfNFTf93kslAxouKX/0yNO7c/NHDTmpW+G3ZEnLr+KKNUkBt5uQkRh5OK5DJG1YGpMSqcwvxfUT7Ojo6Oo/sY0wB0A3UGrnlUjKtOoN9Xlo8bPczaop0WyDDqbj1izNgZke9qcReiDkQKyENU0vKDdJP+Do7o5mA/3LpXBx06CLLaDfxv87V04VQ19PfmqvGOjg4DOzBBNMFobSztHR3Hr75VgE20mmfBE0fa9u2oC4JaJn3sRo1dePo76fZJUaLi/zo0VhcEmf0D3uFpUKBR1bWp+gLbAQCkMVhsNptJF5wQHTJAUQCGxbqXtTAsrRRAMzAf6ujo6DT78EfxPXgZJ2aPGNhJnwaCTKOuA4eOctoYXy5Klwb/K0xUyndbCV5z088vGGCk02nknI07Iw+EB21c5GppbNx/2rIpfXSYNsHppDNFg/opIQBUfHuto003A6Quopv5JMnTJstBVNKySoqdw+jh1n1M9RkgTcfUxmPjhXf4mlAJLjbzJcgTFT/rCKdPz549u5voCpoGUKuNWU/h1sPMtI2esAIChEUUhmtTQicN72WMnme7nSNf9JpZFOLbV+R8+vy7UQuEGktU1Zlxu+aP6KQNgjS9Lraus5at89+8xnuas5VZF7v54XcTDk/tzmYODvxIbK8iZxvvK0wRFZHwUP7RsVp6RoYMtB2jmbgcTieozEpOuej2I24kiS76j56Th6iEEiHysxA8ArU5UdUY3aDStGMeXZBUobUeGfwKU7yhv2cnG6E1Ha3N1MuSYRpMZBjmpqyx0B8VTh6lhLEVJCrex+1WaK1KN1v6ADdyhl4fyj3owAJZ3SYFR7/PFQxAVV+fJmAsRs/VKQiqQzUlmcmnVwxpTaO1mRsr6AEjkcVKAUyr7Z/FKCX2ujY7eoV1m84TdqfUMzwmDll3R1GiUp3bjfe68umaPmx6hymXfmPICSp7d8i9MxME1I6o0ESpfbbKnKFSohKmvVhW6WJXnR23YRhSukAtc68LmXWzWd3MoylnyBOVtEh1Shy/IvvJ0YWDDWmg/pSr4qqJ/yNsBBMAAI0nKm78AtNea543ZuCgMURVm3V9mbURDQTprW2XX3hfhMt0FRk3No7pgLbOKiEqBXyliIqw6CN1i67V5kvBo1uhrTSo1WdZPG7MA4lWenqC7qDAD7i0JrzcP31SmUQFwzD/++6hSA0FgFpDd6ZjlK18sLQrXYBhI/Z+wzSYojBQ8bUZJibTr8nfzVaMqKqfrOzBQIfPAFqbaVeLRfaI/vPebx3AtliVjGGtOkQlCAv9Oe1mpDXhdIkoqkyigopTdo3v1NbGN+ZnY6pBWEGiUqHb4qa/TqsGwzK9Lr7IMQRBg6nXxA2eSMmyxCXdGWpKVK/W92peooJhuCbZT5CJQUOXE7+xo78iBTXzvxKJChUA+n3OvQ1ryC5xrw36vX8M0jvUdKLifw211bJoIqKCCuJ9LLWQjrOR/Z40bJ9akssqX2+z0QUBVRCVIr5SRCVJIsyegKi2f67Nu+1twRIMVBk7hn/Apy1FVBjJ6t1VMlHB1Vc8dARTYCyHQ9i78j4H27DRXxg9/ZIl4zjCMPzMfaP1LVan1PkBew3ifYWIqvSmV3uDLmZtBLSnN+5wjlR7VJO4uEv35Y+xg6D1EBUMF56aYGC386uYF+tli+qMC/P6GptPOfK+gtinhs8qRlSqdLuxXtc+X2PBAECWXWh6nW4QL23rAG11m/VDE6lWHYgK+hU5Gh02BkA9jysY+G84H6l1CGURFZ/PFxbrqth5HToveSAqzi2EqLivNvZlMpqIqMofLO2ODECBzH6b34iErJuNqh75dKOrgKgU8pUiqroJJZxM0RVMo3A/Ro5rIxioYvVcEP0H0xzKICp+VVHuz+xfeUWVdapuyQ35NdU1kraRW1lZg7m4IBivukoSRBJTvMerKs7L+Z1fVjemOEhz76iAqHRFRHUQ5xx25m+K9MxfzfO1vfRHhon7jriYDRwoQFRQ7vHxRqYLYh6uRcYZAABkWQdJzc5VRnGMRoZni3MCDMP1ElVN0vLuFqueicecCNmC//dBwOj27UcFPPiLvWgDTtb5WRGiUq3bjfWa9y6gPzK+CepZeoYn/MD3j2pT90xZfu2vVBGEeNxqUeHic6u4DQpKokSSCALDMK+qogqtPNSCqPhZe4ahQ8MArYP3faJeidxVHlRbVVFZK6U3LhdCNZWVGMV5Zb+/Zf6tqhODnJ64K4sPlENU1TemG4toHPpzyMHQ5ZRoKLoBomrI9qZoI7D3IEyU6u9XFvTRAoGmISoo77izoIZn9t9CuPBUlHo1T327swcHfhIdi/9DNWUFv3PyigUFSHwas8OvLPiVnZNfjpRtqLK0XFyjKuorRVQYlSW7SJUtJCoYhgrvr+iLDEEig5AjQ1LFMwZERMXLjt7gOsDU1MLOwcXFwaZ7a/12lo7e4Y9yxWRVHb2gSxsjfW0mHURyKDf/aaS3k81g60HdjFgGXYYvPPa2FIIrP0Wt/2+EtbV1r3ZabOPezutu/RBfADETKko9vXrSYFMj4x62Yxxsurdt19vJ50Sqmj2phAqqZKISrUsAQC270C+SJEP3MDN/w/dIRnJgGC6+PqN9u6lX5F9NhFy38UTFSw+10+m17mUNsiMaQFuFH0CryU6JfZGDS956iQoqz0i6h3mutC5bVKQdndJDS3d4yEc8MEgpReJQAaJSsduN9pqbtLwbOlaIYBXTqJvV2KlLNoediXv/F98T5n0Ite/Y2lCXzaSBTOvV5w6udLM272JmasRi6LTvO9Z7T8JPfARSJZJMoeXnvzi5hjOkR1vjzn2trQf1s57gd3j/vGZeRwXDUO5pN3SZIs1w+K40vO+NqPKeHVg0zqrfgP5djVh6nWxn7X8lfHZLkCuhkjen/dysupiY9ra27tu5XUdLxwVbApdPHjXEog2d1WNJfKkwnBIqQaUQFe/TdivJ+CZU+iMtQ5yh6iEq2XmhKdqIOvcgTBTelyPT+rcXtH4AyNA2bI1uJo7hRAsr6qlV5FtHVXx+sgHa2uLWoxFeuubTtT3nUzEr/iu+XN/mOdzcpGPv4WMdhvbu2MZ0wPhlB55IWl+Y9ysucMow66FOHK85XhynIf0HDjRvZex5qxqGleIrRVSEKYUjKhiGazOOTWyPPn4FMrt6Xfkl6KkSEFXlLa/WNGTd9PTraDrzcm8v7MkAQZb5oljhcmmo5MfbJ4enmNIBgNHTO8TPhbPjXjbS6atMWoEsVaB3nh+5k+Psc+EDUs3wM8NGaoEAqD/u8E9R/5j/+8Z8C22QZmS3PkHQp+b9jl7Qk0kzGBL0RtF2lFAPRU4qlaiqvl2a1YMJAiC9zZhdErYV24eZ+TP3eyrWAp3xI5oKFEeUudNooqp5vsZCZ8jODD7SJp1wEVQUtPZzYspk3q/+MSrpaDi2+FT967afDdrwgVr9VicJGx7pOGSPG09Uqna78V5DeTdmdhY8byJY2Sb4C7JNrOef+CCZIK368+XV3fW2yIQ/CDI7jQ+8+70CKY1l749N6cYCQUa7sWHvJHNfJEokiSAw9/ORSZ2YIMN08v43gs4RVPbx3Py+6Cy3Cp/1E+YIsaygluuxX/nI9jc3O+NN4oUd0/sa0EBGqwGeEc+lOyXyV3mrXKcEJ/xEqryK+4u60AGQ0WPlE/GwV3VqoK0+COqOCBX0CWqzjk5oTQOZFssfZF+d0ZbR2v1cHpIUyqkEFSAqeueJ/hH79+3ausSphw5Y3xo8IqJq0PamaCOk7lFfonCLfmVlvt2JTvnSu3nfyMhEtqzfpeJRnYbrE7mIipe2daBgNJTedQVuLUQDN4IK768ebECjm04+8lFYknl/H6yz0acxTSce+oRmMF7aDmvdTrMxz4FXvN5qo2Mw7TrSVijDV4qoCJNJmqhgGCp5vG6QYCySZmC7JQXhJQKi4iYt78oAQXrnJYnC5pz3eYc1E1lHPeaAZAENPyPEBj2p3983SVyPl51zQzoDIL31xJM5InyqSfIxoyMTFaLVC1DeBQ4yDcnoveGVJFdDeSfG64G0VpxL9TznRuhnU5xUiKjopjZuk9Ft0kTnMdbmrVggXa/L0JlBsZliXMI5Af09J3rmz3hKlFALZMZPT2rQChergYPGElX5nXmmRhNOCGeKS296tRNMHxtOPI00CvVv9Y5RSUcRN4IAw4Kz2Llzm0GTx1ugY2Ego4vXtVyZd5G+mNRxo4lK5W4r5HV1+sVlwzoKFkdiqQqgtRq18y0mV1Xf8jJCnyr1vCkeloZhuDzeuzNSINlWge8F5a/BEgnDDQaBYLjmXaAV2nlyEeUYQYJURXG0waZ91o/e1nKUPbKNHjawkx4NXSJst+5enqhSwuYUuau8AX6PRVUeVHDMCVmdxZQ84FN5E+2TMm1DRWPMwkCgnuupfF5VOTqTQ0ZPrJH17itAVLTW/V2mTuW4jelvwq7/OdG6REXS9qZoIyT3kJ0oRSfHswGgaWb9hI+2Irczx6xvqDcFhT9AxdGzkVEKpk0I0oEVbxXRs9rSAFDbJuhjLczPDh/JpHfgnMW8lo//6+jkgSsTxeOuCvpKEZVYeuxOXaJCFjZkneOYov1bkGHKOZdVS0BUMFxb+DEp6WOhhHXKzrjWyY38jBBbhMPxE9PV16bqIUSl535RMrxQ+3KdBbICh+V8vBAxEfp90AHlLjFiCQznpW0byARobebcEff2sB41374iRAUwLOafup8o2B48fPLq88+iamx5IXCr6uEy0TN/Qogqvj7DpK2HCK8IojR0qnFEBf0942bUfuYtcVpWP17RXbA+XWv4HpmD5o0gKgBkd+McfFsOVb8NHoa+wAigGY87kC7JiA15Kf17I4mqCdyWEFVjveb+Tbt3LmzToikOg7oYit4jBIB6Dgd+iLMXV0hUHRbewxWp6rvzTRAyZpivErzZosESSarQch8u7YLkjjqvwai+zEEGqZpyjAr70hLur/v+o5CBd1C7h9dF/OIDQZZRoMqrOD8JrRzFbSdUcGwcwlis0ZG/RN2BygtoIExbqbxKUAGiEicUVHRnvhlbtI4K0aS68NfvYkEbXYeoyNreFG0E8T3qJAqsIGXINUYlsgkA6KaLJaAjXTtJHUP5J12QAQ/QCJ3Ak/wqhEaA3t03uRYqPDfJAARAmm4na5eZPv57Tkan/CgX5TNBJAV9pYhKoj1mj5CokP5pyhZbQWsF6g5aezvChejtCfzSjISzewOWz55kb2szfIzDABOkohS9WQi9iyjXMIfvxbwHWUhUdFPJkyIwLE1UNYmLERQHQG2LcbPmYDYPWxM6AGpNPCtuwTEONeOuQkQlrrXkcAA78+f7tJqfFTFa33zlE8zogxwXQ4M2iqj43/YO19YfvvLoafF2YtO4tugoFcCw3JQqg3UaQVSYK/KyTrqhbT4A6lj5PxcNCMjrdeOIqinclhCVnF5D1WVlODpCNOGVZtzd7tQBmdQHtRwPi589qY+oeJ+3W6HTEkgnBxlbarBEkghSinafkTEzln2kZDAbsa+ZiQpR6F1AP9RjWoc5tzGrVsQ5qtFVXt3Gm5e+a5gOCNC7rXgiHDbgfQgcxARAZu/1L0UDCQ1LTrYSVAZRwXDVZY4RhqhKzk9u5XBQMEBch6jI2t4UbQTxPeomioKUIRdRwdX3vdEWDgC1XE7Jfh86/2ds+PEUJK1rHi1D+yO09lL9H+hXxChBaR1zIBeCuZ8PTTQVd6GQdpRu1H/2yY+SUWgFfaWISlwrYHfqIyrkXdVXvLqiKQLSjVobsSTD1Uh8qPBZ2JTe+jRQu8dE/7NJ6YU1MFx+zg3thgnf1YjeRpyTR4RJ+sSwiKg6LX0oqjoIiOrhUmTSAaAZTzmdjs5pY/5kZf0ukdFQY11ssv0mJyoYmfkTvEeMZuxx9u6aXrpDd+FGguX1vTFEVft6o6WWqbWLK26bMLQrMoODrJbzvi8pxdIGNYKocOwJ5d9e0F2QS5k9Ft5p3BeSGkVUTeK2hKjk87rmqa/FAP+3uIcABNJDxTFz0DmD/lvei36ul6g+iYjKSUBUDZfImoaD8DOFD9OxRG2xKFM0P1Eh6xuQOoxoIkaxKq9u4w3D1an+g5ggzWDQ3L1Rd2KvHvAZZkxnd5kQ9krCciT0FKnXwH/lEBVU8OHRiyxRea555NPNTFSH1yWqhvMCanNTtBHE96ibKApShnxEBVclLEKbOIDecUGcSFTCdCw65WI45kAuQlQJ3h3RZtFkfhyuz8T/uW8kSlRM0fPUvPzUqNAV051sLUx0BUsqQab5ikeiGyjoK0VUIiFx/+snKmQF+ZuQkYLXc+MWAMAw9PeSBzIGQWvHOS95CZ6SiUr0bCmoM+k82Y4YzremPmh6ooJhycwfs1Vrozaci3XeziqXCo0gqsp73p2MXE7UWchUcsNTsJiK1lrGPKSiRIUMpz7bOEjw3i6aidvJLBEmyOF3Y4iqadyuh6ga9BrpyOqNOyoehcKKUXzKhQ2AbBJjVNz4Be2Fs37oayxIlEgSQeCqO3PRnIFZQSSwTw2IqvLCZAFRgXqcy9gxT0WrvLqNN8z/ttd+iH9S2v3TOzetWrFyzeagg1ef/ZQ8BYCIQkZPbOLWv68cosJdn5vs11Pb4ZAwl9UhKrK2E9MOqV432VvAxPeomyhSlFGbGmA9YK3kHS449wkO5CQqmP/jsJPgydI2k89IWlLpK0N/Tk1sa70d/eoWP3vfKGT9KPJ8IC6v8D4FDkaIitZhYXw1VPw4cvs1yRt0eMXpcbv+684G6Z2Xia6uoK8UUYmExP2XSVQwDP2JWdATXduKWVIJwzX3BZzMcjomacH5X3faISlKPOsn/xgVDBXdmoV0p2kmXjclL89GzOelh9mbzYrGZSicW81y0BxEBfO+hNgKXlYA0LsvT1Jgxg/RTG6iggoucIzbe90kQF7JYiodhwO4l1BhUkcJRAXDNZ/3OQiH6gyGBb2VO1vIT1RN5Xb9RCXba3RqgNnT+670W6dguPb1xj4MUGfUvsw666jazL6NzT+ViUvQR0W0rMUr0xsqkci7FRoutBUPlyHL7Gitpl7B5Zvi067IwsnmWkeFZEtuzCxkJZVgldcnlM6hP3d37ozLVrDKq9t4w9VXOHqtnQ9+xY00YMoGuktGT+k4hMdKJ6ry14HD9Bldlj0STjPUISpSeQH5OIRwrS1ThW0E8T3qJkr5hcnI0Dqjh18yMgVSk+TTvQ/6eVFCTeuclJeo0Cc555ojLSzdxGlvKuGT0dyvJ9y79Fh4R/jsKZRzaiJS2zF6rUe+eyraoMLzkw1BAGRarE6ugnkfAweze65KxpZnuOikC5thsUYUQ0FfKaISCSn8D9VWlZcW/EzaMJjdfeH1jJz8kgrMO+Ykgas/7HM0pmEfUoFhKOfEBAStaW0nHvsuKFBVn0/McBjcWxcEaG05J9ILKmthmFddUfo2EHkAEGAODflUWlHNg2F+TWVFwXkOsjKdbuodW1RRhbz7jlddUfzItye6Mt3xwM9ywfvuoMLEddaGNJDZffqJNNFXuAtST87vbzpsx2u5W06JUyrZk4uokBfMlZeXZUU4CF7QzBwY8LqkvLwC+6I/UlZCf8+5IwUMZBO9IJvUJSSB5CAqJPsUZj/2t9Np5Xb485/iCtHrIdGr1VZXlJc839hPOCE3SOBclSgM8jO6FVzgCL/r12PFg2L0VAWaTdCroH8aVAqqqSx8GWgnGKcCWb28r2cUlJVXY2obycUI9+QhqqZyWzGvhYstQF1zt82nH6QXibSoybm/aZgRXd9m6wvMJINw1g8A9QYsvZktKM/VX6Pm9dYCQUZ754g0SUkjUSLJBCl6sGaQPghqD1qbJGwneH+Td7kIHoehtZp8IrMYrRYIk0v6pBxfSoalZAW1Jp0uKC8vrxDlFujPmUkCOAfZQ0K/1CIPyBxxaut0NEeRKo9bWZ53Ap1OpHf3SSwW3q02dZMlEwRZRqZdu3Xr3r17D3OL3v2thztP8wmOSs0Xj7WS0FNaEaJjOYhKSiRAWDeVI1tpUd7P9Bexx/09+iLfomMJh6h41RVlX/egs05sl2N/hPU33LDtTdFGEN+DMFH46buGaYMAiDxRw0OmZa06zYom5BwijWH5iQp5Y1FOfIBDRyYI0Ax6/xdwLunT73Jh4vNLP0eHzLQ2Necc/iApgzD/5+XZ5logrfWYoOdFgn5Rdda1BRYskN565I7nyJwxQlRMUGfg8ju/ROtqan5emWmmbbkuRWS5gr5SRCUSUvCfnx4yRFdbV0/fANn09XW1tLovJ/7kO1Rwb0W/ViPDJJ1aZB1Vyn7vsX1NtBn6ZjaOzg5Dhk5cfzPzz4MtY81bazFAkKbrcCDjAkeHyUbvoa+nq81mGk2/Xl37fG0vNktLB7mxPnJSa+jOr7z8o07a4qA6WixW5yUPhPZWfo3eMWukeSst/Q4WAwb17d7R1HK875l3ZfjnFvDONc+RPESFyK+jpaOrpy9IACQJ9HR1tLQtVqGdI3k8qHq80pxBM5l2pXGriLC3Ik1UUE7kGDTFEPP19XW1da22pUkagZz9DnrS3ulo6QwMeIOEgf4cGqvD0tLGuo9eRk9XR5vNbjs7BtNtb1Ap3sft1jgp9fX1dLT0xklWXmM9JNonT1RN5raCXtckLe/WZsS2+GeX/afYdtbXMujYw7J/v16djFg6pkPnHZB61ZJoHVWbCeu3e40YPGys06gBpnpaxr0cvcMe5IhoTKwciRLZcBCo9P35NZMGttc3thg6dtxo636Dxy2NXI8+3CsYIhq6G1vfiG9OsCMHUdUnq+4Y8QN3UMHTsFl2pto0ENTp7jCdM6JHN4eQFxWKVHnJfubCKk9QD2rbR6CP9/F/HJ9gLBgRQ32W/AGZpu6nvovLE9ywngS64E+RJyp+ejDyxhsyG72LD9pmcGNmtWEKanV9XaT+7uH7VNSSy7S9+pLq2wjie9SXKNz0i8sdehgwWG3M+5pbjF4bi/3UOF7SukeNIirkMlBZ+p29S1ytzZDncUEau1Vni56dWusamFp7bLrwtu4HWqHCVydXTRpsqm/QwWLg4H5dW+u17jl6Toj4VTu8L0E2rXq7L/GeYN3XarTzxAkONr0sBk1cf0M4ACIwXSFfKaKqm/6Kn4FqyvJzfvzMr5AUfsUvSngFiFuS9zMr+08JV/1QSmiwPERF6GOjT3L/fsv4g+nENPpCpImq0XdQx4jkiUodrSe0qfJnerZ4GVBNya/Pr54+SnqW+iUXeX2n9CYiKuHbE2rL/mT/zCttqKCRKJENB4FqyvJ+iioQqCIvK/tX7t/CknLZn6TCOyAHUeEjyjiCuIWZ7188eZSU8jEXX7CUVeVxPx5y68zWseBsO375xi10u3nj6oXjYQEL7btogcgA/j3cnA3S7ipQCZInKhmyKPCTIraTvK0Sb1Fbnv8rp6Dud4AasKTRRCW+Lq/8z/dPb54/efzs9cesIhGVin+W3uFVFv7+kUVQWqGKomJBv5RbnJP5LTNHeCR9AWSMrHG+UkRFoCV1SpkKNB9RKc0LiqiUJqUGXUiKqDTIctRUVRCVyjWoebCkEx15BQzBlBI32a8HA8C/cEZhg5qbqBR2QBMuoDhRaYKXQht1db2FV/wAACAASURBVHUrKzGLB5RtOiDjgtu2bQsKCpIRgPqpBShAEZWGJmILHKOSKyUoopJLLqUE5v866dqKRjedHoX/0CXyxZrUwCG6INPCT5E3y9UxkiKqOpIo/wRFVErUlCIqJYqpkZeiiEojkw2G/2Gi4n87tdDJYWAH5AkCkG062MF56UXxZzU1JDk1cowKhqGCJ3umDWit1Wag+/LAyJMXLl++dPbI7g1z7Lvq6XS2X37xC362UdHEoIhKUQVJxKeIioRIZINQREVWqZYajiIqDU3Zf5iooKK0uGvXb92OvRsXdzf29q3r1+5/Ej5UqzGJqaFEJdC3Jv/T4+hzh8J2BQcGbg/ZHXnictzLH2XiF1soLxEoolKelvVeiSKqeqWR/weKqOTXrGXFoIhKQ9PzHyYqDU0xnNkaTVQ4T1R5QBGVKtUVXpsiKiWKTBGVEsXUyEtRRKWRyfZPz/ppaIrhzKaICidHPQcUUdUjjDJPU0SlRDVlEdXRo0fXr1//gtpatAIXLlxwdnbWaBfNzc2fP3+u0S40wvixY8dGRUU1IiIVRR0UCAwM9PHxUQdL1NmGYcOGxcTEqLOFLcC23bt3z58/vwU4QsaFQYMG/d///Z8SEUrqUrKIKjMz08rKaji1tWgF7Ozs+vfvr9Eu9unTR6Ptb5zx/fr1s7Oza1xcKlazK2BlZTVo0KBmN0PNDejbt++QIUPU3EhNN8/a2nrgwIGa7gVJ+1esWMHnq2DFnwisZBEV9fYEkUot+T8166ehqUuto9LQhBOYTc36kUk+ataPjEoKhqFm/RQUEBudIiqsGv/iPkVUGprqFFFpaMIJzKaIikzyUURFRiUFw1BEpaCA2OjNSlS1ue8fP0lOEa+AeZ7y7Onj1GwVvtBU7Dqv8GPs0S1LPN1dnMY5u3mtjohNR7+5x/t+Puh0usq/TiO2o/l3VEVUVaVlDX6NQEneU+9MV5KQ1GWaTgGKqMho3Uiiggq/PH30+OkzQdvyPCX5yZOPf5EvGfHz0h7hf0hJF371Gq788Srp8dNnz58/T0l+/Cg5Hf9dOl5aoK3F0kSC123xSnOzMklsWT8Lq2EYKs1687LBBT+vvhaiH16Cir88uRcvtd27l5CU8vZbAeY7omS0rDeMKomqqqREWWbWa79cP7Tod6ZXf7oVsSckYOGwdnQAoBkN9toUvGdf1OsSgo94ySWa7MDIR0Vn9G/T3m7h3ug3uZV8uKb4+4vosCWceZHP3+wfa2zuK/dXf2XfUL1/VQlR8dL3OXSdFS1dlqoybgUtXeCzYfP65QsWrDv5Gl9nNVqnZiMqXm7i9skugS/rfJa30a7IEbGljlFVfo0J9ua4jh87ytbG3sM3MjFb+kNxcoikvkHVhaigoitLHDg+IaduJTx9+frlk7jLB7cs4Ky+ofgHzJWhfSOJip+dcHin/2zrVjQAoOn1nuwbGH7nK9JP5mXcDg9ex7HUA5EWZ8CU1TsOJQrfDQsVPz+5afawDkyQbjxw8uLgu7h3xta+3tiHQWs/N1b83UmRe7z3WwYwQaZxb3t3z3nei5cs8Z5ma4I0aIZ9J85fvGSx94JZHuMGm2rTaMazb3Nh3tebwRvXLvMYhNrWxm7Wmk2bBdumDWtWes9wHtRBCwRYo4Wfpf6ddDJsZ+AyB1MG8tFER9/gPXv37ArZEeA3e7xVjx42UwKufEKHAkTWNOa/6oiKn7V3dHeHxQGh4fsPHjqM245efSWARhiGVdQuEGrRoolK6HH1TU8jEGA7nygilECpJ3lZUXMsdHT6LIqu8xmF8tTQse3YIL27kogKKrq958gHtR/uUgFR8b5GOhjRjTxv4prCqteh9ub2IamCKon38/Isy76Lbyuj4m5qouJ9vhHi7+ftxXHuZ0yjmy5KaKrBOFxRaJFEVfEyxN19c2wWOhTA/Rm3bogRo9XQgMdKYm+cgM17oDZElXvQgQVINpBpMnJDXK4K1+7Ko3sjiUpwi9oXay0YAMNinXSXp/rhUjM6wLTa/rlO9Vx5Z+FI36Q62CS4FEBrNyu6XMr+msTFPQatThKNdMEwzL09qzUNYI3Z/1syNlD1KWJchwmnikWRq2/OQBq98SfFZ0S/wFWfj7iZ9vTD9uu5cfNNaABb6nuKFWn7nNrQ9fotu/NHciPxZcjvqI6ouHELTGiSvCXZA5kWKx8JlFRdu0CowL9AVNyYma1oANvlVAmhBEo8Wfliq40eTWdI6CfCUQV+5n4HfYayiIr3duvkNdhioURHlHgppRMV//uxhUN76tLwRFX7IdjWwHLja4nwUP4ZN6POc6IxVVEj3WpqooLyP6e8zsjn8nMiR7MoompkqhFE430ImjDnagGmeeB/3T1MC2R093nYFGsBCExS2Sk1IqqJQ6b7ent5/MfxXLRpf8zHYjWhKUR6hYgKFnAQs6//Wylyqr63sCMdZNnt/CrlK/9buE/oR6nQMFzzbK3ztBl2bJDWxvOm1FeiK6O83I/ikIYbO7ctDWA5HMKdrYpb7L4rQ3Q/mY0ePzPMaUYUBuu49xZ2oAFst3NSOCdwkGYy47oitajKiIr/Y9/EMcsPnDp34eKlKPF26aC3nd36ZIErqmwXCMsuRVSEsjTqJD9jz3AdkN7JOx6TV/FXKo+Z3VFJs378zLDRfXAdDfyt1OVIyUTFzzrpszHm3KzW+DGq6kfLzJgdFt7DzgPyv+8aytR1OorpyTVOlKYmKpGVEEVUIimU8p+fHmyjY2jmEPRCslqF/333UCZA6+B9Tym3UJ+LqA9RHfJYEIMtl+qjkaJEBdemrO7JAJj9At7hIAnKOzG5NRsEWUN3fxMhDuo1PzPCJyQNFxY5X/N41YRNL75H2muBtNbTrpZiFYJ+HVwcgB8EIyYqKO/o4g3iHrZMooJrX2+Zt1tMXzBcH1HBpWdc2SBAM1kQr0AKqoyouPdXLb2EUwuGodwrC/7bkSqcvlBpu4BNJvE+RVRiKRTdqXm8oisdoJnMjZXU13WuWRY1ZaAyMIife21mF6ayhrvqmKnEE0olKn726eUb7hZV356NJ6ra1E2WjDoVW/mFydqgocdlqY6X3M5RRCW3ZGoZgfdpuxUTBLXHHcF07svOTmQDANv1jFqa3HijKKIio51iY1QwXJPs14MBMPtveY/BJOjvmZVrt8zqQANZw/ZkYpCKn7XfJwgbUmAi9+HKCQFvaqGcQ446IK2VRxR2po73Ya//2TzMsCoMExMVzE0ICBB3KQmIqvZFSGCMcCi2/M6O3S8k4/n1ERX097AjCwAYlpveSAKT0RUXRmVEVfX27oMcjL4wzM8+PZOz96NomYRq2wWck6KDf5qoqr5FB3o5Of03e9EKv5XLlq0/8DhPnDy83KTwpZ7z/Pw3r/OZ6ea+/MSbBha0175c14sBgGznE+IFcSKRMf/5ObeP3vohvAuU/+zY1nWbtgYGbPSb685Zdf4DfsC34uPFras3Be0JD9+7e/eukMBFDi4hn3n8H3e2zx3ZSQsEaPq9nTy9kG1u6AMJqtdnesWjoCkuDiNtBw6YfT6v8MUx/9VLPRxd19/5jbFP+btKJCr+z3Mr1t8phGCuNFGVX3TXAZkjwkTKCtxAVwcgtZ2CXlFEpaCAahO96lvCpWvPf4sqXGQpMUJZAN10caLaGKkcQ9SLqKprCjNS7l6Jik5OV9ojZMrQSVGigmuerOxOB5gDt0pGnqD8c74BT4vvzG1PA9kjwrLEbQo/+4DPdukJQhiuTvBx3YZwFpR7zFkXBI3+uyB7jq0eosLpQUBUpZc8Z54n7l3WQ1T8X8fGG9KYXbyuKjTOrzKiwnmMFOZvh6ZOPYg+IiD4SbXtgvTt0eN/l6gqXgaPatvRdf97QR6Dih5vGd5p+K7PiCy8rPNTuxoN3f5GQPRQfvTcrm0cI2W+9aDikrsOCNDazbtLcnyU92Wvw6BZl74LgiP3MNO39E0Qg1tpnPfgqZckiz4qX260skEKLq+qtKQ499gENr3rkvj8YmQrqagR9mJkmA5xS/MyE9cMYrJGrwldG/SwIPeQAwtkjtpHmDOUdVJpRMXPubhybTS60lyaqPjZ4SOZAGt0ZA6uL1eTsMiUroTGkiIqZWUGtbsOL23bQCbI7LPuOclSq3Ye1GeQGhHVpFFzNq8PPpXw9svH5POrRvUeue7ubzFm1Gd/05xXmKjgmsfLu9IB5qBA0UNCUOEF382PuXDF7dkmNJA9ap+om8f/edgnMLXOWE9V/JKJOwRLq6C/p1z1QdBw0llJtU+gA3miYtqti05MTEy8f/f6ia2TzQ3rLJQSXr0uUfHLspKOLLDqaD5+c8wPTA+EwJwGTzURUfGzj012CHyHMVbF7QKh4/8qUVWnrOvD0hkdIe5AoA8EgvpTr8EwQuZGTItVzySPkiE9WVb7uXfqXSAFQ3no+CjSfmOSlFBz4cmik+PZAK29eIaa92HbQKauy0nh02k1D5eamS1KwMwg8j4Ezdsh6gpVXZzMrvvYoAzThXdF/KQbWSyPKYNhqPj99ZNX3hTKslLh35REVNDvKL81N9F3viAPu+Bn/fgZobZMgDXmQC6eqB4u7UyntZkbq6ATFFEpKKC6Rof+Xp3RkaFntVm4jFVd7WyMXepCVHDRFV/vCz/Ek2L8X4fH6usPCX5PsppsjO/k4yhOVDD3kQ/yYN/gQCEVFV3y2/QI4fOK6FntaKDW6IhsFB+hnCM+ga/qAFVlrLdbyBehPFDBuUmGIKjvelpY0xF6Qp6oGL08toaEhIQEbVu/aEIvAy3ZRMWw+G/jVmTbvGqeQzcdbfOpR9OU8cBG0xBVyZ35FmMP/sK2ACpuFwgT5x8lqoromW1ozCG7MOsGuT8enD2bmMmFeenBNkxa27mx2F4rMoHE7Lk6hVBE9GT19WkGIEBrPYvsKkyo4Okh/8CLaWJKKzzuzGIO2CqcZ+d/3T1Ui2U6xif8enJ6Pgp3tTlfs0Q5nJCoZJkutJx7y8uIZjTtmviu9XuknF+UQlTQn6urVl8XryaoQ1Tfdg4hGqNKXGxKR0YNFfSEIioFBVTP6FDuVc8u+paLotVlwESpMqkNUUl7Bf2KGMWkGU+9gl0tJB2oqY6VQFQwF+m4gUyr7Z8QLiq+vGrTA0FfvPzWzLY0UGvMfuTNU9DvYz5bMUuXhB6WRy9wkzyhB8NFlzhGNFBv/HHMUj9pMcgTFfYBdyjn0IRp5Gf9qr5fWdhb28hqzX2Z42XSthEdNwVR8TPDRxkO2/0dN/bJV227QOQr/G8SFbpgDdSbclUyCiVRp/IyRxektRu9JHC7ZAtc6W7de+RWGUTF/xpqxwQB5ijBq9Mk18Pvcd/cjhP0WdDzvNLM5KuR/it8Vm30Xze5J251dUVqmIspCwQAAKRpm1g6rzj9TjwlCBMSlSzThWYgRMW0WPO8Tl8Jb6byjpRAVFDejTWrrmDGn6SJCvpzyIEFMEeEY5RF3tuCPBNMN1uepKA3FFEpKKA6Rq9MDRltZrsm/g+uDlZHSxtnk9oSFVx1maMDyrE8onH+k4ulDKKCqxMXd6KDTOugzzy45OqqDQmiZqXshmcbGqjtcDAHgnJPLN9St9YtuzGzu8VwJ2fJNqZfOyYI6o47Uv/SpcYRFVzzcJXPRdE6KqgwOuy4+HVZdWf9EPlKLnsY0ehdlz4QdePJaVonVBMQFfIaVFad+SEVtwt1HEVO/KNE9WyVOQM0mH5DlPWx2lQgq5wJXtuGDUO0z/scZMMCQf1JZ2UsTed92blkpyAjQ2WvD0y3bNfzv9D4zApkrBKZBpR6Xg2qyHoSFRHg44m+6RbUGewvevAbT1RQDbcWgmESpqNE1WcD5r1NRL4o8ZziRFWZsGz0lB3Hjku2wyuG6dF07JYdPn785NWX+RCMrsPErGUQ2F99bao+yLQNzVDQHYqoFBRQ7aLXfj8zzW7i3lel2DkCtbNSIYPUg6gqX4VPd3TbGIsdcam+OcMQRJ6ulDxMo5CnikRWClHB1fe9TRGkCv5SdGP1hvuSlRpl16cb00Btx0O/ck8t939WZ6Kz5OrsyeHYpwERjrk6rbUQw+rxrJFEBfOqq8Ud6ZpE34WnxKNPxESFDjwAjB5+z8TR6rFI9mnVExW6HJJpHSSaPRXZo9p2QXQX3P9/k6igvGNOOiDLfj9+JbNAGd5b/77MxnShoMLrnh1oNCOX40SXRS8O5Rzx3vAYKVhQ4Q2vDgwDh4iv4txadEJIVFDZj8y/1a/2747HPPvH/XHDu49O2zl3BBSIIyrex1DfA9l8mITpGkhUNT+Sb17DblePzOvDBHVHro+6du36vbQiCOZn7xvJonde+hBbZ0E5kfYszEI1XMaX54AiKnnUUvuw0N+7vq6zT6dLZvVrHgVujVN7u+UzUC2ICv22ivTrjCouTNIClVEu5ROEMLRyiAquikfe6Mm02bzbb308dkSnFMUjHcftocs2P8VWTqg1xVEzOQdwH6NBTpfd9EImC+0j6/widKGxRIVRgPc5eOpaiUHERIVyCgBqjZf5+DrmqvXsqpyooJwDY9gga9xR6S9kqLZdIHT33yQqGPpzbnJrutGks7gk4Odc8N8Hw7zPoXbazF5rX+BKAPT3sv+e14Qiik9CuTdmd2PSu8wRPJImPi/aKXu0cUGE4InBsovuuiDL+bhkPAudNkTHqGpTNvmezbu7wHLmTdEgLXIFKPegg9HkC4JTyPgLw8wnCbWx9vVW3xPIWkYZpgtt0ECiEqkn/o8+wgHi3pnOzwwboa0zDvduYW7i4k7M9nNuK7xkjCIqsfSav1P+YuecZRe/Y8u24JEPzXcN54FaEBWUf2rKqCVnX/7FTK0Kun3tZyPPxjT7piSigivvzu9AA2n6PZbGYoEKhkuuTGlFA5kGlqsfSwhe4DZUcN7Tg2hyrzwGeUpQa2S4+LkpvE6KE1Vl8qoBLsckjR8xUfG/7rRjAgDDfHUK2u2Hyr6m1/m4Gt40wiOVE1XNfe+OdIJXvsOwStsFQmf/BaIqj+LogwDL4SBmJQ7M+37CrYN276X3xCOfUEH8qlm70hCZqt7uHNXa2HHfJ/GsIP/PnTULI4g/LoMTturjiWnm2ka2q2N/Yitt5JvgqfsXeh9LF55FvlNAYw4IeCcaoip/tnOmTWdWD7/kmuq41X63iu/ON9GzC0qTlMPKpBUDx+4XljLel2AbltbYw8hwOvT3nO9W4dty6zVdaGXlZY4eo7uvpHuCs14FB4rP+tUxip8RYsME9TiXMLwJFd317mFoL3l4Ey6N9+7a2iEiQ/yUUZ3rkD3RXESFvOObSTOeFY2vpMmarWC4lvhdv5qMY26dO/a3d5RsDvbDBpmZTr2iMHcrKLeyo6sFUcFwSfzqGUGvJAUVKr63qDuz3YTj+DXEyvae7PWURVRwZey89jRau9kx0vmoJApZjNRl2UNJRY4ax/97z6dvW9dT2PlQkdVlF9x1QZBlgyzMItgqrk0zAgEm/u2hUuEqLnsgjZ4TpssuDFGblxLh0U2724onkgaqKnqmMQ2oM8hTlbCoEx0A2Q4H0UVdldE+y29JpjSl7lj/ocqJquKiuzYIsN0vidtrsTGqbBfEN8HutGiiKk8InMpxH2/bvbWhgYGBURcrJ3fOlHXXRUv+qjOu+Dn27jt++a7j506Fb168KPDOL3EOLn9/eskYK/u5Ww+eO3802HfuwuAH2I4WVkPpfX7hqxM+Y7p2tJy4fOeZmAePE2+dDg9YNGPmhsvpmBSH/iZum9jLtN/U7Wdu3jwf5r92b8Lvr6fcO7ft7+q5OPJlBTduocUw7w0+3usjo+7E3Ynav8HLY+WVTBGAwVDJk8AxnXu6Bhw5sm3xqouYyfj6TC9P2Pbf+KHmrQ0MDNtb2ru5ewQ9wtgj7YWyjpVKVLVvDsxxdxs7qJORoYGhcY8hLpM5q6/8EnaAy1Mj3AeO8Ln0Nr+85HvCrkkDh/nFSBJUAX+amqh4n08u8eBwJtpbdjAyMDA07mbr7M7hTA1MkDRMCnhDNmrLIyp++q6h2siTHtIbcwDunddkFVLrcGpCVDBc9ip85qSFoZcSX759EXtwkZ2Z5fQDqWVqsoBNaUQFV9ye077dzFt1i2jxRU7rzksSMVVt7cvd7kMtTAwN9PV1DU0HeuwXvRIHhqE/N9dNdhjcpZWBgYGBvlEXK0dXTmAiSmn87+dXeHA8OG4OAzujPxu27z3CxZ3jwfEKwzxDWJsa4eXqNMqyHfJME6jdyXrcBFfh5jJuzPBB3VqxQBAAWWOPoJMan04s4rhPGGbRFmkiW5lZO7tzZuwWL/iC/sSuHdmRrWO94dGvrEc75m2415iBRZUTVfEZV20QNPK8hRFZUjhV1i5IboHZa9FEhfGz/l1+xe8PL1LeZhaJWQUTllf+K+3583fZpZhRa8zPsnb55VnPbp4+uDckeM/Bs7Fv86S6KMKo3IKvb1KSX33JE6F/TXFeQRVS3UDlf/4g9Q6/9Mebp4+T33wrlHQpxPfl/v2U8uRVZgmBeQqYLr68MnaUSlQNGlT189nVQ7uCQyPOxH8uFuNxg9FkB2hqopJtTVP92vKIqqmUU4v7qA1RIWqUZz66eGDnzoizt599Jaxom0sy5REVzP18OyZNVI1j/al4Fx0nWS2L/UUz9iu/PzgXERK0+9Sjn8SNWENuqJyo4IoP18Ijbn+t3zyVtAuEflNERSgLdVJpCjQtUSnNbOyFKKLCqkHta4QCakVUaquYEolKbX1sdsNUT1TN7qLEAIqoJFpQe6pQgCIqVajaBNekxqiaQGTV3YIiKjLaUkRFRiUFw1BEpaCA2OgA9kBqf9u2bUFBQVInqcMWpgBFVBqaoBRRaWjCCcymiIpM8lFERUYlBcNQRKWggNjoFFFh1fgX9ymi0tBUp4hKQxNOYDZFVGSSjyIqMiopGIYiKgUFxEaniAqrxr+4TxGVhqY6RVQamnACsymiIpN8FFGRUUnBMBRRKSggNjpFVFg1/sV9iqg0NNUpotLQhBOYTREVmeSjiIqMSgqGoYhKQQGx0SmiwqrxL+5TRKWhqU4RlYYmnMBsiqjIJB9FVGRUUjAMRVQKCoiNLouoIiMjDx48iA1N7bc8Bd6+fTtv3jyN9mvMmDH/+9//NNqFRhg/e/bstDT0EwKNiExFaW4Fzpw5ExIS0txWqPv9PTw8srOz1d1KDbfv2rVr/v7+Gu4EWfOdnJyqqoheS0b2Ag2Ek0VU1LN+DYjXIn6mxqg0NBmpMSoNTTiB2dQYFZnko8aoyKikYBhqjEpBAbHRKaLCqvEv7lNEpaGpThGVhiacwGyKqMgkH0VUZFRSMAxFVAoKiI2uJKKCir88uRdfd7t3/8HT1+l/CT/ngzVDQ/Z5hR9jj25Z4unu4jTO2c1rdURsOvoBLN7380Gn05X1UZWmFYMiqqbVW2l3o4hKaVI2x4UooiKjujoRFS8t0NZiaSLxjFFt7vvHT5JTnr8Qbs9Tnj19nJpdSdgy3ruXkJTy9ltB/V9lIaON0sJQRKU0KWFYSUTF/510Mmxn4DIHUwYI0E3H+oWGhYeHh4ftDgrwm+3Yq4PZyIWRyWS/ZAzDMP/npTmWHXu6H1EbTIEKnobN6N+mvd3CvdFvciv5cE3x9xfRYUs48yKfv9k/1tjcN5now4NKTCoVXUo5RAUVXVniwPEJOXUr4enL1y+fxF0+uGUBZ/WNfNwXV6sybgUtXeCzYfP65QsWrDv5uhj3a6MdbLav0PByE7dPdgl82Swp31KJqvJrTLA3x3X82FG2NvYevpGJ2S2lQ4bL4OpCVORKLs70JjxQI6Kqfb2xD4PWfm4s+l1kaQ2qP92K2BMSsHBYOzoA0IwGe20K3rMv6nXJ/8O3jI6+wXv27tkVsiPAb/Z4qx49bKYEXPnU3J+lVi1RQWUfr+xY7bfad/nSRfPnrdgbn1kpLZ6K2gXp26DHmvUVGm7cfBMawJ54Fv+Fb+63k+4d6Wzzudd/E3wymMjvmsTFpnSA1srzZh31iYKr+hwvK2qOhY5On0XROdIDUeWpoWPbsUF6d2URFVR0e8+RD9K3UZ2HSiKq3IMOLECygUyTkRvicrHJXfU61N7cPiRVUCHxfl6eZdl38W08cjXOzaYmKt7nGyH+ft5eHOd+xjS66aIEgm9kN84TeWK1SKKqeBni7r45NgsdCOD+jFs3xIjRamjAYyWxtzz6qjis2hBVwyVXxUrIurz6EFXti7UWDACgtZsVjW/dcOZX3/Q0AgG284ki3GlY3DKWYc9XpO1zakPX67fszh/l9C2xFye/r0KigkqSts5aefGzEBqhso9n59mN2PwEI4Pq2gVCBTSMqO4t7EAD2G7npPNc7ZtNlgyA1mHObYyUhA4LT0LF72+euvJSjmEtWVdT7LfKF1tt9Gg6Q0I/EY5F8DP3O+gzlEZUvLdbJ69pwvEupRHVxCHTfb29PP7jeC7atD/mYzGWpmC49kOwrYHlxtcSCaH8M25GnedEFylcmTQ1UUH5n1NeZ+Rz+TmRo1kUUSlWurCxeR+CJsy5WoDJEPyvu4dpgYzuPg/VomuFNVbBfTUiKtklV0E/FYuuNkRV82yt87QZdmyQ1sbzZv2NGDdmZisawHY5VYL3m1tPyyjgNJrJjOuKV4P4O8pxpDqi4r3b6jD3Jp4GKh8s7TU6LFPYPKiyXSCUoIUQFVx80oUNAPROSx40S3+eUFtyJ/kZe4brgPRO3vGEo73IRcpjZndU1qwfPzNsdB8/DSSqQx4LYupfF1D9aJkZs8PCe9gQ/O+7hjJ1nY7+xrSg5NJEKlRTE5Xo9hBFVCIplPKfnx5so2No5hD0QrJWhf9991AmQOvgfU8pt1Cfi6gPUckuuc2rmLoQVc3jVRM2vfgeaa8F0lpPu1panyryEhVcesaVDQI0kwXx2Kqxvsur5rzKiAr6FWHfYcZ1zIBTlwAAIABJREFUPIBCfw46mnnfF3CAStsFQrVaCFFBBcecWADAsFjzXDJIQeiwup2sebyiKx2gmcyNldTydWwsi5oyUCkUxM+9NrMLU2njXXUMJTihrDEqmfVybeomSwazX8A73Gxm+YXJ2qChx2V8H4bAxgZOUUTVgEAa8jPv03YrJghqjzuCmQQpOzuRDQBs1zMa4gRZMymiIqOUmhAV9+HKCQFvaqGcQ446IK2VR1RxPcbLS1TQ38OOSMNouelN8zWMqiOq/OPO2ixzzzOfMSPMJdFzejofzkG70aptFwjTqIUQVVXC4s50UGvwVnG+qfhyLXDpohVrNmxcv8Z3sffqQ8l5otaWnxXl6+48Zph1f9s1ieIhrYqPF7eu3hS0Jzx87+7du0ICFzm4hHwWRYFlXK72zYE5buNGD7HqPzboNTc/5eSOzQFbNy+f7jZlfRQ2pQn1r325rhcDANnOJwpljKTwc24fvfVDNM0F5T87tnXdpq2BARv95rpzVp3/gIP0ehzh/7izfe7ITlogQNPv7eTphWxzQx9IekO83KTwpZ7z/Pw3r/OZ6ea+/MSbEtSkikdBU1wcRtoOHDD7fF7hi2P+q5d6OLquv0NyzZoyiaq6pjAj5e6VqOjkdPxzLOUX3XVA5ogwsUao2OjiAmb/Le8JpSd/kiIq8lqpd8iqbwmXrj3/LS70MIxSFkA3XZyo3pbLbZ16EVW9JVduv5QbQT2IqjrBx3Xbex4MQ7nHnHVB0Oi/C/VM0slJVPxfx8Yb0phdvK4qPFCvgO4qIyoY+nP+vzY0ANSz4IQ++F0Lw/zc6EUjJ4S9Ez5sotp2gVCSlkBU3B/RywboaveYdvKLYGQTKnq4wbb7uD3vRIMTvN+3Fva1mHLmm4DT+VXFv9+EORnRW80UTSSVxnkPnnpJssKi8uVGK5utaShRNXS52oqCny9CxugzunvvDd9yXPCEGVR0c2YHdq+1KZjamyAFKi6564AArd28u2QHZXlf9joMmnXpu9DV/Oi5ZvqWvgkC+oHh+h3hVZWWFOcem8Cmd10Sn1+MbCUVNUKO42Wdn9rVaOj2NwLYh/Kj53Zt4xiJPAoJcUvzMhPXDGKyRq8JXRv0sCD3kAMLZI7a91OEeAR+SU4pjagmjZqzeX3wqYS3Xz4mn181qvfIdXdFUMfPDh/JBFijIwU9E9HNaxIWmdKV0FhSRCVStMX956VtG8gEmX3WPSdb/jRFAjUiKhklt7nVVAuiqopfMnHHR0Fb8/eUqz4IGk46K2mLsBqRJyp+WVbSkQVWHc3Hb475IbsRwt5AFfuqIyoY5v++vdLaiAYCIMPYevp8L8/1l7+IB6xU3C4QaqWJRMUwc5i3SLAtnOM1/b8JLpzFITfEz4hCxTFzO7EHbhPgkNBrqODCf630h+/+Ihp1qn25zoIpJqqah0vNzBYlYCbeeB+C5u1ALkHycs9WmTN1O3uel8wnFJ0Yz2YO3CbzsTooDx2URVp9spm+6OR4NkBrL54X533YNpCp63JS8FCbDEdQJaouTmbXfW4Q6coYMS1WPZM8R4703Vnt594RLu5CnjGhG1ksjylDFHl//eSVN7IG1TB5TTlEBRdd8fW+8EOUejD/1+Gx+vpDgt+jsvEzQm2ZAGvMgVzcQF/Nw6Wd6bQ2c2Mx5jRmlyKqxqimAXGgv1dndGToWW1OFvW9NMBokiaqC1HJLrkknVFZMHUgqspYb7cQUcMEFZybZAiC+q6n/+LqMqECsomKYfHfxq3ItnnVPIduOtrmU4+mifFCZRo2eGFVEhUMw1Bh/NK+htpMEABAduexm2IyRc2YitsFQsc1kajqjEXgPIN+HXDQppsukkIU/o+wEUy6mU+SkFxqX63vJSEq/tfdQ7VYpmN8wq8np+ejCVKb8zWrEobJXi5ldU8Ga8x+zOBqddR/Wozuvk9lolL19WkGIEBrPUs0WIbzhegAKnh6yD/wYpp4HXvhcWcWc8BWZNAYhut3RHAtQqLipQfbMGlt58Zi++nIlBmz5+oUwbAe95aXEc1o2jXxXYlMIzynJKKSvjb0K2IUk2Y89Qqy4oD/becQojEq5B0ZyPifdGQ5jymiklMwzQgO5V717KJvuShaNNSpGWaTtFJtiEraXlzJlf6xqY/VgKjKoxe47cqQjPcXXeIY0UC98cclnXOJKrKJCvcUfNX3Kwt7axtZrblPPNwluaiq91RJVOXvj850mLbvRUFh6nFva2MGCID0Ng5h79E2XMXtAqFuLY+oqm9MNwQZfTamSq3EKzvjygaYNsHpgryLJyoYrkgNczFlgQAAgDRtE0vnFaffoRNpZC+HEBXb/SJmlKs6iqNN77risUyi4n8NtWOCAHNUxC+iLokozbhvbsdlSwodzCvNTL4a6b/CZ9VG/3WTe2IXZdfniOBShERVeZmjC9LajV4SuF2yBa50t+49ciuGqJiNWvevIqKCqy5zdEDhdCn055ADC2COCMdqBMPoI8V0s+VJIhkb+Z8iqkYKp87RKlNDRpvZron/gylW6myvvLapLVHhSq68Xik7fPMTVdmNmd0thjs5S7Yx/doxQVB33BFM91zktxxEBcNwyWUPIxq969IHzTtQpTKi4v88xzEfGZImGgng/Una/V8PLRDUtgtF1kCruF0QJQruf8sjqvLzk7SIiKr8nBsbYPb1fyuYOZImKmT0sCLrSVREgI+n86AOWiCoM9j/RRVM9nICorokGm+EYZgUUcG8z0E2LBDUn3RWxiwa78vOJTuFy+ShstcHplu26/lfaHxmBUJhyDQg/jE3QkcEyY4nKqiGWwvBcAWyrpthsU7Gu7mRMSpmnw2Y1z3hspGMA2UQVeWr8OmObhtjsb226pszDEHkGS1kbT1a0TAHBeKnWKuvTdUHmbahGTLMI/MTRVRkVNKkMLXfz0yzm7j3VamsbowmOVTXVvUgqgZLbl3Dm/RMsxNVydXZk8NFL08Sul5ydVprGqjtcBC/LBT5VT6iQh91Axg9/J5JDS80qcawqoiq9sXaXqbS75iH8hP9BmoLh05U2y4QqtjyiAp9pxm909KH+LEh9N0+oP6kc8KHKPBEVftq/+54zBNz3B83vPvotJ1zp5rs5RpLVDBUeN2zA41m5HK8bvkRJhmUc8R7g2CsCyq84dWBYeAQ8VVcRtD1WsiLA6CyH5k5KfU5IrgWjqh4H0N9D2TzYd5b/75M2avjm5Wo0O8zSL9TpeLCJC1QtJ6Mn71vJIveGZ/oUE6kPUsUgjD3kzxJERVJoTQjGPT3rq/r7NPpop4tDNc8CtwapxnGk7ZSLYiq4ZJL2h/VBGxuoiqOmsk5UOcRn7KbXm1poJZ9ZJ1f5CMq9LkLANQaL/NJctUoi7mqqoiq+KSL3vC9WXUGmcuuTDHujY4PqLZdwLgo2W15RAXXvts2iM202/kVpzSSSRkm08UvTMYTFffuAsuZuHevQrkHHYwmXygne7lGExXyyOyN2d2Y9C5zook/mVL2aOOCCOEHCMsuuuuCLOfjkgEtdN4QHaOqTdnke+JyvY6giY4M2zBEq8lqX2/1PYEsgOR9DrXTZvZa+wJHodDfy/57hKNSzUpUUP6pKaOWnMW94V5Age1nI0vlkZVUmWEjtHXGHcWOYnETF3ditp9zW/61X5Lyge5RRCUliCYflr/YOWfZxe/YnC54CkWTnSKwXS2IikTJJTC9CU81L1FBBec9PYgm98pjZpvQQK2R4dK4IB9R8b/utGMCAMNcuBwWKvuaXuc7Z6pXW1VExb230NR85RNsUUadqbjh2X2K4JVeKm0XCJXTLKKqip5pTAOYQ3Z+w9GStGflLwKHtjKbeUOyRKLidaCdUdcZUb/E8WqeruzGMJh2TbDwiXt3vomeXZB4QhaGK5NWDBy7H83QpC73aFkXOv7jAKWnJ7DJPsRX9fHENHNtI9vVsT/x+QMqTd2/0PtYuuhs9b2FHWnMAQHvRENU5c92zrTpzOrhl1xTHbfa78oNGY7AMMz7EmzD0hp7GCEP6O85363Ct6dXvd05qrWx475P4mlL/p87axZGiD6MU3mZo9fgMnvpdECPlTHrB5fEr54R9EryQBZUfG9Rd2a7Cce/ixIUKrrr3cPQPkJSBZXGe3dt7RCRIX4+kNA8Miebi6iQd3wzacazoptlGURL/K5fTcYxt84d+9s7SjYH+2GDzEynXlGYu8nkpCYMoxZEBZMouU2oSd1bNSdR8f/e8+nb1vUUthcosrDsgrsuCLJsgiSvRER/Ko/i6IMAy+Eg/qlmWNAyssYdxXfKqxIWdaIDINvhILomqzLaZ/ktzFJf0d1U/F9VRAVz32yz7uS0X/jSJKEX1R/2ujoGvhY2ZKpsFwhl0xCi4n06sYjjPmGYRVtDAwMDo06Dxk76b0pggqSJlXIOKn17YpHjyAkLN4WdOL0/YI7DKM62uJ9CCqlNjZw1cUzf9gb6+sY9h03wPpXO48YttBjmvcHHe31k1J24O1H7N3h5rLySKcIW2Zd7Fe7pOrqPiYGBQatuts7um27nF8UF/Dd+SPfWBgYG7XqNdJm2R7i+W8pK3CG/8NUJnzFdO1pOXL7zTMyDx4m3TocHLJoxc8PldDHlIIu9/iZum9jLtN/U7Wdu3jwf5r92b8Lvr6fcO7ft7+q5OPJlkWxHYBgqeRI4pnNP14AjR7YtXnURM4Nf/v70kjFW9nO3Hjx3/miw79yFwQ/Qzx6WJ2z7b/xQ89YGBobtLe3d3D2CHmENwjlBcKAUooLhslfhMyctDL2U+PLti9iDi+zMLKcfSMV/VL08NcJ94AifS2/zy0u+J+yaNHCYX8wvxXkKhpuaqHifTy7x4HAm2lt2MDIwMDRGchWHM1VGfifQXeFTLY+o+Om7hmojD59Ib8wBWwSPyiosmvpcQE2IilTJbT7Vmomoal/udh9qYWJooK+va2g60GO/5FU/0J+b6yY7DO7SysDAwEDfqIuVoysnMBEuTwicynEfb9u9NdoCdrFycudMWXf9dy2uZWxlZu3szpmx+5moBw79iV07siNbx3rDo19Zj3bM23APs7alqWRXGVEhr6OK2+TYz3bmjrN3k9+kPrlzaussF45/HO7pXZW1C4T6aQhREdre8Ele2a8Pr958L5SsmKgnDlT+5w/SPPNLf7x5+jj5zbdCUZbERiB9OWwk+fb55VnPbp4+uDckeM/Bs7Fv8+qxnFvw9U1K8qsveaIOR01xXkEVMu5EyhHu308pT15llogGeDA28sp/pT1//i67lOA3TDDyu0oiKuSG5ZmPLh7YuTPi7O1nX4tEtIu3pOrns6uHdgWHRpyJ/1ysDJpCLt/URIV3qbmOWh5RNZeSzXJftSEqxHsSJbdZRIKbiaia1tnK7w/ORYQE7T716Gc97Ylq7VEhUaGGV+e+vXflxL5dYcevJrz9LWoScT6ppF3A3UF00LKJSuQl9b/5FFAiUTWXExRRNZfy1H0brYBaEVWjvVB1xH+CqFQtYkPXVzVRNXT/Jv2dIqomlfsfvBlFVBqa6NQYlYYmnMBsiqjIJB9FVGRUUjAMRVQKCoiNDmAPpPa3bdsWFBQkdZI6bGEKUESloQlKEZWGJpzAbIqoyCQfRVRkVFIwDEVUCgqIjU4RFVaNf3GfIioNTXWKqDQ04QRmU0RFJvkooiKjkoJhKKJSUEBsdIqosGr8i/sUUWloqlNEpaEJJzCbIioyyUcRFRmVFAxDEZWCAmKjU0SFVeNf3KeISkNTnSIqDU04gdkUUZFJPoqoyKikYBiKqBQUEBudIiqsGv/iPkVUGprqFFFpaMIJzKaIikzyUURFRiUFw1BEpaCA2OiyiCoiIuLAgQPY0NR+y1PgzZs3s2fP1mi/Ro4c+b///U+jXWiE8V5eXmlpaY2ISEVRBwVOnz5NPffTYEK4u7tnZ2c3GIwKoIgC165d27RpkyJX0KC4Dg4OVVWE78RSjhOyiIp61k85Gqv3VagxKvVOn3qto8ao6pVGE36gxqjIpBI1RkVGJQXDUGNUCgqIjU4RFVaNf3GfIioNTXWKqDQ04QRmU0RFJvkooiKjkoJhKKJSUEBs9CYmKl7hh9ijW5Z4urs4jXN281q17056KQTDMD/7cvDJT2S/SgLlv7975dzxA2Ghu26k1xcJKvmSeO38yUP7dgafT5X1KVuo+MuTe/EE272EpJeffpYQf04FK6JG71NEpaHJRxGVhiacwGyKqMgkn0JEBZVmvXn5oqHt1ddCpAki3nhpgbYWSxOJZ4kIW4579xKSUt5+K6jzPRleaW5WJokt62ch8l1WqPDLsyfJz1KeC+1/npL85PGHPH49v6T9afxnySiiIk78Rp1tOqKCCp7undG/jYnt/N03U3Mq+HBtSdarWztnjpu6N/ntEZe2XX2SiL7VR+QV/8f9gztWju3MoLWaGVMn5wpjQHlPToasd7fQAllOxwrqLzMw/3fSybCdgcscTBkgQDcd6xcaFo5sYTsD1y9yt+naub/b+qhPdT76zP95aY5lx57uR+plOiLT1e+c0oiq8mtMsDfHdfzYUbY29h6+kYnZdT7YXJVxK2jpAp8Nm9cvX7Bg3cnXxTKSRQ6lmu0rNLzcxO2TXQJfNgt0t1SiIpGP5Mgbahu02YlKVuZVUUGVPzEUIire15vBG9cu8xjUigYAtDZ2s9Zs2izYNm1Ys9J7hvOgDlogwBod8au+eqj29cY+DFr7ubEVRKZLtRyOvsF79u7ZFbIjwG/2eKsePWymBFz5JP5YPO/9lgFMkGnc297dc5734iVLvKfZmtABgGbYd+L8xUsWey+Y5TFusKk2jWY8+zYXhvk/Eo7s3bnVewQayMh65uaQPZF3MnjI8EPC0b07ty4a2R6JbjTYa1PInoiYL42vhFRLVCTKc1NmtxbyFRpe1qXZFjo6fRbdypEaU4JKX4c6tWeDdDPyRIXm7tpnq8yZMogKDcTPCLFhNkBUwrLCjZtvQgPYE89KsVNl+uXFA/X1LL2vZ+PybE3iYlM6QGvleVPWABhRQVSvc8ohqoqXIe7um2Oz0M4c92fcuiFGjFZDAx5jmKnqdai9uX1IqqBy4v28PMuy7+Lb+fVVZnKo1NRExft8I8Tfz9uL49zPmEY3XZRAtisgh08NB22RREUiHzWsjEaEaC6iajjzqq6gyp8wChGV8HbVN2cYgQB7/MniOvev+nzEzbSnXzKuZpeEqn2x1oIBALR2s6KlWgVJGBgWtxxl2LMVafuc2tD1+i278wet4moSF/cYtDqpSFLfcW/Pak0DWGP2/5acq/oUMa7DhFMSS6tveSLGO58owl4c2edGexnRAJbj4TxJdOkw5I5VSFQkynMTZ7cWQVSVL7ZY69F0hoZ+Isy5/B+Hxxky5CaqV+t7NUxUmbuHkiWqews70AC227m6ZYf/+8qMTgztwZufY+EJKn5/89SVl38bP9pKLr+rOJQyiIr3IWjCnKvYgUD+193DtEBGd5+HQslqPwTbGlhufC3JAVD+GTejznOiMXVMI11taqKC8j+nvM7I5/JzIkezKKJqZKoRRCORjwhiaeap5iKqhjKvKguq/CmlDKLixsxsRQPYLqdKCO7PzwxzmhFFOAQF1zxb6zxthh0bpLXxvInDJdyFuPW0HAIeo5nMuI5UcZVRXu5HBXAljM2NnduWBrAcDuHOVsUtdt+VIW5U6jeee3s2AmRjjyrcKVUZUZEoz02e3VoAUfHSdw3TAemdvOOJ8y0Mw5XxCzt1k3eMqumICob5WRH2OiDbKjBNaogNV7Q08kAJRMVPD7bRMTRzCHohWW/A/757KBOgdfC+h07LVj9aZsbssFBwINSJ/33XUKau01FMF61xCjY1UYmshCiiEkmhlP+y85FSbqE+F2kuohIpUE/mlVlQRXGb7r/KiQqufb1l3m4JwWBcq3m8asKmF98j7bVAWutpV0sxP+F26yMquPSMKxsEaCYL4rkw9Ovg4gD88gBiooLyji7eIBk002Sikl2eVd8u4FJJdKD5RFWTtLwrHaCZzI2VNLci78T/K2/OHLSc9DoqNFptUxIVzP8ZOZoN0jsujJfhhdgd3E5N6d+CCnGfA/eT8KDhEESxlHROCUTF+7TdigmC2uOOYHpbZWcnsgGA7XoGqYlqUzdZMpj9At7hgLT8wmRt0NDjct1RQfl8o4hKPr3UNbTsfKSuVjfSLvUkKtkFtZGuKhBNRURV+yIkMEY4el5+Z8fuF5Khc7Gx3IcrJwS8qYVyDjnqgLRWHlGSqThxGHSnPqKC/h52ZAEAw3LTm1qY92Gv/1n8/BwxUcHchIAASc9Tk4lKdnlWfbuATybhkcYTVe3LdRYMAGSPP1FI6KDgJPQn7viNTDx2VHy5Frh00Yo1GzauX+O72Hv1oeQ8bHtMTFTlGTF71/qt37otYP2aNYFnXqTuUsKsH2JjTZKPGR2gmy1/jCya4WdF+bo7jxlm3d92TSJmFQ0vNynSd8GS1Wv9Fs3x3hb1OOFk4Hr/gFlWZh4XhKVJVghUC15uUvhSz3l+/pvX+cx0c19+4k0JOk9e8ShoiovDSNuBA2afzyt8ccx/9VIPR9f1d37LkJXMT0ogKhiu+pZw6drz31glEMoC6KaLUXnKL7rrgMwRYT9wSYwuQGD23/KejJ0ywlBEJUMcjfpJVj7SKEcaNlY9iUp2QW3YK2WHUBFRlV7ynHledkeuOsHHddt7HgxDucf+f3vnHdXEEvb/bJINgheIeq3YCyrWa++KBQRRCPYCKiBWRMSGAkpRFMR2VbAXrNgbeKyISlFfvaKiHAvIERVfBA7lQH7Jvvs7u2mbkJCEFBJ89g/YbKY8853ZzGdnnpm1q48gbJfjCvwTFBAVP3u/vSUdbT3zjIJBeAVEJS2hMRNVbfcL0koKPxk9UZWcdDZDaPQm864pWpQnr9zYrzur+7cfu/W5qNXzvl7w6GY9+fB78cNEVaLifT7j0a3l8KCHwtWw3M/xvo5dGzNU9ExXMBsuNI/3NrQvSiMcAb8TgMMvK/iaHjmOzaD4xmN58XM7sIeGvyLXuBU/9O3Ksppz4RdWmrLXP+oB4aOtJASO8z4em9KWPWhjuuD5Cftx0b3t36N3EMsJsYrCvKxEv94oa4Rf+MqQOz9z99iyEHT4dnn6qXFNK0RVJT/ey6BeKIJ29X9MVDv/c9QwlMYasSNHyomyMsHLikFAV5Xo6l0AolJPLyMKLd2OjMhwpaYaJFEpuVGVFkrrAbRHVOgA/4uJiYmJt66diw2c1NFSnsMsxfyyG94TNv1HPsJj3w86miOI5cQjVE9RSdiqRMUv+nhv7/w+LTrar7v0ifKYKYlDnKlBVGjfpScuyBxnA2wtEMP2o5IuL/FJ+n5W0tw07ReqZo/juLETFZZHjnyKxirklrHKRazgkntLk15BUk5L2M/jLg3Mh0S8EQ5UyRIV7/WWIeZmQ7ZmUodBKu8vbasdouJ/3DoYpdHQfqFvRRkQw28U33je8/U9UHT49i/C70nHRJOh2yRDb8pCEE81bNTa95Fk2wFi4JTVzP2KUKPy+BlsBtt6yaUiHMcKXpw7cDq9uqG/KsrKuaALosK+n5negvlXn3VJAiLmvwvvj9JYo3blShPVnYWtGPS/3a/KMUudS0BU6qhlRGFl25ERma7UVMMkqupvVKWF0noA7REVs7NrYFhYWFhI0Covh84W9aonqtKrnk5hoq4G+3l0oiWCmDseIp+mZQspICqmtcuaQOJY5zvXtp2Zaccp+15SFzLJxlKPqLq7Rf4rc+xcNPAvIyMq2ftZx/1CVcnrAFHh5eemWiA0uRtHcUt+/y4qKS0rJ46y0uLCXz8LSokdzLJ32ZoyrLyo02nEQMenyKGoZJMFGaIqu+HRgoEOipDwC6EnL31dN6Z2xqjIWSypRwIZC8h1riYOh0QrSkjHa0arhXfEDylKQvDehvZD6Y3dr1JH84iZMbTTCmHjqLgwk01nTz2r0MdfbiOq9qL2iQrLPTOjtbmN18WvIvbkv988UN4YFbEBBb3J3GvVGqj8SyAq5RoZYYiq7cgIC6HQZMMkqupvVIWF0dkX2iMq6lo/LGePw9TqZv2KL853oiy4w3+d5LDpyF/2MRRHUXGZq45R4WUfTnt0MWX38bslf1iLjKvGGBXVeFG+RrDWT2Sq4H/V+1nH/YJ09sJPxj5GhfMzNw9AERo6LOqzqH8VFo337uQqD/fZU+y6N2IgxA5svZzcQm7+xPDy89MsEWbXNWniGT5BjKLDjiaSQSJpnuE9C+iOIhbTzkmGd4hI2iOqSmI8hcbs6PtIbJW0BTg/a/sIM1QyssZ97NcJZTsdlrgjKglReopTH6E3GeEdvFFyBC9z7ttlWKBQM4KoUGu/x2IbhNc1+KdtoipNCxvRpr/fDeoevti3PbYsGjpUpg2QP0WMNkvuaWA+ERWISkMBDTG6vHZkiHbW1CaDJColN2pNy1rzeLohKrzyju/iEyKPEiz/YmRMBtVHt+j8rPbWQ8bZSY5R3ZugCFJ/7F45PlFyiArH8d+nXNl0RtuFtxUOVP1ZRCXvflbS3DTtF+Q2O6MnKpyXEdrPBEH+cjyoYN8M/ruw/iiN0dL7tnAwp/jYxHryiKr4qJMJDe0W8Ixs/NI8Q+z3yUTY0+N1RFT8LGLSj9Fu6X3JAJK0BcTE+PMNvU07zLvwlYvjZW9jOW1aOe19Ix6hIuq32hAlhPs209pfeo2tVLMgiarrasquTlJf1+SDVomK++Hw1AETtqWQrxaiWEP6V6K9g19Rf7fw8rNTzBG0f/g7SsianAJR1UQ1Q46jqB0Zss1q2maQRIVXf6OqWUQtBNcRUeG88nLxU2lloo/HQepY0u8zcyZFSU924L/PTG1IR0xtd0u7ghJFlE9U5KpJGrPDcskjuIwefxBRKbqfq29umvYLMnoLPho/UeFY/vkwAKpoAAAgAElEQVSZzRmIxdh/ZUepBEUkZ/Nokuk8nHRAYrSkTJeRAckNVBDziUcFSy6keQb7tm+sKVJla1ltjVFxXwX3ZdEtbHdS7zNpC3Ccnx27MjTx6alwv2Ur/FdviDiZ8kMKIJSF4D0L6IYSk2ASaJNtEwZNVNj3az6Ocw69lZhfeTc48DrBuPzP24expGZAiTdX5ewYyaI3I3Zr0ewAotJMPwOLraAdGZiVmppjmERV/Y2qaZnVj68roqJYwssInbLyIeXBtyBuFmeXyBtWHLAofmZjOlJv5I4q38gnKtIHm4bUs49V9NrAP4WoFNzPuu8XxHVHPakDRIXj2Ld4t3Yow2ra6VyZmT+iqLwXG3qgVKLCuc+DepugAzZLOZnjRJNmNp0m2ppbhmew3MNODZhWnrek9oviPvaz1tyPqvzVtlFsZhOH/e+lCEnGArzimucYcr0ttQKlzpWE4GWEDzBFO698Qrm9cRz7fipgqzAZAyaq4ieb3Rad+EA1nfcqZO4mwfICflbkUFOzsVKbBlckLmiJNnO7rLFTGBCVVCsz7g8K25FxF6uK9YZJVLhOb9QqIii9oHuiKk3y7Tl+v2T+BPt5bIarvMm94ktzmtKResOiPsp0YvKJinR3odGYHVckk6NhWFHmW+lXsP0ZRKXwfib7Uv03tzpBVDiOl70+MK2jqXkv77PvpZAHxwru+Axta2Um/Raa4ifBgxq0mXVe4oxTkho8gN12ely2qDlXPlzWjmnuelo8Tc3N3OfQrIHtdsk8G+/TsWltTBB08Fbq0JKCu7js4qxGdBrFs5wMxy98fWbVyObm7Tm7n8v2/KQFFlPPigrEz9o+skk3jt/GsLDwzRGR0bv2Hr2cmlNKWd6mNETZs83DGzYavf21ePKS/+2Kn0f0a6HRpac4fzHb+1CfqBQUR+XLWpn1q3y336lVix4jR0sO25GDe7exmnJaqBr265pnB8uR0ZKfo8Ibnm0b2kYT7/7U8KgtoiL2BEbpjWZfFLdBDQuiVvS6+F4/5e1ILYkMOXBtE5WixqvLG1X9+tAGUZWccjVHaKxxMVUGi7h5ydGu7UzbLX0gehDkf7+5uFtjx4PyPNCLjjvXRxBWvxApnyscF/QcrLEyr4MpS/BqyaAhJra7Sd+r0ouLl1wQdRWkECVnp7IRmpLeSWi87e4qFpWcmWyB0CiLy9VXVxhDZ2+hwZXfz3pvbnWFqIiZn/zUg0tt2zbpNMZzY8z5hIdJ964c3rx0uovHjic/P572nLhBwPLCWsYKn8V6jR7m4LE2MvbQzvVutsM5Qde/COa+uWk7Zk8Y1a2ZhYVFo46Dx7sEJwidDMsyTiwdM9jeM3hf3Mk9G/0WrdxzYKkNE2GwOw4Zv+x0jgjGpJse77/98yeMG9GjuQlCoyGmrfqNcyQPB/sxIwf16tbPccGWy5kyfabYAnPzRp0GO3geJHaMwkvf7p1oZdm8fadOHTu0b9uqGduEjtDNWo8LviuapVceAi9+cch7VJ+R7oG7jx7bF+rj7hF6m3x1YHFCkIv9oI4NLSwsm9mMdHJ2Dbkrxi7pAqn3SQtExX+7ZZApQqt6oD03EHvkCY/itGjnXkMXn3z2o/j3h4QtE3sNXn4pW/K1KJj6//VNVLyMA96uHM6EkTbN2RYWlo3a9bdz5nCmiJuh+iWoSYy6R1QqtqOaiGV4cWqLqFRovDq7UdWvBY2IipsWPdNx3HCbJizyl71l37EOgp92R8fxY0cN6d2uAQtBaAhrzF5iVwTu0wjnQdZNLS3MzetbWvVy3SnZvAf7Fu8/yfaf1g0sLCwszNmt+4x25AQn4rzXsV4cZ4fB1o0tLSwsGrTpa+fMmR7xSERn2LerK4e1MDHru/pu9se7m+auvkm8G5D/4dhSV44rx8m2VysyPctmXYaOd+a4cmZGUrdu56btdOc4jx/YoRGROJtMfOpm4lmam75rLvFNR8E3rfqMc+ZMCdWgN9AVUal4P+u3udUhohLcTljJ58cXj/wbGRa6eXvMuQcfflffpfKKsl+lpH/IV8fVhlf05cWTp//llmA4XvzpWcrzN1lffxZXUsaK1L+zlccoSQ4c1NVlXwaVvXglXx7tn9OlfusFCWU4rjyEJBdecfbLx4+ffy6UT4GSgBqfaYGo1LCh7MujM3u2hIZHH76RUVB91aueqr6JSnXLdBmy7hGVLtUyuLRri6hUFEInN6qKeVOCaURUlHRq7bT0w+2j0WEhEQfvflGnD9OrvboiKjUKob/mVueISg2VjSpo6dkpDeRva/D7yATz7gHPeMpD1EqB9UtUOikiEJVOZIVEdamAgROVLouuRtpGT1RqlLXWghoAUemv7EBU+tNao5y4qWu7NXaIEbt5iRMrSfLt2nTyqXxMeQhxHH2eAFHpU20t5gVjVFoUU/9JAVGpojkQlSoqaRgGiEpDAanRadQPMudBQUEhISEyF+GjIgXKXsW6DRwwedP59Jxiwt8Lq8h/d2ffYtu+9oGJgrcXKA+hKG0dXgei0qG4ukwaiEqX6uo8bSAqVSQGolJFJQ3DAFFpKCA1OhAVVQ2Nz/m/390+sTNsw+qV/v6r1gVvjb2Ylis9fa48hMZGqJcAEJV6ehlMaCAqg6mKmhgCRKWKakBUqqikYRggKg0FpEYHoqKq8SeeA1EZaa0DURlpxQnMBqJSpfqAqFRRScMwQFQaCkiNDkRFVeNPPAeiMtJaB6Iy0ooTmA1EpUr1AVGpopKGYYCoNBSQGh2IiqrGn3gORGWktQ5EZaQVJzAbiEqV6gOiUkUlDcMAUWkoIDV6dUS1devWqKgoamg4r3sKpKWlubi4GHW5unTp8n//939GXYQaGO/k5PQ///M/NYgIUQxBgdjY2A0bNhiCJYZsw6hRoz59+mTIFtYB206fPu3r61sHCqJKEXr16lVWJrV3vSqxVA9THVHBWj/VdTTekDBGZaR1B2NURlpxArNhjEqV6oMxKlVU0jAMjFFpKCA1OhAVVY0/8RyIykhrHYjKSCtOYDYQlSrVB0SlikoahgGi0lBAanRDJyqs4M2Dmzdkjps3E+4lP3v/U3pfAmqx1DvHfry4dvpozK7I8C3nyRf0qRfduEMDURlp/QFRGWnFCcwGolKl+vRAVFjhx/SnT5QcKe9+Eu8D4+a+uP8gKfmxKPTj5EcP76d9LlW7m1Ip0ycpmVVe7qyKaOqGAaJSV7Fqwhs6UfG/3jsQuTl4ka0VE6ExrEb7hG7dtnVL2Kb1y+fY9+nQod/k9adfF6n9xj7+l5NuNi06Oe8V8BP/063dm5aNacWkN5h1SVuYVo3oBvWV1oiqNPNSqCfH0X7M8P79Rrr67Ej8XOVNzmXvLoQsnL949bpVS+bP9z+QWqB2zcmVrtbeQsPLTdw4aXzwU8ELvOXapruLQFS601YPKQNRqSKyHoiKlxkfumblItfeDeg0Gv3vAbP91q4THGtWLveePaF/SzOEhg7emsXH8fLXF6K3hq33GNyEQaPR2f/MXBu6dXtc6u//p243pTjTtav9lnlOt+vdvB5CY42IztbOT2S1WuuAqBT+MmK/TnvbchaHHbyQ8PBp6tMH10/t3jCfs+L8D2o5ddRPkCLAW2hIGSquz2tKp5lMOEK8vVt8lLzcPu5vxl/dF135Rq0P8fcKTyoTF1gxaPQGM+Il7zXmPvLtiAJRKdSs+i9KnoY5O6+7+pF0+av4ct1/IJvZYND6+xRmKksNH9lxZFhaCZkS78up2TbdFlyWupOqz0Pht/omKl7G+bCA5Z4zOXbdG9EZVl4JorfNK7RQF18AUelCVb2lCUSlitR6ICqhGeXx09kIzcT+QIGsXRXvj05u227xXcldXh4/gwhrF/tLOqza3ZTiTPGyjL1OVp2WJ+nhaU17RKX8lxHL3W3LokkOBG06bPX1XGIAUHjorp8gMwCiImWouOnRnE4zcTpaLNJd8J/7ZKU1k0ZvOv3cL7WYCit4EX/w9NPvlIrkpqzqDEQlLa+qn3ivQhzczvykVAE/M2JwPYTZfvEdIbNyX4X2t7BZkyr5gcB+HHZit3K7qF7NyTNJ30SF/chITn33o4Kfs2MEC4hKXpXANWUKAFEpU4j4Xn9EVXFpVgM6zWT8wd9V7cKydztOPVoo/kJRWLW7KUUJkTnxsyLHTY8TPICKs9bFifaISvkvI5a7e8LAaT6eM11dODO81u689F8BpRPGcV32E6R2QFSkDIqaKl542NEEodGbzr+h6WwdEFWNb1b+29B+ZpZtbEOeSFal8j9EDEJp9OaeN8mKKb+7qA3a3EPwQZgR/8OWQWj9cfu+UkisRjbom6hERmJAVCIp4L+6CgBRqaKYYRAVznu5aV7ofzyRxYpASO1uSlFCgoy4qRvmRryTAg6RBVr9rz2iEpml+JcRy93jOl+xa021/YQodY3+A1GR8ilqqtj3f0ezaDSmzdp0yeBHzQRXlagqC7//LNF9K69ZIWoQSwt+VLzXG/ugCGI6di9l9rXoyAQTGs3E8TDxaMdNW2vDRLuvfy7+USIsLT4+yRSxdD0lM/CodiGAqNSWDCLUtgJAVKrUQK0SVfnT0+czBb9YZTdCwh+Jp/0UgZDa3ZSchLhPwoIvCQf2i69siniiacemXGbDIarq+wnlJVEhBBAVKZKCpsrP3m9vSUdbzzwjPc6B/Xi0P9B/bWDw+jXL3Z05vsdeUfyv+B/jfJztRg3u26O/X6L4JsHlERUv994On/neK1Yu93LzDIq7n3AgeFXA+tl92rgez07d7TZxHJFKz4WXBeNjvxOCJzuMGT7wnx62G4XOytz0XW5OY0cM7NNjTEhqxY/kA5vWrQ9ct2Sa0+RVcRkSHy4VGoLOgmiBqHC87H3CybOPv0rUxEnKojGsFpASF59wNkPQoZGfpFCUdDtAe2x4oWHhgKg0FBCi618BICpVNK9NosKyd7n53qP8pokNlgNC5HdqdlM4LiehwpMzZh3T9BlTbKlKJ/onqvLK/HfJ107HXUx6K7Viv/p+QqXCKAsEREUqVLWp8os+3ts7v0+LjvbrLn2SbvW8N9tse88++UHAOdiPi+5tzG18En6LJpf4ZQVf0yPHsRlSfuhViArLi5/bgT00/BW5ZK34oW9XltWcC7+w0pS9/lEPCipK8nNSQoebISbOJwWL2rCKwrz3V5fYoIy2S+8LTeKW/PzyJGyUObO957aoDTGC1W3Yr/hZzU06r0yWtltZW9DN91ohqiqm8V4G9UIRtKv/Y6IW+J+jhqE01ogdOaI6ICNUJnhZMQjoqhJdvQtAVOrpBaENQAEgKlUqodaICiv9fNN/oM0SDYmqmm6KKL6AqNAB/hcTExMTb107Fxs4qaNlFXdhVZTSIIyeiWricLd1q0IPJjx781/SMd/hXYb5X/sqeNJW0k9oUERJVCAqUgsBUTGtXdYEEsc637m27cxMO07Z91LOQM+vA/YmNHozsWsV71VQL7T++APUZWXcp/7W0n7oskTFe76+B4oO3/5FOKxCOsGbDN1GLKIVHZUPl7VjiImKvFp20qUehaiIa+QqwvqtZhyTzIn9irU3QXsFvZKaBBOlqt//uiAq7PuZ6S2Yf/VZlyR42OK/C++P0lijduVKE9Wdha0Y9L/dr2pYYiAqDQWE6PpXAIhKFc31TVSMpr3sHB0dx48Z0tPqLwajzeIaEJWK3RRRfAFRMTu7BoaFhYWFBK3ycuhsUa8uExX+67SP5/FP4o6Pn/3vGHPzgaEviNEFJf2EKg1GaRggKlKiqmNUeNmH0x5dTNl9/G5R15gRobGfD/cEBJ94KV4lkR9jx0J7Br4QVyMuZ45PlqjKL8xgIyYOh0RLP0g/akarhXcoA0vc5BUdmdJEVR7HMZUlquQVnZisUTspM5PlcS71mO19HlLSUtoUdBRA+0SF5Z6Z0drcxuui8MkDx/nvNw+UN0ZFbGJBbzL3moZFA6LSUECIrn8FgKhU0VzfREVZ68fLOerab2kNiEpqSbriboooftVZPyxnj8PUOjzrV6XSsezo4Si90ZTTBUr7iSpxa3IBiIpUTQ5R4Tj++5Qrm85ou/C2nIEqXmFW0pkdAUsX+64J8J/USdYtWpafqjIWP2v7CDO0V9BLIYdxH/t1QtlOh/MowyxcgpVUIyoT5xOShXC4HO6qSevQRhxtE1VpWtiINv39bnyjjOVh3/bYsmjo0KjPlIs4TtYqo82SexqWA4hKQwENJ3rR00PB5DC06E/w7tvfDMc8LVpiMEQlV3LKj5wWy6x+UrVIVDj2fb/HCk2JqvpuqipR4ZV3fBefEPlRYfkXI2MyKCMB6iuoQgx9zvpVNafsFMcMETxXK+knqsatwRUgKlI0+URFrgygMTssfyS1HgIrSt01zaZJJ5fwG1klxE8DMQ0os9BMOVHheMXzDb1NO8y78JWL42VvYzltWjntfSM1qqQWUQm9rcjy1FWi4n44PHXAhG0phTK/yOQvB9o7WHqas/zsFHME7R/+rgY3BjUKEBVVDWM+x/JOzP2nO/Xo7bwjw5hLpNB2QyEq+ZLruhNXKIvMF7VJVDjvU2r6d5lfMtI+OSAkuC5320QF3RQRQ15CvPJycXdWmejjcVB2DkZGIs0/6o+oSlOipo12WnNV4v+C4+Xx0y0RYlG4SA+F/YTmJcVxHIiKlFE+UZHuzzSknn0s5fVHWP75mc2ZFrbRmeJ2SXotEUv3saJPWd/JHwsViIqfHbsyNPHpqXC/ZSv8V2+IOJnyQ/Z3hvvYz1pmjKrkmJOJvFk/pSNZWmkuNUhEe2NU2PdrPo5zDr0VrAggTKm8Gxx4nXDb53/ePowlM2WKYzk7RrIo/m41MF4QBYiqxtJBxNpSwFCIqrbKr1q+tUpUCk2UB0JEYDW6KUHaihIS5szLCJ2yUveuIXojKm7qmq7EhtxiF2einCXHJ9ZDiG5AaT8hVEWzf0BUpH7ymyo/c/MAlEZjdlyRTNITVpT5Nud/TzjXR1h2MRLI4meGD0DJMSpu8lqfI6RjlApEVXHNc0wQ1feqak3yXmzoiZpMOi6ZdeQ9C+hOXetHxFFtJKtq6vq5oi2iKn6y2W3RiQ/UMTzeq5C5mwSzpvysyKGmZmP3UR9OKhIXtESbuV0W+7vVtMBAVDVVDuLVmgJAVKpIXxeISm43JXg4r56oSpN8e47fT11QpYpk6ofRG1FhPw5OHu59ROpdJbxnAd1QerM5l8gNjnTaT5DKAFGRMpRdnNWITmON3SfdvMoSvFoyaIiJ7W7S67v04uIlF37d9GhBR3uufy4aoip+tHlWv1asDsuTKsuvr1h+gXRnIlbpMS2mnpX4NpFXzF1Pi+mIn7V9ZJNuHL+NYWHhmyMio3ftPXo5NadUahS46Ny0RqxBER+E7kFY/o0gRxs2o4n7FUnCeOXdRa0ZFJdHHMcLDzmYiPZqUv8O0GoMrRBV5bv9Tq1a9Bg5WnLYjhzcu43VlNNCXsJ+XfPsYDky+qPYk6rwhmfbhrbR72QH/tQvXW0RFbFXPEpvNPuiuM2ob3vNY8B7/WqunQHEBKJSpRL0R1Qlp1zNEZr0AiJFFhbHcYiwtrul1y7janRTgv5BmOk4yvO/ME9uXnK0azvTdksfUJ9RFRmk2XXtE5XCX8bfN1ZMD0kRuYnhOFZw06s92sQhRtyF6rCfIFX604mK9zrWi+PsMNi6saWFhUWDNn3tnDnTI8S712Lfrq4c1sLErO/qu9kf726au/pmEY59Twya0Nmq+5SNh+Pjj0UGrNyW8DXzoHOrxj0cZyzY8bSEm7Zj9oRR3ZpZmJs36jTYwfPg23LRFQuLRh0Hj3cJTiCrvPTt3olWls3bd+rUsUP7tq2asU3oCN2s9bjgu5KZbW7m0Tk9bRzWHYi/fDYmbIVv9N0zHi3oiEnznqM4W5K53JSoGY4jujYlbG/X38557eUfv66vd7Ef2L6hhYVFk87Dxk/dmqzZ7aBpbC0QFf/tlkGmiOTtl+IztOcGyiBfcVq0c6+hi08++1H8+0PClom9Bi+/lK05T+G4vomKl3HA25XDmTDSpjnbwsKyEVGzHM4UYbPRtEJUjQ9EpapSBhkOiEqVatEDUXHTdrpznMcP7NDIwsLCkm3Vw9aJw3H1jJG8dEZiaHFC8BSOs33/9g2J7ojdus84Z85k/3Nfuep2U/lp0TMdxw23acJCaDTEtGXfsQ6OwmP82FFDerdrwEIQGsIas1euI5fEIm2caY+oVPhlLEqJmjXRI/xk4tNnT67u9hrQxmbarrQi6jiFzvoJUqs/nahUaTClH24fjQ4LiTh494vEhafiZ2Z6clLKmzzRYFFlQd7PMmrFVZ90SXLgoK4u+6Q2NueVfHm0f06X+q0XJIhSJRMpy3uTkvTwSUZeOQHd71NTX7779K2glKt6btXbotNvtUBUathX9uXRmT1bQsOjD9/IKNAGTRF565uo1CivDoMCUelQXN0nDUSlisZ6ICpVzNBGGLndlDYS1jgN7RGViqYUZ909sWvz5ugjlx9l/hLNJUnF1Uk/QeYARCUltN4+lJ6d0sDa77Gc2v59ZIJ594Bn2qIBvZVIUUb6JSpFVmh0HYhKI/kgcm0oAESliup1iKhUKW7thNE7UdVOMQW5AlHVjvrc1LXdGjvEZIu9fkRmlCT5dm06+ZTE7130hbH+B6Iy0pqDMSojrTiB2UBUqlQfEJUqKmkYBohKQwGp0WnUDzLnQUFBISEhMhf/mI9lr2LdBg6YvOl8ek4xMVSFVeS/u7NvsW1f+8BEPcxt601nICq9Sa3djICotKunnlMDolJFcCAqVVTSMAwQlYYCUqMDUVHVkD3n/353+8TOsA2rV/r7r1oXvDX2YlquxFVLNrRxfgaiMs56w4GojLTiBGYDUalSfUBUqqikYRggKg0FpEYHoqKq8SeeA1EZaa0DURlpxQnMBqJSpfqAqFRRScMwQFQaCkiNDkRFVeNPPAeiMtJaB6Iy0ooTmA1EpUr1AVGpopKGYYCoNBSQGl0JUW3YsKEMjjqtwP379/v372/URaTRaCUlJUZdhBoY37t37+Tk5BpEhCiGoMC2bdsWL15sCJYYsg3t2rV7/fq1IVtYB2yLiYmZPXt2HSiIKkUwMzMrLdXhlszVERWGYaampmZw1HUFjL2Wjd3+mrWvP7PUNdPKAGOZkocBGmZQJkEj10N1/FFNMSAggDqkpPXz6ohK65lBgqAAKAAKgAKgACgACtRJBYCo6mS1QqFAAVAAFAAFQAFQQK8KAFHpVW7IDBQABUABUAAUAAXqpAJAVHWyWqFQoAAoAAqAAqAAKKBXBYCo9Co3ZAYKgAKgACgACoACdVIBIKo6Wa1QKFAAFAAFQAFQABTQqwJAVHqVGzIDBUABUAAUAAVAgTqpABBVnaxWKBQoAAqAAqAAKAAK6FUBICq9yg2ZgQKgACgACoACoECdVACIqk5WKxQKFAAFQAFQABQABfSqABCVXuWGzEABUAAUAAVAAVCgTioARFUnqxUKBQqAAqAAKAAKgAJ6VQCISq9yQ2agACgACoACoAAoUCcVAKKqk9UKhQIFQAFQABQABUABvSoARKVXuSEzUAAUAAVAAVAAFKiTCgBR1clqhUKBAqAAKAAKgAKggF4VAKLSq9yQGSgACoACoAAoAArUSQWAqOpktUKhQAFQABQABUABUECvCgBR6VVuyAwUAAVAAVAAFAAF6qQCQFR1slqhUKAAKAAKgAKgACigVwWAqPQqN2QGCoACoAAoAAqAAnVSASCqOlmtUChQABQABUABUAAU0KsCQFR6lRsyAwVAAVAAFAAFQIE6qQAQVZ2sVigUKAAKgAKgACgACuhVASAqvcoNmamnAK/o28cslY6Pn76Xqpf2nxya++3RkU3L58+YwnFxnbcu5kFOJY59vRR55DXvT1ZF12XHfr9JPHvswJ7tm0OPpemotfIKc1W6Yz5+yS/XdXkhfVDgj1MAiOqPq3IjKjDvTUhfFEHZHQc7TnXz8PJe6O05c6gVitCQ+tZj3by8vRd4zp/FGdvHqj4dqTfhSKERFY1iamXOvT1rliz1XbFsoedMjsu8wOPp+XzK99o+LXm6eXTXoctPvy4k+In36+W5oJlTVqxybtV20d1KbWdGTY//5aSbTYtOznvfagRuWkqGapl+zrG8BwfCVjlb10NY4/b/xHSRKe/Fhp4ogjbqMtJ5xlzPBd7enlP7N2XQaHTLbhPmLSDul9muY/+xMqXTG825XKELCyBNUOBPVgCI6k+ufUMve+WDZdY2C65/p/BF5d1FrRg0tF/oW8rFivexk1oOiciiXDL0oonsq8zYO3dO2J0cYe/G/3lzcRcTVpspRz9qRB2i5Kv+L3vo26XJpCPfpDr0yjfbbdnM1tJEhf26vHXvqxqZIT9qZeICKwaN3mBGvIoDNFpKpqoItXiF/y6sH6ozoqpMXNCh94p7vyS1W3F5dkM6jTVq51fJtbLX0WObOxwsqEUZIGtQoE4qAERVJ6u1jhSq/LybU/QXKU6qvL+0LYOGDticKXWZm+w/Yc0TrtGVu/yKe7P6TfssvvRd1N9hOTtHsmj05vNv6GRWpuLG/Gb1Rv+bJ8pOpFjl45Vd20kTFe9Z4CS/pBppqiAqVvAi/uDpp1RCFuUv97+WkpGbdm1d5GdFDNIdUZXGzXTeJ0XLFVfdG9NpLNs9UlfLri9w3vKutjSAfEGBuqoAEFVdrdk6UC7se8wC/4fSE1EKiAovPrVgyVXpaYyy++ucfK/LmQrkvTkXFhQodQQFb4rYfTwho4AyJFP+Ii4sdHPEtqioqMitW8JCdydkS1EcjldkXNwZpejYvvfWR5nwVeuk5Pz0hnSE1TckQ5xx8VEnEwQxsYvNrxpc4ytY3h5bFtor8KU4O1GS3Ed+tkups378rMgRXZfXiKg0iCoyh/ivpWSoSdb+uZq7ttwAABFDSURBVE6JCsvevWD9UykIlk9UWN6+BauTal8NsAAUqFsKAFHVrfqsU6Xhvd0ZECs9RIUrIiru4+CAc8XU4v8+O+1vhoXDAalnc0GAyuIfH2/6dEOZHRZczckvII4fX55dDLZr2bD73GOZIoarKMrLPDuvHZPOHhuZlvPzd5kshvALs18/jpnWikFv7LIn9c078njzKvV+/K7FQ5qYOR7+TTVI7jn2++29W6lfRVniOPepvzUTYfXdpBsv8dLz0xvQGa1mns2Vpb2ia9t2PxeXkJ97dlZrtL1PDYhKg6hUibSUDDVJQzjXKVHxXm0LOCI9/iifqPCKhPXrbxqCHmADKFCXFACiqku1+QeURRFRyRYd+3bIY2jPpox6w7fLHykqPORggvYNpTpJY/nHXdh0s2GR78W0wf8cNQxlWq9UPKHI/xw1VE4ILP/0TDvKyJOsfQo+YwVX57Vm1rNZllggOy+nIIa6lwuvzLVi0BDTtmOWRp19+C5fwnKilPifrmx0H9ayHkKjm3cZN2MmcbiH3xYP9mE/Hu0P9F8bGLx+zXJ3Z47vsVdFKkTlf4zzcbYbNbhvj/5+ieJMS/47EbhibcjWqKhtERFbwoK9bMeHZfCqsUB+MmT+xW/ityxznzHLY+GShb7bbmVX4sXX/ZbF/cJxnJu+223iOCLznguFDtm/E4InO4wZPvCfHrYbqaM6vNx7UQtnzF0esM5/8Swn5yWx6b9FNSHfWFHZFf0vfndp28rlqwKD1q/y8ws+/CRtS5VZP63nSbFFAVGJQpS8ORu80Gup3+o1q/x8Fniu2JOUJ6Rq1TQruRsyebztsP69es45lpf/ZH/AioWuox1XXflK3EI1E0xkGvwHBYxPASAq46uzP9piFYmKn7XTKzDpnm8nJvpP8H/ikReKdCRRSTu449ynqzoz6X+7XRFPHwqJyp/a51ISIaamBMwlDoEV5eURjtfYzwPzlyWI0UE6UpVPWGXxzy8Z92IXDenU0zX8bp4Y6aqE1PgC9uOW7z9/ITTyQOimTbuOmL7mUHKuxFReWeHvgtz9DiaMtt43fpBDeL9LKoVcwXuzzbb37JMfBBJhPy66tzG38UkQYkc1UfllBV/TI8exGQ1mXRLqW3jd858pJyWr3kqfrunTj5iRVC8ZYsXixzj3LhYt7LamFBJ2YoVPtnquPhjh0NhOsKiOW5KfkxI63AwxcT4p8E/DKgrz3l9dYoMy2i69Lyo77+OxKW3ZgzamC1znidK1/Xv0DhK7FRpbTY3wPp/x6NZyeNDDfIF63M/xvo5dGzOonunazlPGnGqICvt1Z3X/9mO3PheN7fK+XvDoZj358Hty3lAlzQgZsxL9eqOsEX7hK0Pu/MzdY8tC0OHbv+A1EUzGePgIChiZAkBURlZhf7q5qhEV71WYV8QbHu9lUC9i/OixqMekqCeHqMrTAnqz0A4LbohHJarwEiUB4akMUWE/Yub73CHy4+emPP2sIhmVvTgVvil4ve8859G2kxZF3fokRrqqGWrhClb0+mzQ9CEdGqBCsKIhzBb229NFPSuRRdmJSSYMObN+vw7Ym9DozebfEJrIexXUC60//sAP0UiO4qiCKU1UTFSVdxa2aeOVUCYpEe9VyNxNIh8vRRbIJoPj3P/CB/3FbDn3CmVgj/8hauRfDBPKNgWVD5e1Y4iJisy07KRLPQlR8bP327NRa99HkjUBvNcb+7CauV8pwZUYKymD5Iz3essQc7MhW6UWUZANWEJU2s5TkrvwTCFRYQWX3Fua9AoSyU2Gx34ed2lgPiTijfAhRKlmZKzy+BlsBtt6yaUiHMcKXpw7cDo9H6uBYFWMhwuggJEpAERlZBX2p5urElFVJq/33ks4YPE/bBtaj9HS6xal1xYqSBAVs8uCuAdJSUlJD+9eO7ltkf3AEXM2J+ZQHXtleEmO+mQIRuuZMfeTkh7eubzPs0/nhSRRyQmrwiXe5yOc5swGA9dRV8DLxMMKsp6lVXekZ3yTiSL/I78k59mtE9t8Xbqz6QiCWvs+lOikiGewnw/3BASfeFkiSjI/xo6F9gx8IRkIVBQVx7kpqzpLiIqfGTGoHstq1OKoc0lvf5AYw83J/CjaWkHVZPCy6/NbMJjWfo+pNYfzXgX3llpUx01e0ZEpTVTlcRxTMVHx3ob2Q+mN3aUWOFRcn9cU7bQiGVdirEgNyv+yGx4tGOggmU09eOnrujHFRFVtnlz186RkLzxVRFRY9i5bU4aVl2QGlozA/xQ5FGW0WXxP8BCiTDNBJhUXZrLp7KlnxW2CuKwN44VlgH+ggLEoAERlLDUFdpIKqEJUpTdXLhHOJWG5++3+YjSefk7sBSTSkSQqa7d9l66Qx+X4EzvXzrIbN3frna+UjllVomoxIfjIsWNHYqJWOXRorwlR4TjZ5SKM1p43xO5JIpuF//lfn16+UN1x6e5bmSiSj9xKSvFEl0teRNs1odMbz74kwhmFY1RkFF5hVtKZHQFLF/uuCfCf1ImJdl8vcWqvJqo0UeF4SVrkeCsWMVBGTD/a2C099FwyPqgqUfGeBXRHETOXk1IdOl7FBZybvKJTdURVeopTH6E3GeEdvFFyBC9z7ttlWGAy4RVUnbEiJSX/BWZZTDsnGfEivpQmqmrz5KqdpyR38Zkioio/P80SYXZdkybTHIoOO5pI9ntTppkgG4KoUFmi1Ybx4lLACShgHAoAURlHPYGVQgVUIKqCM3PGLdx7THAc3TWvO0q3nHBIvOGTMCE5s3545X8h/euhrWacEa8PVEBUvM9p6cIEZUJgObtmC2b9cLzkXVoG6dajuPYq8l7cS8osksyY4TheHj+djdDoDWdfku6LFaei+jfY13+XbaTAjzgmMb2FEp76oivSPINVVnAFRmJFqbum2TTp5BJ+I6uEuERMA1ZHVJKosmNUZFZYyccHcdHrF8+w6928HoKY/RPwRDhQpsgC2WS4j3w7MhHL6fHScqlNVCUnnM0QprXYI06kBOW/YmMpgYSnArPYsmZJE5WW86xqBa6IqIqPTawnj6iIzTtoaLeAZ+SYoxpE1XV1qgycEQ5tCmtXjqlwCRQwegWAqIy+Cv+sAiglKiz3oLd37H1iLk9w3Pt3qhXDdOQOGZ8meUSF8z9uHYwirGFRn4WqyvCS6GrW9gXBgi6niqcV/+ur/wS+1pW3l3seFLoky6+kitveLRk0Otv5uMQ7G8crrrj9TachppOOU/2a5Keg7lUse4fT9LgqA3Y4jldcnNWANVRccOmBJt5/4T67CAGx/PMzmzMtbKMzxb3nr1ghUWFFn7K+EwZJoZA4KvGN9BgVN2VnBHUgruLTec+uZo3drghKpWoy2Ld9Y00RdHh0thSY8j/IbKXJfexnLTNGVXLMyUQy6/csoBtKbzL3mlwnNoXGSnOcpEIEZpnYxRKLDSWHNFHxtJunJBvxmSKi4j5Zac1ktJQdT8VydoxgIeYTjwq2XVemmSAbcoxKlqjUFkxsMpyAAkarABCV0Vbdn2m4MqLif4j2WC+910Flsp81E5Xd4EkuUZG+N0i90XtyherKJ6qCuBkc0R7U8kMQ0zuvQznLhe4oCuqq/MLMBnSEaTXvCoVxsNzdtiwEMRm4+Z2Kfu0KUpd3GcuOHtFoHOljJv01lr1jpFnnVZI1jeVnp5gzRf403NRAn1hiUK7ohHN9hGUXIwFFfmb4AJQco+Imr/U5QqQqPyrxjTRRVVybbzMrnoqNRNnZk44LTFM1GRz7dmRSQ4a5fYx4aJFIoPLBsnbSi+qId96ZTDountjEyYk5MVHhvIzwAaZo55VPpBYyYN9PBWxNxRUaS7VfYLjwL5Z72KkB08pT2omPZBSxH1W1eXLVz1PKAPKDIqLCuc+DeptUeflAUfzMxsym084IEZ98T2B1mgnyIGb9ZIlKG8ZXLQ5cAQUMWgEgKoOuHjBOVoGKGx7N6TRpT2hJGOzXda8+s+Ml/tXkV9yUVV2Yskv+SIfqvpske5XjOPfTyWmtmPU6L74pXjNGTh0xO1Gdnnm5V7xtGk8/LxybkBOCyLTi/UGXNrY7c6SGTSSGCs+Kby8b5Lgzgzoown27ZYgZYtJ5iWhDgiqRNLmAZUcPZzEajQi8J/0qmKL7y7tZTTxI2U6V9ya0H6vemH8JSsG+H/UJJPf6LL/p0YKO9lz/XDREVfxo86x+rVgdlidVll9fsfwCYZz8qMQ3xNIxpsXUs4IKqrg2r+lfA0JeSopfem9przE7PwpKqGoyRI4fYp2amXScf1m87URlxg6nlvXpEnTBcbzo3LRGrEERH4SgiuXfCHK0YTOauF8RNZiyZ5uHN2w0evtr8cAT/9sVP4/o11xcobHVYC83c59Dswa229+IEY336di0NiYIOnir+CWUWs5TtnWUnJ3KRmjUDMUhip8ED2rQZtb5b+IilKQGD2C3nR4neTmAcs1wHC89xfmL2d5H+vUGNRFMbBqcgALGqQAQlXHW2x9mNT/7zApXjitn4pi+bRtaWlhYWDbpNMjemePKmRJ6V9j78d6dXGbframFeaOuU2IkG47zXh9ZYte10V/mFo1t7OetPPaKh3NfHPJxG2tdH0Hqd3bwWLiIOLznTx/fv1tvO+9dSSLWKHuyZ9GskW1NEITVbvQ8Ipi3x6xJQztYMhFmh+WPuDheNcSiRYsWes2d5tCvpRmd3nT+dQksKKixisxTvs4T3ANjLj149ir9XlyQUwe21Sj/S59FyKIgXg0vY9nRozq4xd074D3BYfaq7cev3H14+8KBTW6Duo/beF8y8ESkjv1+EDyqVSfH9Xv3Bi3wPSEkAOx7YtCEzlbdp2w8HB9/LDJg5baEr5kHnVs17uE4Y8GOpwLncHlRuWk7Zk8Y1a2Zhbl5o06DHTwPvuVVXPewHuy5erHnqh1xV65fidu5eqbrstNZ4pKrmIxAivK3cT623QdMW7/vTPzx6PW+QcdP+9lIFtWRgbiZR+f0tHFYdyD+8tmYsBW+0XfPeLSgIybNe47ibEkW5Fv84pD3qD4j3QN3Hz22L9TH3SP0NtkglBmroELKMk4sHTPY3jN4X9zJPRv9Fq3cc2CpDRNhsDsOGb/sdI4glpbzJBbafTi2lLhhnGx7tWpgQdwwzboMHU/cMDMjKSO4WOGzWK/Rwxw81kbGHtq53s12OCfo+hdxBRDWVa8ZXpwQ5GI/qGNDIgebkU7OriGi+7GGginQES6DAkahABCVUVQTGFmnFSj/mn7r7KGdW0I3Rx+6nJYrHiDRQaHLXj9KE7jIlOWmXT26JzIsdMueUw8+Sq+TE2dc8f118oOUrN/iUQzBNxU/M9OTk1Le5IkGdyoL8n6WSY/HKYgqThrHseJv3winfH7hp/SH95PS38vZwB1XngwlRZxfnPPySUrGt1JMZlGdJFBZ3puUpIdPMvLKic2T3qemvnz36VtBqdDxXhiOV5z98vHj558LxQVXyVhJLtJnvKIvL548/S+XcOUv/vQs5fmbrK8/i0WbpuomT2kLqv3EK8p+lZL+IV8h/6ukmUwWGgkmkxZ8BAWMRAEgKiOpKDATFAAF1FFA2gVcnZgQFhQABUCBGikARFUj2SASKAAKGLYC3LQ1XZmsMXtlt80wbKvBOlAAFDBiBYCojLjywHRQABSQowA/N/lUTIR7L2LDTtsVuw5eealkWzA5acAlUAAUAAXUVQCISl3FIDwoAAoYtgL8bykXz56/eOXa9WtXL184d+bWa+k9VA3berAOFAAFjFUBICpjrTmwGxQABUABUAAUAAUMRwEgKsOpC7AEFAAFQAFQABQABYxVASAqY605sBsUAAVAAVAAFAAFDEcBICrDqQuwBBQABUABUAAUAAWMVQEgKmOtObAbFAAFQAFQABQABQxHgf8PvFRiRAZBoboAAAAASUVORK5CYII=;" vertex="1" parent="WIyWlLk6GJQsqaUBKTNV-1">
          <mxGeometry x="50" y="510" width="401.44" height="102" as="geometry" />
        </mxCell>
      </root>
    </mxGraphModel>
  </diagram>
</mxfile>
